<?xml version="1.0" encoding="UTF-8" standalone="no"?>
<!-- Generator: Adobe Illustrator 16.0.3, SVG Export Plug-In . SVG Version: 6.00 Build 0)  -->

<svg
   version="1.1"
   id="Layer_1"
   x="0px"
   y="0px"
   width="431.74063"
   height="739.98651"
   viewBox="0 0 431.74063 739.98651"
   enable-background="new 0 0 3200 1400"
   xml:space="preserve"
   xmlns="http://www.w3.org/2000/svg"
   xmlns:svg="http://www.w3.org/2000/svg"><defs
   id="defs1121" />

<g
   id="g10724"
   transform="translate(-156.32621,-347.4445)"><g
     id="g524">
					<path
   d="m 279.644,954.356 c -0.212,0 -0.427,-0.02 -0.643,-0.06 -1.9,-0.353 -3.155,-2.179 -2.803,-4.079 0.056,-0.304 5.551,-30.79 -0.697,-66.4 -0.334,-1.903 0.938,-3.718 2.842,-4.052 1.904,-0.337 3.718,0.938 4.052,2.843 6.477,36.913 0.924,67.6 0.685,68.888 -0.312,1.685 -1.783,2.86 -3.436,2.86 z"
   id="path522" />
				</g><g
     id="g530">
					<path
   fill="#33a97f"
   d="m 279.956,950.565 c -26.681,-3.689 -58.041,29.751 -38.492,44.528 19.549,14.777 48.505,-25.584 38.492,-44.528 z"
   id="path526" />
					<path
   d="m 250.732,1001.814 c -4.045,0 -7.903,-1.302 -11.379,-3.929 -7.412,-5.603 -9.442,-14.181 -5.572,-23.536 6.227,-15.048 27.503,-29.905 46.653,-27.251 1.115,0.154 2.088,0.836 2.615,1.831 7.031,13.301 -2.262,34.645 -15,45.48 -5.776,4.916 -11.724,7.405 -17.317,7.405 z m 25.09,-48.029 c -14.88,0 -30.82,11.758 -35.572,23.241 -2.669,6.451 -1.551,11.59 3.324,15.275 7.441,5.625 15.687,0.395 19.94,-3.224 9.921,-8.44 17.723,-25.076 14.068,-35.236 -0.584,-0.037 -1.171,-0.056 -1.76,-0.056 z"
   id="path528" />
				</g><g
     id="g536">
					<path
   d="m 298.228,1030.441 c -0.631,0 -1.27,-0.171 -1.845,-0.528 -1.641,-1.021 -2.145,-3.178 -1.125,-4.819 0.691,-1.112 17.278,-27.521 46.947,-50.417 1.53,-1.181 3.728,-0.898 4.909,0.632 1.181,1.53 0.897,3.729 -0.633,4.909 -28.621,22.089 -45.116,48.31 -45.279,48.572 -0.662,1.065 -1.805,1.651 -2.974,1.651 z"
   id="path534" />
				</g><g
     id="g542">
					<path
   fill="#33a97f"
   d="m 298.702,1025.013 c 22.193,15.263 22.812,61.103 -1.59,58.838 -24.401,-2.266 -18.577,-51.597 1.59,-58.838 z"
   id="path538" />
					<path
   d="m 298.817,1087.431 c -0.665,0 -1.341,-0.031 -2.028,-0.095 -10.338,-0.96 -17.209,-8.947 -18.852,-21.914 -2.103,-16.591 5.422,-38.619 19.583,-43.703 1.062,-0.38 2.239,-0.229 3.166,0.41 15.93,10.955 21.631,36.268 16.085,51.579 -3.191,8.812 -9.67,13.723 -17.954,13.723 z m -0.571,-58.399 c -9.548,5.04 -15.002,22.587 -13.364,35.51 0.702,5.539 3.267,14.961 12.555,15.823 6.085,0.571 10.375,-2.478 12.753,-9.041 4.398,-12.146 0.066,-32.665 -11.944,-42.292 z"
   id="path540" />
				</g><path
     d="m 461.862,734.454 c -1.462,0 -2.826,-0.924 -3.317,-2.387 -0.616,-1.832 0.371,-3.816 2.203,-4.432 71.939,-24.171 105.011,-90.442 105.337,-91.108 0.848,-1.736 2.943,-2.458 4.68,-1.61 1.737,0.847 2.458,2.94 1.612,4.678 -0.346,0.71 -8.683,17.636 -26.344,37.858 -16.305,18.668 -43.949,43.679 -83.055,56.817 -0.371,0.126 -0.747,0.184 -1.116,0.184 z"
     id="path546" /><path
     d="m 555.881,673.8 c -3.625,0 -7.198,-0.993 -10.489,-3.452 -15.628,-11.683 -6.575,-36.838 -6.182,-37.903 0.67,-1.813 2.681,-2.74 4.496,-2.072 1.812,0.669 2.74,2.679 2.073,4.491 v 0 c -0.078,0.212 -7.639,21.323 3.804,29.877 11.519,8.612 32.224,-12.88 32.43,-13.1 1.321,-1.41 3.536,-1.483 4.946,-0.161 1.41,1.321 1.484,3.533 0.165,4.944 -0.813,0.872 -16.46,17.376 -31.243,17.376 z"
     id="path548" /><path
     d="m 292.598,740.285 c -0.246,0 -0.496,-0.026 -0.746,-0.08 -40.872,-8.868 -70.961,-29.441 -89.005,-45.138 -19.576,-17.03 -29.381,-31.809 -29.789,-32.43 -1.062,-1.615 -0.612,-3.786 1.004,-4.847 1.616,-1.061 3.786,-0.611 4.847,1.004 0.457,0.691 39.176,58.243 114.428,74.569 1.889,0.41 3.088,2.274 2.678,4.163 -0.355,1.639 -1.806,2.759 -3.417,2.759 z"
     id="path552" /><path
     d="m 187.163,694.354 c -14.448,10e-4 -28.941,-13.455 -29.737,-14.205 -1.407,-1.326 -1.473,-3.541 -0.146,-4.947 1.326,-1.408 3.542,-1.472 4.947,-0.146 0.209,0.196 21.292,19.738 33.702,9.066 6.47,-5.565 2.086,-24.337 0.04,-30.475 -0.611,-1.833 0.379,-3.815 2.211,-4.427 1.833,-0.612 3.815,0.376 4.428,2.208 0.962,2.876 9.075,28.376 -2.115,38 -4.143,3.565 -8.735,4.926 -13.33,4.926 z"
     id="path554" /><g
     id="g568">
					<g
   id="g566">
						<g
   id="g564">
							<g
   id="g562">
								<path
   fill="#fdc093"
   d="m 341.692,743.223 c 0,0 16.452,0.577 25.336,-2.657 0.268,-9.269 -1.5,-24.126 -1.5,-24.126 l 23.939,-1.896 c 0,0 2.436,18.538 2.608,24.604 12.483,2.394 25.807,1.339 25.807,1.339 0,0 3.375,39.18 -39.646,40.197 -11.323,0.272 -40.876,-17.04 -36.544,-37.461 z"
   id="path558" />
								<path
   d="m 377.993,784.187 c -8.357,0 -23.681,-7.415 -32.722,-18.305 -6.234,-7.51 -8.656,-15.596 -7.003,-23.386 0.353,-1.661 1.85,-2.806 3.546,-2.771 0.143,0.006 13.268,0.428 21.74,-1.752 -0.059,-8.882 -1.485,-20.986 -1.501,-21.12 -0.112,-0.945 0.166,-1.896 0.769,-2.632 0.603,-0.736 1.481,-1.195 2.43,-1.271 l 23.939,-1.896 c 1.851,-0.137 3.503,1.186 3.747,3.033 0.087,0.667 1.896,14.47 2.472,22.08 11.033,1.673 22.079,0.839 22.198,0.829 1.91,-0.141 3.597,1.273 3.762,3.188 0.063,0.73 1.407,18.024 -10.09,30.856 -7.508,8.38 -18.598,12.801 -32.96,13.141 -0.107,0.005 -0.217,0.006 -0.327,0.006 z m -33.224,-37.422 c -0.17,4.811 1.803,9.725 5.888,14.646 8.075,9.727 21.438,15.776 27.301,15.776 0.066,0 0.131,0 0.196,-0.002 12.326,-0.292 21.702,-3.914 27.87,-10.766 6.739,-7.486 8.134,-17.203 8.373,-22.255 -4.973,0.15 -14.114,0.12 -22.979,-1.579 -1.612,-0.31 -2.793,-1.697 -2.839,-3.338 -0.122,-4.299 -1.458,-15.381 -2.158,-20.951 l -17.022,1.349 c 0.514,5.058 1.323,14.344 1.13,21.022 -0.042,1.434 -0.954,2.696 -2.301,3.188 -7.036,2.56 -18.047,2.908 -23.459,2.91 z"
   id="path560" />
							</g>
						</g>
					</g>
				</g><g
     id="g578">
					<g
   id="g576">
						<path
   fill="#4dbbc5"
   d="m 411.019,740.716 c 6.247,42.306 -63.687,39.971 -64.083,2.526 -6.828,-0.122 -35.855,-0.981 -54.341,-6.458 -4.04,17.06 -8.749,32.475 -11.855,43.902 10.108,4.332 29.861,6.234 45.806,6.757 5.49,16.556 -18.761,59.521 -21.042,63.362 0,0 65.063,37.97 151.545,24.205 0.023,-0.004 -14.569,-89.974 -13.115,-91.417 14.3,-3.621 28.153,-6.902 37.788,-12.855 -4.148,-17.414 -15.49,-33.731 -19.859,-39.785 -20.597,7.701 -35.512,9.069 -50.844,9.763 z"
   id="path572" />
						<path
   d="m 419.119,881.486 c -28.898,0 -53.613,-4.993 -71.238,-10.052 -27.184,-7.804 -43.461,-17.209 -44.141,-17.606 -0.806,-0.47 -1.39,-1.242 -1.624,-2.146 -0.234,-0.902 -0.098,-1.862 0.379,-2.664 5.242,-8.828 23.248,-43.05 21.24,-58.178 -11.18,-0.47 -32.856,-2.001 -44.375,-6.938 -1.604,-0.688 -2.457,-2.451 -1.999,-4.135 0.912,-3.355 1.962,-7.054 3.092,-11.034 2.763,-9.732 5.895,-20.764 8.735,-32.757 0.222,-0.936 0.819,-1.739 1.651,-2.222 0.833,-0.481 1.828,-0.6 2.749,-0.327 18.324,5.429 47.706,6.212 53.409,6.314 1.894,0.033 3.417,1.568 3.438,3.462 0.131,12.406 8.846,18.65 14.029,21.268 11.302,5.708 26.03,5.146 35.019,-1.337 6.686,-4.822 9.477,-12.398 8.073,-21.908 -0.145,-0.979 0.132,-1.975 0.762,-2.738 0.63,-0.764 1.554,-1.226 2.542,-1.27 14.537,-0.657 29.283,-1.883 49.776,-9.545 1.476,-0.549 3.142,-0.049 4.063,1.229 10.404,14.413 17.467,28.599 20.426,41.023 0.35,1.468 -0.281,2.995 -1.565,3.788 -9.497,5.868 -22.424,9.146 -36.122,12.603 0.472,5.439 2.773,23.777 12.61,85.28 0.563,3.516 1.007,6.292 -2.426,6.864 -13.428,2.141 -26.337,3.026 -38.503,3.026 z M 310.324,849.415 c 13.54,6.932 70.555,33.046 142.714,22.664 -1.26,-7.874 -4.702,-29.424 -7.643,-48.956 -6.015,-39.941 -5.614,-40.34 -3.928,-42.014 0.445,-0.44 1,-0.755 1.606,-0.908 l 2.458,-0.621 c 12.136,-3.063 23.655,-5.968 32.132,-10.54 -2.189,-7.784 -6.919,-19.314 -17.108,-33.883 -18.437,6.587 -32.337,8.152 -45.695,8.874 0.516,10.401 -3.414,19.105 -11.283,24.781 -11.167,8.054 -28.549,8.837 -42.27,1.909 -10.14,-5.122 -16.436,-13.771 -17.656,-24.059 -9.262,-0.28 -31.852,-1.375 -48.499,-5.555 -2.639,10.777 -5.453,20.689 -7.965,29.537 -0.787,2.773 -1.535,5.407 -2.224,7.883 8.698,2.841 23.88,4.833 41.696,5.417 1.465,0.048 2.746,1.005 3.208,2.396 5.399,16.281 -13.482,52.2 -19.543,63.075 z"
   id="path574" />
					</g>
				</g><path
     fill="#ffa600"
     d="m 449.733,828.385 c -1.893,-12.421 -3.706,-24.745 -4.811,-33.318 -49.48,13.353 -93.102,8.271 -117.921,2.935 -1.087,8.017 -4.559,17.764 -8.414,26.708 20.97,6.998 72.003,19.758 131.146,3.675 z"
     id="path582" /><path
     d="m 391.107,839.61 c -33.892,0 -60.719,-7.272 -73.627,-11.581 -0.93,-0.311 -1.687,-0.996 -2.087,-1.891 -0.4,-0.895 -0.407,-1.915 -0.02,-2.815 4.514,-10.472 7.259,-19.15 8.16,-25.793 0.131,-0.966 0.659,-1.833 1.457,-2.394 0.798,-0.561 1.792,-0.764 2.747,-0.558 26.802,5.762 68.731,9.938 116.273,-2.892 0.976,-0.264 2.018,-0.092 2.858,0.47 0.84,0.562 1.396,1.459 1.525,2.462 0.966,7.488 2.581,18.672 4.799,33.238 0.268,1.759 -0.825,3.438 -2.542,3.904 -21.173,5.761 -41.374,7.85 -59.543,7.85 z m -67.815,-17.063 c 21.092,6.55 68.296,17.153 122.509,3.257 -1.64,-10.831 -2.923,-19.66 -3.828,-26.35 -45.246,11.44 -85.259,8.074 -112.134,2.709 -1.174,5.776 -3.366,12.604 -6.547,20.384 z"
     id="path584" /><g
     id="g596">
					<g
   id="g594">
						<g
   id="g592">
							<path
   fill="#1a1616"
   d="m 319.173,855.751 c -15.833,-6.59 -46.667,-23.976 -58.052,-0.176 -6.219,12.999 -1.954,68.656 -1.954,68.656 0,0 36.019,8.216 51.668,3.609 0.668,-13.218 -0.414,-22.502 0.442,-30.591 0,0 35.953,6.188 40.313,4.392 3.828,26.5 -49.003,85.876 -49.003,85.876 0,0 16.015,26.104 30.666,35.717 62.332,-41.298 101.157,-94.711 96.794,-145.514 -65.193,0.82 -88.785,-12.776 -110.874,-21.969 z"
   id="path588" />
							<path
   d="m 333.254,1026.734 c -0.668,0 -1.337,-0.191 -1.92,-0.573 -15.131,-9.929 -31.059,-35.719 -31.729,-36.813 -0.807,-1.314 -0.657,-3.004 0.369,-4.156 13.671,-15.37 47.479,-58.061 48.306,-79.792 -7.884,-0.011 -22.764,-2.22 -33.779,-4.055 -0.115,2.941 -0.063,6.125 -0.006,9.644 0.079,4.917 0.169,10.489 -0.162,17.028 -0.075,1.485 -1.081,2.761 -2.507,3.181 -16.338,4.809 -51.928,-3.211 -53.435,-3.555 -1.495,-0.341 -2.594,-1.615 -2.711,-3.145 -0.444,-5.792 -4.151,-56.979 2.286,-70.435 11.576,-24.197 39.871,-11.596 56.777,-4.066 2.076,0.925 4.038,1.798 5.776,2.521 v 0 c 2.304,0.959 4.624,1.965 7.004,2.998 19.955,8.655 44.779,19.435 102.482,18.703 1.831,0.018 3.374,1.374 3.531,3.2 2.197,25.586 -5.872,52.028 -23.982,78.593 -16.974,24.897 -42.689,49.151 -74.366,70.139 -0.587,0.389 -1.26,0.583 -1.934,0.583 z M 306.949,987.85 c 3.901,6.006 15.444,22.975 26.356,31.144 61.9,-41.584 95.739,-91.508 93.474,-137.743 -56.838,0.312 -81.863,-10.558 -102.042,-19.311 -2.348,-1.019 -4.636,-2.012 -6.908,-2.957 -1.819,-0.757 -3.818,-1.647 -5.935,-2.59 -20.542,-9.149 -39.64,-15.98 -47.615,0.693 -4.52,9.447 -2.977,47.37 -1.81,64.272 7.82,1.613 31.896,6.146 44.983,3.691 0.183,-5.214 0.108,-9.817 0.042,-13.948 -0.085,-5.285 -0.159,-9.85 0.304,-14.22 0.102,-0.963 0.598,-1.84 1.37,-2.424 0.771,-0.583 1.751,-0.821 2.705,-0.657 16.124,2.775 35.361,5.302 38.486,4.564 0.974,-0.364 2.061,-0.28 2.966,0.236 0.938,0.534 1.576,1.472 1.73,2.54 3.65,25.268 -38.725,75.868 -48.106,86.71 z m 43.36,-89.465 c -0.018,0.007 -0.036,0.014 -0.052,0.021 0.017,-0.008 0.035,-0.014 0.052,-0.021 z"
   id="path590" />
						</g>
					</g>
				</g><g
     id="g604">
								<path
   fill="#fdc093"
   d="m 502.209,586.398 c 9.852,73.522 -40.959,130.148 -111.76,139.637 -70.795,9.491 -134.729,-31.768 -144.58,-105.301 -9.853,-73.518 39.892,-138.157 110.691,-147.643 70.799,-9.486 135.808,39.79 145.649,113.307 z"
   id="path600" />
								<path
   d="m 370.475,730.881 c -28.406,0 -55.255,-8.087 -77.181,-23.498 -28.011,-19.688 -46.085,-50.295 -50.893,-86.184 -4.867,-36.314 4.288,-71.974 25.778,-100.408 21.359,-28.262 52.583,-46.434 87.917,-51.169 35.335,-4.734 70.239,4.58 98.287,26.226 28.215,21.777 46.433,53.773 51.295,90.086 v 0 c 4.808,35.883 -4.571,70.165 -26.409,96.529 -21.151,25.534 -52.529,42.241 -88.355,47.042 -6.869,0.92 -13.699,1.376 -20.439,1.376 z m 3.587,-255.463 c -5.647,0 -11.334,0.378 -17.036,1.142 -33.469,4.485 -63.039,21.691 -83.263,48.451 -20.371,26.954 -29.045,60.784 -24.425,95.258 4.546,33.931 21.585,62.834 47.98,81.386 25.684,18.053 58.593,25.481 92.667,20.911 72.256,-9.684 117.995,-66.755 108.755,-135.703 v 0 c -4.615,-34.475 -21.887,-64.83 -48.634,-85.474 -22.032,-17.004 -48.541,-25.971 -76.044,-25.971 z"
   id="path602" />
							</g><path
     fill="#ffa600"
     d="m 528.079,539.884 c 19.586,-2.623 14.314,-49.86 -12.466,-62.484 12.466,-41.293 -15.4,-81.199 -43.79,-80.882 -29.707,0.334 -11.484,35.785 -11.484,35.785 0,0 -53.678,-97.284 -131.735,-79.14 -29.89,6.945 -29.181,26.36 -21.344,43.675 -39.182,-15.753 -80.807,-23.73 -105.15,-5.146 -16.861,12.875 1.234,33.141 21.783,49.25 -25.601,7.617 -46.233,19.732 -47.874,39.006 -1.576,18.544 17.956,26.641 40.385,31.014 -40.474,24.482 -31.089,72.129 -9.154,69.188 -20.553,10.266 0.584,50.926 35.799,45.68 0,0 1.244,-0.219 3.501,-0.62 -0.247,-1.48 -0.48,-2.969 -0.682,-4.476 -9.853,-73.518 39.892,-138.157 110.691,-147.643 70.799,-9.486 135.807,39.79 145.648,113.307 0.205,1.528 0.374,3.045 0.526,4.558 0.545,-0.05 0.841,-0.078 0.841,-0.078 43.204,-4.012 47.048,-46.501 24.505,-50.994 z"
     id="path606"
     style="fill:#552200" /><path
     d="m 236.795,629.792 c -20.194,10e-4 -35.269,-13.644 -39.8,-28.009 -2.352,-7.456 -1.529,-14.258 2.051,-19.215 -5.28,-2.132 -9.593,-6.993 -12.037,-13.931 -5.759,-16.351 -0.17,-39.787 20.709,-55.96 -14.408,-3.518 -36.987,-11.827 -35.186,-33.026 1.463,-17.19 16.294,-30.656 44.112,-40.08 -16.453,-13.809 -24.753,-25.854 -24.69,-35.852 0.037,-5.786 2.739,-10.768 8.032,-14.809 25.699,-19.619 67.842,-10.623 101.186,1.814 -2.873,-9.261 -2.681,-17.274 0.588,-23.893 4.081,-8.264 12.847,-14.009 26.053,-17.078 33.118,-7.696 67.125,3.934 98.343,33.639 10.467,9.959 18.933,20.293 25.135,28.75 -0.03,-3.81 0.669,-7.579 2.614,-10.806 3.268,-5.423 9.283,-8.222 17.879,-8.319 0.126,-10e-4 0.254,-0.002 0.379,-0.002 12.996,0 26.029,7.441 35.818,20.469 13.097,17.431 17.411,40.459 11.768,62.134 17.13,9.901 25.804,33.529 23.161,50.59 -0.918,5.925 -3.169,10.543 -6.463,13.511 5.789,4.099 9.098,11.249 8.66,19.669 -0.786,15.075 -14.016,32.45 -41.207,34.975 l -0.843,0.078 c -1.911,0.169 -3.611,-1.223 -3.804,-3.135 -0.171,-1.696 -0.333,-3.108 -0.513,-4.444 -4.615,-34.475 -21.887,-64.83 -48.634,-85.474 -26.556,-20.496 -59.614,-29.313 -93.08,-24.829 -33.469,4.485 -63.039,21.691 -83.263,48.451 -20.371,26.954 -29.044,60.784 -24.424,95.258 0.177,1.315 0.388,2.702 0.666,4.365 0.316,1.893 -0.951,3.687 -2.841,4.022 l -3.505,0.62 c -2.345,0.351 -4.637,0.517 -6.864,0.517 z M 207.253,576.65 c 1.517,0 2.887,0.988 3.343,2.472 0.502,1.635 -0.251,3.395 -1.782,4.16 -8.043,4.018 -6.277,12.804 -5.144,16.396 3.563,11.295 17.97,25.802 38.864,22.691 l 0.028,-0.005 c -0.057,-0.396 -0.111,-0.782 -0.162,-1.164 -4.867,-36.315 4.288,-71.974 25.777,-100.409 21.36,-28.262 52.583,-46.434 87.918,-51.169 35.335,-4.734 70.239,4.58 98.287,26.226 28.217,21.778 46.434,53.771 51.296,90.086 0.051,0.381 0.101,0.768 0.15,1.165 21.308,-2.911 31.677,-16.373 32.287,-28.074 0.425,-8.159 -3.783,-14.325 -10.721,-15.708 -1.678,-0.334 -2.869,-1.833 -2.814,-3.544 0.054,-1.71 1.337,-3.13 3.034,-3.358 5.892,-0.789 7.778,-7.404 8.378,-11.278 2.339,-15.102 -6.068,-37.121 -21.872,-44.571 -1.569,-0.74 -2.36,-2.517 -1.858,-4.178 6.143,-20.348 2.45,-42.292 -9.878,-58.698 -8.53,-11.353 -19.659,-17.813 -30.522,-17.672 -6.002,0.067 -10.026,1.725 -11.958,4.926 -4.279,7.087 1.111,20.999 3.55,25.761 0.871,1.702 0.216,3.788 -1.471,4.686 -1.686,0.897 -3.783,0.277 -4.707,-1.396 -0.132,-0.24 -13.51,-24.225 -36.07,-45.649 -29.813,-28.314 -60.702,-39.004 -91.809,-31.773 -11.066,2.571 -18.253,7.066 -21.361,13.359 -3.155,6.388 -2.343,14.956 2.413,25.464 0.59,1.303 0.328,2.833 -0.661,3.865 -0.988,1.032 -2.505,1.359 -3.833,0.826 -32.593,-13.105 -76.698,-24.715 -101.721,-5.612 -3.53,2.695 -5.257,5.734 -5.28,9.29 -0.038,5.983 4.632,16.812 27.098,34.423 1.03,0.808 1.523,2.122 1.279,3.408 -0.245,1.286 -1.186,2.328 -2.44,2.701 -28.814,8.573 -44.084,20.668 -45.385,35.948 -1.138,13.393 10.799,22.063 37.568,27.282 1.42,0.277 2.523,1.399 2.776,2.823 0.253,1.424 -0.397,2.858 -1.635,3.606 -26.035,15.748 -28.978,39.938 -24.604,52.355 2.556,7.256 7.481,11.127 13.174,10.37 0.158,-0.021 0.314,-0.031 0.468,-0.031 z"
     id="path608" /><g
     id="g616">
								<g
   id="g614">
									<circle
   fill="#fb5b4d"
   cx="298.23099"
   cy="639.14697"
   r="19.622"
   id="circle612" />
								</g>
							</g><g
     id="g622">
								<g
   id="g620">
									<circle
   fill="#fb5b4d"
   cx="462.965"
   cy="620.61401"
   r="19.622"
   id="circle618" />
								</g>
							</g><path
     d="m 415.443,585.539 c -0.09,0 -0.182,-0.003 -0.277,-0.009 -1.606,-0.104 -2.948,-1.314 -3.232,-2.899 -0.142,-0.792 -0.005,-1.569 0.339,-2.231 0.015,-0.047 0.031,-0.098 0.048,-0.152 4.824,-15.241 13.539,-19.78 20.001,-20.904 9.888,-1.719 19.166,2.963 26.123,13.184 0.01,0.014 0.02,0.028 0.029,0.042 0.455,0.483 0.777,1.101 0.897,1.804 0.278,1.623 -0.615,3.247 -2.142,3.863 -0.987,0.397 -2.891,0.697 -4.57,-1.771 -5.397,-7.929 -12.013,-11.465 -19.137,-10.226 -6.618,1.151 -11.506,6.575 -14.527,16.12 -0.253,0.8 -1.006,3.178 -3.552,3.179 z"
     id="path624" /><path
     d="m 366.688,603.549 c -0.08,0 -0.15,-0.003 -0.208,-0.007 -1.607,-0.104 -2.941,-1.302 -3.225,-2.887 -0.13,-0.726 -0.026,-1.439 0.258,-2.063 2.564,-8.042 7.329,-10.468 10.878,-11.085 5.406,-0.938 10.418,1.521 14.131,6.93 0.396,0.463 0.675,1.035 0.786,1.679 0.278,1.623 -0.613,3.233 -2.141,3.85 -0.438,0.178 -2.712,0.936 -4.377,-1.509 -2.142,-3.147 -4.568,-4.512 -7.201,-4.053 -2.394,0.417 -4.218,2.555 -5.421,6.355 -0.792,2.502 -2.664,2.79 -3.48,2.79 z"
     id="path626" /><path
     d="m 290.059,603.299 c -0.097,0 -0.195,-0.003 -0.295,-0.01 -1.615,-0.113 -2.954,-1.341 -3.221,-2.938 -0.129,-0.773 0.005,-1.529 0.338,-2.176 0.014,-0.044 0.028,-0.091 0.044,-0.142 4.804,-15.262 13.533,-19.807 20.011,-20.932 9.897,-1.722 19.177,2.963 26.127,13.194 0.008,0.013 0.017,0.025 0.025,0.037 0.443,0.474 0.76,1.077 0.884,1.763 0.295,1.627 -0.591,3.266 -2.122,3.891 -0.989,0.405 -2.898,0.714 -4.578,-1.758 -3.759,-5.533 -10.132,-11.795 -19.137,-10.231 -4.563,0.792 -10.787,4.235 -14.533,16.137 -0.661,2.102 -1.852,3.165 -3.543,3.165 z"
     id="path628" /><g
     id="g640">
								<g
   id="g638">
									<g
   id="g636">
										<g
   id="g634">
											<path
   fill="#fb5b4d"
   d="m 342.772,625.356 c 8.609,-11.133 13.24,4.897 34.105,3.08 21.3,-1.861 23.096,-19.166 34.264,-6.775 9.113,10.1 6.137,71.908 -28.822,74.206 -35.228,2.274 -47.743,-59.905 -39.547,-70.511 z"
   id="path630" />
											<path
   d="m 380.493,699.427 c -13.388,0 -25.263,-8.543 -33.623,-24.267 -9.669,-18.187 -13.071,-43.917 -6.868,-51.944 0,0 0,0 10e-4,-10e-4 6.313,-8.165 12.336,-5.163 17.648,-2.517 4.49,2.237 10.082,5.021 18.922,4.251 8.539,-0.746 13.611,-4.247 17.686,-7.06 5.258,-3.629 11.217,-7.741 19.481,1.428 6.668,7.39 7.698,33.951 -0.606,54.414 -6.442,15.874 -17.019,24.736 -30.585,25.628 -0.688,0.046 -1.375,0.068 -2.056,0.068 z m -34.952,-71.929 c -3.261,4.223 -2.332,25.864 7.51,44.376 5.247,9.869 14.546,21.428 29.043,20.501 13.518,-0.889 20.814,-12.06 24.554,-21.275 7.817,-19.262 5.855,-42.704 1.895,-47.093 -4.149,-4.604 -4.97,-4.039 -10.307,-0.355 -4.503,3.108 -10.67,7.365 -21.054,8.272 -10.807,0.938 -17.653,-2.469 -22.652,-4.959 -5.246,-2.614 -6.191,-3.087 -8.989,0.533 z"
   id="path632" />
										</g>
									</g>
								</g>
							</g><g
     id="g664">
						<g
   id="g662">
							<g
   id="g652">
								<g
   id="g650">
									<path
   fill="#fdc093"
   d="m 497.173,587.635 c 0,0 -0.279,-15.164 17.396,-20.18 18.636,-5.271 30.219,18.434 22.427,34.954 -7.791,16.487 -28.896,20.161 -37.35,9.578 z"
   id="path646" />
									<path
   d="m 513.308,621.453 c -6.688,0 -12.669,-2.616 -16.396,-7.281 -1.206,-1.51 -0.96,-3.713 0.55,-4.919 1.511,-1.206 3.713,-0.958 4.919,0.55 2.812,3.521 7.613,5.168 13.183,4.517 6.106,-0.713 14.112,-4.609 18.268,-13.405 3.779,-8.013 2.417,-18.676 -3.239,-25.352 -2.298,-2.712 -7.312,-6.935 -15.071,-4.739 -14.731,4.181 -14.852,16.26 -14.85,16.772 0.008,1.923 -1.537,3.505 -3.46,3.527 -0.013,0 -0.027,0 -0.04,0 -1.905,0 -3.463,-1.514 -3.499,-3.423 -0.113,-6.177 3.908,-19.061 19.94,-23.611 8.427,-2.382 16.56,0.15 22.32,6.949 7.462,8.808 9.2,22.322 4.228,32.865 -4.502,9.527 -13.616,16.182 -23.786,17.37 -1.034,0.12 -2.059,0.18 -3.067,0.18 z"
   id="path648" />
								</g>
							</g>
							<g
   id="g660">
								<g
   id="g658">
									<path
   fill="#fdc093"
   d="m 250.273,620.768 c 0,0 -3.728,-14.708 -22.094,-14.886 -19.374,-0.176 -24.304,25.737 -12.454,39.621 11.863,13.856 33.187,11.845 38.561,-0.588 z"
   id="path654" />
									<path
   d="m 236.305,658.595 c -8.733,0 -17.349,-3.937 -23.238,-10.816 -7.568,-8.867 -9.442,-22.359 -4.562,-32.816 3.736,-8.006 10.829,-12.583 19.482,-12.583 0.075,0 0.149,0 0.224,10e-4 16.663,0.161 23.937,11.535 25.455,17.526 0.475,1.874 -0.659,3.778 -2.533,4.252 -1.868,0.475 -3.764,-0.651 -4.247,-2.512 -0.145,-0.534 -3.46,-12.119 -18.74,-12.266 -0.054,0 -0.108,-10e-4 -0.162,-10e-4 -7.955,0 -11.642,5.343 -13.135,8.543 -3.7,7.926 -2.211,18.569 3.54,25.307 6.326,7.388 15.074,9.04 21.155,8.122 5.54,-0.837 9.743,-3.69 11.531,-7.827 0.767,-1.774 2.825,-2.591 4.602,-1.824 1.774,0.767 2.591,2.828 1.824,4.602 -2.727,6.308 -9.048,10.783 -16.911,11.971 -1.424,0.216 -2.857,0.321 -4.285,0.321 z"
   id="path656" />
								</g>
							</g>
						</g>
					</g><g
     id="g670"
     style="fill:#552200">
						<path
   fill="#ffa014"
   d="m 450.454,478.074 c 37.774,27.382 29.557,43.09 13.779,42.461 -25.118,-1.008 -45.473,-32.632 -45.473,-32.632 0,0 7.553,34.07 -24.773,33.64 -27.472,-0.366 -35.711,-34.758 -35.711,-34.758 0,0 -4.561,51.458 -41.064,47.671 -24.674,-2.56 -24.591,-34.222 -24.591,-34.222 0,0 -18.04,59.995 -43.394,49.424 -39.541,-16.496 45.536,-93.932 98.244,-99.096 52.708,-5.173 102.983,27.512 102.983,27.512 z"
   id="path668"
   style="fill:#552200" />
					</g><g
     id="g678">
					<g
   id="g676">
						<path
   d="m 255.24,554.414 c -2.46,0 -4.918,-0.509 -7.359,-1.526 -1.784,-0.744 -2.627,-2.793 -1.884,-4.577 0.744,-1.784 2.793,-2.629 4.577,-1.884 3.358,1.399 6.648,1.296 10.059,-0.315 13.885,-6.564 25.379,-36.071 28.637,-46.887 0.501,-1.663 2.143,-2.707 3.866,-2.453 1.719,0.255 2.99,1.732 2.986,3.47 0,0.077 0.032,8.186 2.891,16.07 3.523,9.717 9.646,14.644 18.2,14.644 33.875,0 37.439,-42.614 37.574,-44.428 0.125,-1.669 1.415,-3.019 3.077,-3.217 1.664,-0.2 3.233,0.808 3.746,2.402 0.113,0.35 11.674,35.176 36.145,32.262 5.82,-0.693 10.109,-2.959 13.111,-6.928 6.554,-8.665 4.461,-22.452 4.439,-22.59 -0.252,-1.594 0.617,-3.156 2.105,-3.779 1.487,-0.623 3.209,-0.15 4.167,1.148 0.298,0.403 30.071,40.198 54.108,25.831 1.659,-0.992 3.808,-0.452 4.8,1.208 0.992,1.659 0.451,3.808 -1.208,4.8 -21.962,13.13 -45.606,-7.653 -56.792,-19.865 -0.448,5.429 -1.94,12.034 -6.012,17.436 -4.154,5.511 -10.173,8.771 -17.892,9.689 -20.219,2.41 -32.701,-14.305 -38.889,-26.099 -1.013,3.991 -2.501,8.621 -4.674,13.273 -7.898,16.915 -20.972,25.855 -37.805,25.855 -6.896,0 -12.73,-2.343 -17.339,-6.963 -4.59,-4.601 -7.221,-10.781 -8.729,-16.398 -5.363,13.095 -14.938,31.894 -27.515,37.843 -2.785,1.318 -5.589,1.978 -8.39,1.978 z"
   id="path674" />
					</g>
				</g></g>
</svg>
