<?xml version="1.0" encoding="UTF-8" standalone="no"?>
<!-- Generator: Adobe Illustrator 16.0.3, SVG Export Plug-In . SVG Version: 6.00 Build 0)  -->

<svg
   version="1.1"
   id="Layer_1"
   x="0px"
   y="0px"
   width="484.02457"
   height="755.961"
   viewBox="0 0 484.02457 755.961"
   enable-background="new 0 0 3200 1400"
   xml:space="preserve"
   sodipodi:docname="boy_blackhair_tanskin820_game.svg"
   inkscape:version="1.2.1 (9c6d41e410, 2022-07-14)"
   xmlns:inkscape="http://www.inkscape.org/namespaces/inkscape"
   xmlns:sodipodi="http://sodipodi.sourceforge.net/DTD/sodipodi-0.dtd"
   xmlns="http://www.w3.org/2000/svg"
   xmlns:svg="http://www.w3.org/2000/svg"><sodipodi:namedview
   id="namedview1061"
   pagecolor="#ffffff"
   bordercolor="#666666"
   borderopacity="1.0"
   inkscape:showpageshadow="2"
   inkscape:pageopacity="0.0"
   inkscape:pagecheckerboard="0"
   inkscape:deskcolor="#d1d1d1"
   showgrid="false"
   inkscape:zoom="1.1403889"
   inkscape:cx="242.46115"
   inkscape:cy="363.91095"
   inkscape:window-width="1920"
   inkscape:window-height="1009"
   inkscape:window-x="-8"
   inkscape:window-y="-8"
   inkscape:window-maximized="1"
   inkscape:current-layer="Layer_1" /><defs
   id="defs1121" />

<g
   id="g820"
   transform="translate(-2559.6538,-360.52296)">
			<g
   id="g688">
				<path
   d="m 2926.024,776.083 c -12.734,0 -26.39,-2.034 -40.621,-7.145 -1.819,-0.653 -2.765,-2.657 -2.111,-4.477 0.654,-1.82 2.658,-2.767 4.477,-2.111 30.645,11.004 62.218,8.73 93.842,-6.76 23.779,-11.647 38.65,-26.813 38.798,-26.964 1.347,-1.388 3.562,-1.42 4.948,-0.075 1.388,1.346 1.423,3.56 0.078,4.947 -0.63,0.65 -15.718,16.072 -40.525,28.271 -14.934,7.343 -35.324,14.314 -58.886,14.314 z"
   id="path684" />
				<path
   d="m 3008.674,759.319 c -8.839,0.001 -17.951,-2.385 -21.995,-11.019 -8.276,-17.669 11.565,-35.587 12.414,-36.341 1.445,-1.283 3.658,-1.154 4.941,0.291 1.283,1.444 1.154,3.654 -0.288,4.938 v 0 c -0.169,0.15 -16.788,15.205 -10.728,28.143 6.1,13.029 34.49,3.83 34.776,3.733 1.831,-0.62 3.817,0.36 4.438,2.189 0.621,1.829 -0.356,3.816 -2.186,4.438 -0.762,0.262 -10.874,3.628 -21.372,3.628 z"
   id="path686" />
			</g>
			<g
   id="g694">
				<path
   d="m 2718.423,702.031 c -0.591,0 -1.189,-0.15 -1.738,-0.465 -38.03,-21.806 -57.156,-51.551 -66.505,-72.665 -10.154,-22.934 -11.274,-40.547 -11.317,-41.286 -0.111,-1.93 1.362,-3.584 3.292,-3.696 1.94,-0.122 3.582,1.361 3.696,3.288 v 0 c 0.01,0.171 1.135,17.311 10.853,39.137 8.936,20.068 27.199,48.356 63.464,69.149 1.677,0.961 2.257,3.1 1.295,4.777 -0.648,1.129 -1.827,1.761 -3.04,1.761 z"
   id="path690" />
				<path
   d="m 2645.875,624.806 c -19.067,0 -28.619,-27.73 -29.046,-29 -0.616,-1.832 0.37,-3.817 2.202,-4.433 1.837,-0.614 3.817,0.371 4.433,2.203 0.093,0.271 9.456,27.45 25.45,23.882 8.329,-1.858 13.312,-20.481 14.4,-26.858 0.325,-1.905 2.14,-3.183 4.037,-2.862 1.905,0.324 3.187,2.13 2.864,4.035 -0.508,2.99 -5.372,29.303 -19.778,32.518 -1.575,0.351 -3.098,0.515 -4.562,0.515 z"
   id="path692" />
			</g>
			<g
   id="g706">
				<g
   id="g698">
					<path
   d="m 2655.358,924.936 c -25.311,0 -50.84,-24.131 -51.948,-25.191 -1.396,-1.336 -1.446,-3.55 -0.111,-4.946 1.335,-1.397 3.552,-1.447 4.948,-0.113 0.259,0.246 26.143,24.666 49.154,23.186 8.095,-0.525 14.724,-4.118 20.267,-10.985 1.216,-1.504 3.419,-1.738 4.922,-0.525 1.504,1.214 1.739,3.418 0.525,4.922 -6.75,8.362 -15.256,12.93 -25.279,13.575 -0.824,0.05 -1.651,0.077 -2.478,0.077 z"
   id="path696" />
				</g>
				<g
   id="g704">
					<path
   fill="#ffa600"
   d="m 2608.744,897.37 c -13.476,23.321 -26.4,58.491 -37.132,49.805 -20.59,-16.665 -1.716,-70.811 37.132,-49.805 z"
   id="path700" />
					<path
   d="m 2575.104,952.025 c -2.012,0 -3.952,-0.721 -5.693,-2.13 -13.115,-10.614 -11.98,-32.661 -2.691,-46.592 7.732,-11.597 23.269,-20.053 43.69,-9.013 0.831,0.45 1.445,1.217 1.703,2.127 0.257,0.909 0.136,1.885 -0.338,2.703 -3.273,5.666 -6.565,12.141 -9.748,18.402 -8.859,17.427 -16.51,32.477 -25.096,34.307 -0.614,0.131 -1.224,0.196 -1.827,0.196 z m 16.782,-55.938 c -10.477,0 -16.692,7.124 -19.343,11.1 -7.423,11.133 -8.727,29.177 1.271,37.268 0.797,0.645 1.273,0.611 1.657,0.529 5.319,-1.134 13.634,-17.489 20.314,-30.632 2.637,-5.188 5.348,-10.52 8.09,-15.479 -4.491,-1.986 -8.479,-2.786 -11.989,-2.786 z"
   id="path702" />
				</g>
			</g>
			<g
   id="g718">
				<g
   id="g710">
					<path
   d="m 2822.639,1044.478 c -0.277,0 -0.558,-0.033 -0.838,-0.102 -1.877,-0.461 -3.024,-2.356 -2.565,-4.232 0.133,-0.543 13.018,-54.92 -11.148,-108.485 -0.795,-1.762 -0.011,-3.835 1.751,-4.63 1.76,-0.797 3.835,-0.012 4.63,1.751 25.191,55.839 12.134,110.726 11.565,113.034 -0.393,1.595 -1.823,2.664 -3.395,2.664 z"
   id="path708" />
				</g>
				<g
   id="g716">
					<path
   fill="#ffa600"
   d="m 2821.512,1039.341 c 26.171,-6.37 60.754,23.725 42.801,40.404 -17.955,16.68 -50.846,-20.545 -42.801,-40.404 z"
   id="path712" />
					<path
   d="m 2853.812,1087.468 c -5.037,0 -10.497,-1.906 -16.019,-5.712 -13.769,-9.491 -25.174,-29.785 -19.525,-43.729 0.423,-1.043 1.322,-1.82 2.416,-2.086 18.79,-4.573 41.454,8.05 49.172,22.391 4.798,8.915 3.646,17.654 -3.161,23.979 -3.704,3.439 -8.103,5.157 -12.883,5.157 z m -29.608,-45.108 c -2.608,10.478 6.837,26.239 17.563,33.632 4.599,3.171 13.331,7.539 20.164,1.188 4.477,-4.159 5.069,-9.385 1.761,-15.532 -6.124,-11.376 -24.319,-21.827 -39.488,-19.288 z"
   id="path714" />
				</g>
			</g>
			<g
   id="g728">
				<g
   id="g724">
					<path
   fill="#4dbbc5"
   d="m 2815.155,879.192 c -15.415,-5.47 -87.705,-27.099 -121.268,-38.038 -7.177,10.457 -19.014,31.431 -29.856,48.981 13.68,10.365 41.008,33.205 55.65,47.063 9.275,-6.979 18.912,-18.875 25.504,-27.054 6.326,10.969 10.947,21.39 17.404,32.485 19.792,-0.279 46.699,-6.624 66.859,-13.676 -6.133,-26.373 -10.637,-39.504 -14.293,-49.761 z"
   id="path720" />
					<path
   d="m 2762.59,946.13 c -1.245,0 -2.397,-0.662 -3.025,-1.74 -3.346,-5.751 -6.231,-11.372 -9.022,-16.809 -1.885,-3.672 -3.816,-7.434 -5.885,-11.221 -6.315,7.739 -14.633,17.436 -22.871,23.635 -1.365,1.026 -3.27,0.917 -4.511,-0.255 -14.534,-13.756 -41.693,-36.461 -55.357,-46.814 -1.438,-1.09 -1.813,-3.095 -0.864,-4.63 4.271,-6.914 8.683,-14.335 12.948,-21.513 6.478,-10.898 12.597,-21.193 17,-27.609 0.879,-1.279 2.495,-1.827 3.971,-1.348 15.959,5.202 40.346,12.719 63.931,19.988 25.343,7.812 49.28,15.19 57.423,18.079 0.991,0.353 1.772,1.132 2.126,2.124 3.997,11.215 8.401,24.325 14.406,50.144 0.404,1.74 -0.566,3.507 -2.254,4.097 -17.744,6.207 -46.191,13.564 -67.965,13.872 -0.018,0 -0.035,0 -0.051,0 z m -17.404,-39.484 c 0.09,0 0.181,0.004 0.271,0.011 1.151,0.089 2.184,0.74 2.761,1.74 3.135,5.437 5.889,10.801 8.551,15.987 2.456,4.784 4.987,9.714 7.818,14.696 19.466,-0.665 43.999,-6.818 60.73,-12.412 -5.28,-22.282 -9.279,-34.488 -12.898,-44.722 -9.236,-3.158 -31.786,-10.108 -55.578,-17.442 -22.406,-6.906 -45.534,-14.035 -61.521,-19.205 -4.142,6.285 -9.58,15.436 -15.301,25.062 -3.733,6.28 -7.576,12.747 -11.353,18.918 13.671,10.576 37.024,30.136 51.204,43.302 8.338,-6.951 16.815,-17.468 22.59,-24.631 0.668,-0.829 1.672,-1.304 2.726,-1.304 z"
   id="path722" />
				</g>
				<path
   fill="#234a9f"
   d="m 2760.994,865.917 c -1.489,3.438 -5.484,5.018 -8.922,3.527 v 0 c -3.44,-1.487 -5.021,-5.481 -3.533,-8.921 v 0 c 1.489,-3.439 5.485,-5.021 8.923,-3.529 v 0 c 3.44,1.487 5.021,5.481 3.532,8.923 z"
   id="path726" />
			</g>
			<g
   id="g740">
				<path
   fill="#fdc093"
   d="m 2830.775,741.919 c 0,0 -16.409,-7.611 -22.555,-10.614 3.963,-8.318 8.982,-23.581 8.982,-23.581 l -18.021,-7.882 c 0,0 -10.41,19.025 -12.407,25.138 -9.347,-2.292 -19.584,-5.768 -19.584,-5.768 0,0 -28.81,30.014 11.672,47.298 22.224,9.488 49.69,3.927 51.913,-24.591 z"
   id="path730"
   style="fill:#d38d5f" /><path
   d="m 2798.895,774.254 c -6.963,0 -14.33,-1.505 -21.405,-4.525 -13.453,-5.744 -21.276,-13.57 -23.253,-23.261 -3.128,-15.341 9.875,-29.102 10.43,-29.68 0.941,-0.979 2.362,-1.328 3.65,-0.891 0.09,0.031 8.143,2.756 16.328,4.925 3.381,-7.859 11.093,-21.976 11.468,-22.661 0.871,-1.59 2.813,-2.252 4.473,-1.526 l 18.021,7.883 c 1.654,0.723 2.486,2.585 1.923,4.3 -0.184,0.558 -4.051,12.281 -7.716,20.814 7.217,3.443 19.295,9.047 19.436,9.112 1.326,0.615 2.131,1.989 2.017,3.447 -1.194,15.315 -8.965,23.087 -15.273,26.909 -5.666,3.431 -12.651,5.154 -20.099,5.154 z m -30.573,-50.982 c -2.888,3.616 -9.101,12.69 -7.221,21.825 1.5,7.291 7.938,13.412 19.136,18.193 12.604,5.382 26.064,5.313 35.126,-0.177 6.452,-3.909 10.454,-10.476 11.663,-19.078 -4.739,-2.204 -15.612,-7.275 -20.342,-9.587 -1.725,-0.843 -2.449,-2.917 -1.624,-4.649 2.775,-5.824 6.145,-15.33 7.8,-20.155 l -12.132,-5.307 c -3.453,6.436 -9.298,17.662 -10.626,21.729 -0.569,1.74 -2.384,2.748 -4.161,2.313 -6.846,-1.68 -14.055,-3.946 -17.619,-5.107 z"
   id="path732" />
			</g>
			<g
   id="g750">
				<g
   id="g748">
					<g
   id="g746">
						<path
   fill="#33a97f"
   d="m 2767.191,719.212 c -18.578,31.355 36.895,65.011 63.584,22.707 8.801,5.021 39.023,18.304 55.811,23.726 -1.955,7.224 -14.865,41.012 -20.112,40.528 -3.581,-1.063 -17.104,-3.728 -25.979,-9.76 -0.918,24.866 -8.54,86.406 -7.556,91.035 0,0 -101.896,5.149 -159.444,-55.52 -0.019,-0.019 43.441,-63.474 51.688,-79.105 -0.975,-0.922 -16.408,-7.226 -28.376,-16.303 5.259,-13.237 15.612,-33.409 21.62,-37.99 12.833,7.611 33.589,16.074 48.764,20.682 z"
   id="path742" />
						<path
   d="m 2826.751,891.065 c -9.619,0 -29.195,-0.676 -52.616,-5.189 -30.309,-5.842 -72.813,-19.525 -103.18,-51.538 -1.986,-1.985 -0.702,-3.873 0.925,-6.263 25.015,-36.755 41.99,-62.602 48.495,-73.819 -0.111,-0.055 -0.224,-0.109 -0.336,-0.164 -5.712,-2.779 -16.345,-7.953 -25.349,-14.783 -1.253,-0.95 -1.718,-2.619 -1.138,-4.08 5.087,-12.805 15.835,-34.207 22.751,-39.481 1.134,-0.865 2.681,-0.955 3.907,-0.228 13.092,7.763 34.055,16.11 47.997,20.344 1.028,0.312 1.856,1.079 2.246,2.081 0.389,1.002 0.296,2.127 -0.252,3.052 -7.805,13.174 -0.232,25.979 10.106,32.301 13.606,8.32 34.275,7.726 47.507,-13.245 0.999,-1.584 3.066,-2.101 4.694,-1.173 8.545,4.875 38.427,18.033 55.152,23.435 1.776,0.574 2.79,2.442 2.303,4.245 -0.988,3.65 -4.666,13.903 -9.002,23.661 -8.194,18.441 -11.811,19.712 -14.811,19.438 -0.229,-0.021 -0.454,-0.064 -0.674,-0.13 -0.57,-0.169 -1.407,-0.38 -2.444,-0.643 -4.611,-1.17 -12.375,-3.138 -19.329,-6.586 -0.784,13.036 -2.65,31.798 -4.324,48.623 -1.559,15.664 -3.325,33.419 -3.004,35.882 0.214,1.003 -0.031,2.006 -0.656,2.818 -0.624,0.813 -1.582,1.269 -2.605,1.32 -0.3,0.016 -2.55,0.122 -6.363,0.122 z M 2677.99,831.538 c 28.963,29.203 68.722,41.904 97.297,47.431 25.149,4.864 46.207,5.172 54.119,5.067 0.21,-5.289 1.191,-15.54 3.009,-33.807 1.931,-19.401 4.118,-41.392 4.581,-53.945 0.048,-1.272 0.781,-2.419 1.918,-2.994 1.134,-0.573 2.494,-0.486 3.548,0.229 6.873,4.672 17.287,7.313 22.292,8.582 0.553,0.14 1.055,0.268 1.496,0.383 3.804,-3.572 12.52,-24.012 15.999,-34.601 -15.79,-5.456 -39.782,-15.939 -50.332,-21.377 -15.805,22.287 -39.438,22.439 -55.261,12.764 -12.184,-7.451 -21.245,-22.147 -14.455,-37.962 -12.978,-4.234 -30.492,-11.244 -43.27,-18.443 -4.91,5.498 -12.729,20.162 -17.854,32.447 7.979,5.651 16.988,10.035 22.024,12.486 3.1,1.508 3.855,1.887 4.485,2.482 1.141,1.079 1.423,2.787 0.69,4.176 -6.475,12.276 -34.133,53.345 -50.286,77.082 z"
   id="path744" />
					</g>
				</g>
			</g>
			<g
   id="g810">
					<g
   id="g808">
						<path
   fill="#fdc093"
   d="m 2713.245,565.494 c -17.925,72.433 26.661,134.636 96.41,151.897 69.744,17.261 138.204,-16.965 156.13,-89.405 17.926,-72.429 -24.715,-142.523 -94.464,-159.785 -69.747,-17.264 -140.154,24.864 -158.076,97.293 z"
   id="path752"
   style="fill:#d38d5f" /><path
   d="m 2845.167,725.294 c -11.967,0 -24.173,-1.491 -36.353,-4.506 -35.288,-8.733 -64.824,-28.881 -83.165,-56.731 -18.936,-28.754 -24.547,-64.06 -15.802,-99.404 v 0 c 8.852,-35.772 30.578,-65.756 61.178,-84.428 30.416,-18.559 66.335,-24.035 101.137,-15.421 34.806,8.613 64.024,30.209 82.275,60.81 18.361,30.787 23.599,67.442 14.745,103.213 -8.747,35.349 -30.178,63.96 -60.343,80.565 -19.13,10.532 -40.968,15.902 -63.672,15.902 z m -5.388,-257.467 c -22.816,0 -45.205,6.229 -65.107,18.374 -29.015,17.705 -49.623,46.164 -58.029,80.134 v 0 c -16.813,67.94 22.658,130.04 93.854,147.659 33.572,8.306 67.3,4.497 94.968,-10.733 28.436,-15.653 48.651,-42.684 56.924,-76.115 8.407,-33.969 3.448,-68.754 -13.962,-97.946 -17.286,-28.983 -44.968,-49.439 -77.945,-57.6 -10.196,-2.525 -20.493,-3.773 -30.703,-3.773 z m -126.534,97.667 h 0.01 z"
   id="path754" /><g
   id="g760">
									<circle
   fill="#fb5b4d"
   cx="2758.491"
   cy="603.26398"
   r="19.622"
   id="circle758" />
								</g><g
   id="g766">
									<circle
   fill="#fb5b4d"
   cx="2915.7009"
   cy="647.04199"
   r="19.622"
   id="circle764" />
								</g><path
   d="m 2928.724,605.552 c -1.296,0 -2.96,-0.582 -3.571,-3.336 -2.077,-9.363 -6.916,-15.099 -13.991,-16.585 -6.576,-1.383 -13.122,1.846 -19.462,9.594 -0.551,0.672 -2.229,2.715 -4.73,1.528 -1.454,-0.691 -2.252,-2.311 -1.931,-3.888 0.161,-0.79 0.576,-1.462 1.143,-1.951 0.031,-0.038 0.065,-0.08 0.102,-0.124 10.124,-12.371 19.901,-13.359 26.318,-12.011 9.822,2.064 16.707,9.848 19.386,21.919 0,0.017 0.01,0.034 0.011,0.05 0.243,0.617 0.313,1.311 0.165,2.008 -0.343,1.61 -1.773,2.788 -3.42,2.795 -0.01,10e-4 -0.015,10e-4 -0.02,10e-4 z"
   id="path770" /><path
   d="m 2855.603,599.797 c -0.492,0 -2.858,-0.153 -3.495,-3.023 -0.825,-3.717 -2.571,-5.88 -5.189,-6.43 -2.37,-0.5 -4.863,0.81 -7.389,3.897 -1.825,2.229 -3.873,1.497 -4.457,1.219 -1.454,-0.691 -2.25,-2.298 -1.927,-3.876 0.147,-0.722 0.508,-1.346 1.002,-1.82 5.359,-6.522 10.687,-7.013 14.21,-6.271 5.365,1.127 9.113,5.27 10.562,11.668 0.197,0.579 0.245,1.217 0.107,1.858 -0.345,1.609 -1.77,2.771 -3.415,2.778 0,0 -0.01,0 -0.01,0 z"
   id="path772" /><path
   d="m 2805.667,575.62 c -1.073,0 -2.93,-0.441 -3.567,-3.329 -1.443,-6.531 -5.042,-14.711 -13.988,-16.589 -4.533,-0.952 -11.59,-0.06 -19.477,9.61 -1.472,1.804 -3.063,2.312 -4.732,1.507 -1.459,-0.703 -2.247,-2.34 -1.903,-3.922 0.166,-0.765 0.57,-1.417 1.118,-1.894 0.028,-0.036 0.06,-0.074 0.093,-0.115 10.113,-12.4 19.909,-13.389 26.341,-12.037 9.83,2.064 16.715,9.853 19.384,21.929 0,0.015 0.01,0.03 0.01,0.044 0.236,0.605 0.308,1.284 0.168,1.968 -0.329,1.62 -1.759,2.813 -3.412,2.827 -0.013,10e-4 -0.024,10e-4 -0.035,10e-4 z"
   id="path774" /><g
   id="g784">
									<g
   id="g782">
										<g
   id="g780">
											<path
   fill="#fb5b4d"
   d="m 2804.973,606.945 c 12.119,-7.155 10.485,9.451 30.541,15.489 20.475,6.157 28.551,-9.252 34.338,6.393 4.725,12.756 -20.924,69.069 -54.249,58.26 -33.568,-10.931 -22.17,-73.325 -10.63,-80.142 z"
   id="path776" />
											<path
   d="m 2824.16,691.974 c -3.21,0 -6.428,-0.517 -9.638,-1.558 -13.553,-4.414 -22.14,-17.088 -24.183,-35.689 -2.249,-20.475 4.117,-45.636 12.853,-50.796 0,0 0,0 0,0 8.888,-5.248 13.37,-0.229 17.326,4.197 3.343,3.741 7.504,8.396 16.003,10.955 8.207,2.467 14.216,1.094 19.043,-0.009 6.225,-1.426 13.286,-3.039 17.567,8.54 3.458,9.333 -5.419,34.389 -20.71,50.322 -8.917,9.292 -18.54,14.038 -28.262,14.038 z m -17.407,-82.016 v 0 c -4.593,2.713 -11.744,23.162 -9.455,44.005 1.22,11.11 5.574,25.297 19.389,29.796 12.885,4.179 23.799,-3.496 30.686,-10.671 14.394,-14.999 21.251,-37.5 19.196,-43.045 -2.15,-5.814 -3.123,-5.593 -9.442,-4.146 -5.335,1.22 -12.641,2.891 -22.62,-0.111 -10.389,-3.127 -15.484,-8.83 -19.206,-12.994 -3.905,-4.37 -4.609,-5.16 -8.548,-2.834 z"
   id="path778" />
										</g>
									</g>
								</g><g
   id="g794">
									<g
   id="g792">
										<path
   fill="#fdc093"
   d="m 2718.146,567.287 c 0,0 1.942,-15.134 -15.175,-22.088 -18.057,-7.32 -32.241,15.107 -26.27,32.478 5.982,17.346 26.681,23.336 36.299,13.686 z"
   id="path788"
   style="fill:#d38d5f" />
										<path
   d="m 2701.035,599.455 c -1.887,0 -3.826,-0.22 -5.781,-0.668 -10.031,-2.305 -18.408,-9.957 -21.861,-19.969 -3.81,-11.082 -0.588,-24.392 7.834,-32.371 6.502,-6.16 14.907,-7.797 23.059,-4.491 15.518,6.304 18.122,19.618 17.332,25.777 -0.246,1.918 -2.007,3.269 -3.917,3.026 -1.91,-0.245 -3.263,-1.987 -3.028,-3.896 0.063,-0.561 1.234,-12.63 -13.019,-18.42 -7.527,-3.051 -13.013,0.624 -15.612,3.086 -6.394,6.058 -8.93,16.576 -6.03,25.011 3.193,9.259 10.777,14.04 16.81,15.425 5.505,1.266 10.495,0.144 13.7,-3.072 1.365,-1.37 3.581,-1.373 4.95,-0.008 1.369,1.365 1.373,3.581 0.01,4.95 -3.652,3.662 -8.812,5.62 -14.445,5.62 z"
   id="path790" />
									</g>
								</g><g
   id="g802">
									<path
   fill="#fdc093"
   d="m 2961.383,627.533 c 0,0 5.338,-14.292 23.726,-12.458 19.387,1.95 21.472,28.403 8.096,40.98 -13.384,12.555 -34.485,8.199 -38.49,-4.82 z"
   id="path796"
   style="fill:#d38d5f" /><path
   d="m 2974.413,667.043 c -2.51,0 -5.02,-0.316 -7.468,-0.967 -7.724,-2.05 -13.547,-7.213 -15.577,-13.812 -0.568,-1.848 0.469,-3.806 2.316,-4.375 1.848,-0.569 3.807,0.469 4.375,2.316 1.334,4.338 5.228,7.657 10.682,9.104 5.979,1.588 14.921,0.896 22.068,-5.808 6.493,-6.104 9.153,-16.59 6.323,-24.931 -1.151,-3.391 -4.289,-9.202 -12.375,-10.015 -15.343,-1.527 -19.917,9.742 -20.104,10.222 -0.698,1.791 -2.714,2.694 -4.514,2.011 -1.797,-0.686 -2.709,-2.681 -2.035,-4.483 2.172,-5.817 10.672,-16.379 27.352,-14.716 8.756,0.881 15.427,6.25 18.305,14.73 3.729,10.985 0.373,24.261 -8.159,32.283 -5.827,5.469 -13.502,8.441 -21.189,8.441 z"
   id="path798" />
								</g>
					</g>
				</g><g
   id="g816">
					<path
   fill="#1a1616"
   d="m 2903.945,404.189 c -0.826,-32.415 -21.114,-46.676 -35.794,-15.554 -10.558,-23.336 -24.546,-8.267 -26.39,6.855 -9.551,-37.474 -61.817,-43.326 -66.961,-7.515 -22.725,-22.468 -27.548,-6.482 -21.543,11.387 -27.654,-30.309 -72.701,-4.145 -53.808,36.289 -27.008,-9.729 -55.021,35.309 -23.365,57.103 -28.413,0.656 -31.528,29.751 -2.017,25.612 -21.346,20.99 -15.476,57.48 13.151,35.602 -1.139,19.672 16.699,9.43 23.514,2.511 2.428,27.753 40.349,-2.583 27.867,-30.297 16.245,18.12 35.699,-8.129 34.532,-18.709 7.311,29.361 26.269,11.596 18.005,-2.868 11.317,13.219 30.48,22.498 39.707,2.588 11.885,7.876 35.324,-2.152 25.277,-16.162 11.322,4.234 47.917,0.868 33.524,24.831 -14.395,23.963 39.686,26.271 53.225,14.816 -14.429,25.77 3.37,48.368 18.924,43.969 -27.455,23.478 -11.896,43.103 4.229,33.366 -12.875,23.809 24.791,33.573 26.963,14.586 12.488,14.814 29.171,-4.224 17.668,-21.653 21.371,12.586 35.586,-30.933 10.594,-42.593 23.544,-0.742 17.652,-18.997 8.398,-21.862 18.146,-11.67 11.795,-39.197 -11.09,-37.204 28.394,-20.404 9.646,-67.809 -19.589,-62.944 11.665,-17.599 1.283,-38.771 -23.544,-10.285 -5.672,-21.731 -19.509,-21.744 -24.355,-11.064 -2.611,-31.965 -31.173,-42.725 -47.122,-10.805 z"
   id="path812" />
					<path
   d="m 2980.7,636.106 c -6.396,0 -13.088,-2.921 -17.021,-7.796 -2.119,-2.627 -4.817,-7.518 -3.509,-14.442 -5.62,0.859 -10.874,-1.042 -14.095,-5.503 -4.438,-6.146 -4.697,-17.309 7.081,-30.253 -4.642,-1.177 -9.042,-4.093 -12.509,-8.486 -5.465,-6.926 -8.95,-18.323 -4.778,-31.605 -14.458,4.573 -37.352,3.816 -47.152,-4.519 -3.399,-2.891 -8.188,-9.261 -2.071,-19.443 2.621,-4.365 3.412,-7.702 2.349,-9.918 -2.28,-4.753 -13.487,-6.281 -21.67,-7.396 -1.908,-0.26 -3.717,-0.507 -5.398,-0.777 0.563,3.891 -0.69,7.682 -3.735,10.84 -5.561,5.77 -17.001,8.629 -25.878,5.078 -4.405,7.281 -10.039,9.563 -14.221,10.14 -7.443,1.028 -15.146,-2.484 -21.549,-7.445 -0.354,2.618 -1.302,5.116 -2.841,7.272 -2.682,3.758 -6.659,5.553 -10.647,4.792 -2.82,-0.536 -6.328,-2.442 -9.36,-7.801 -3.206,6.246 -8.72,12.428 -15.175,15.314 -4.804,2.148 -9.593,2.298 -14.052,0.529 1.117,11.2 -3.924,21.485 -9.642,27.798 -6.148,6.789 -13.493,9.817 -19.175,7.909 -2.487,-0.836 -5.415,-2.827 -7.116,-7.451 -5.618,4.107 -13.226,7.571 -18.771,5.108 -2.978,-1.322 -4.872,-3.917 -5.667,-7.746 -12.894,7.563 -19.699,2.382 -22.188,-0.487 -6.554,-7.551 -5.576,-23.938 4.276,-37.622 -8.263,-0.582 -12.249,-4.188 -14.036,-6.669 -2.804,-3.893 -3.093,-9 -0.772,-13.663 2.282,-4.585 7.641,-9.482 16.362,-11.576 -12.098,-12.54 -10.631,-28.706 -4.945,-39.779 5.844,-11.38 17.771,-20.715 30.976,-19.65 -6.77,-20.405 2.074,-35.39 12.555,-42.382 10.447,-6.97 26.712,-8.732 41.228,1.242 -0.617,-6.396 0.499,-12.244 4.84,-14.951 4.892,-3.047 11.725,-0.843 20.366,6.554 3.995,-12.241 14.203,-20.017 27.813,-20.746 14.914,-0.789 32.166,7.226 40.789,23.981 2.772,-5.802 7.166,-10.528 12.665,-11.369 3.835,-0.583 9.107,0.549 14.09,8.07 8.098,-13.411 16.429,-14.111 20.979,-13.154 8.477,1.786 14.921,11.586 17.338,25.487 7.145,-9.196 16.157,-13.509 25.254,-11.749 10.496,2.028 18.521,11.502 21.647,24.935 2.408,-1.672 5.213,-2.479 8.14,-2.226 3.225,0.276 10.581,2.34 15.453,14.759 14.305,-14.276 22.547,-10.907 25.58,-8.596 5.397,4.113 6.181,13.006 2.459,21.837 11.787,0.766 22.273,8.94 27.777,22.18 5.272,12.681 5.033,29.45 -5.758,41.652 7.326,1.751 12.943,6.71 15.442,14.025 3.07,8.984 0.347,18.902 -6.633,25.656 3.747,3.297 6.008,8.456 5.357,13.269 -0.379,2.802 -2.229,8.538 -10.821,11.167 4.542,4.598 7.235,10.852 7.635,18.076 0.59,10.692 -4.139,21.29 -11.5,25.771 -2.918,1.776 -6.093,2.552 -9.348,2.313 2.554,9.075 -0.551,17.688 -6.283,21.973 -3.958,2.96 -10.143,4.319 -16.219,0.18 -1.795,3.15 -4.754,5.443 -8.611,6.563 -1.697,0.495 -3.489,0.73 -5.305,0.73 z m -14.677,-31.594 c 0.878,0 1.748,0.33 2.416,0.967 1.143,1.089 1.415,2.809 0.664,4.198 -3.01,5.564 -3.001,10.488 0.025,14.239 3.322,4.122 9.876,6.204 14.925,4.74 3.237,-0.939 5.072,-3.111 5.455,-6.456 0.159,-1.388 1.128,-2.549 2.466,-2.953 1.338,-0.402 2.787,0.026 3.688,1.095 3.582,4.248 7.585,5.227 10.981,2.687 4.635,-3.464 6.37,-12.156 1.09,-20.157 -0.897,-1.359 -0.738,-3.158 0.384,-4.338 1.123,-1.182 2.911,-1.431 4.313,-0.605 3.75,2.209 7.248,2.356 10.395,0.441 5.17,-3.147 8.597,-11.309 8.15,-19.406 -0.259,-4.681 -2.059,-13.172 -11.206,-17.44 -1.469,-0.685 -2.275,-2.289 -1.949,-3.876 0.326,-1.587 1.699,-2.743 3.318,-2.794 7.788,-0.246 12.554,-2.599 13.076,-6.457 0.455,-3.369 -2.268,-7.531 -5.603,-8.564 -1.3,-0.402 -2.249,-1.522 -2.433,-2.87 -0.184,-1.348 0.43,-2.681 1.574,-3.417 8.598,-5.529 10.237,-14.467 8.049,-20.873 -2.363,-6.918 -8.702,-10.621 -16.942,-9.9 -1.563,0.139 -3.038,-0.792 -3.586,-2.27 -0.547,-1.478 -0.04,-3.139 1.239,-4.059 13.823,-9.933 14.865,-26.757 9.765,-39.024 -3.959,-9.524 -13.343,-19.858 -26.736,-17.625 -1.368,0.225 -2.754,-0.38 -3.511,-1.549 -0.758,-1.169 -0.751,-2.676 0.02,-3.837 5.405,-8.155 4.932,-16.052 2.213,-18.125 -2.895,-2.206 -10.264,0.672 -20.201,12.073 -0.853,0.978 -2.179,1.405 -3.439,1.107 -1.263,-0.297 -2.258,-1.268 -2.586,-2.523 -2.846,-10.903 -7.632,-15.111 -11.161,-15.414 -2.637,-0.219 -5.122,1.609 -6.62,4.912 -0.66,1.453 -2.219,2.276 -3.787,2.002 -1.571,-0.273 -2.759,-1.574 -2.889,-3.163 -1.154,-14.119 -8.075,-24.793 -17.223,-26.561 -8.42,-1.628 -17.136,4.738 -23.281,17.037 -0.718,1.437 -2.324,2.2 -3.891,1.852 -1.568,-0.349 -2.698,-1.721 -2.739,-3.327 -0.448,-17.576 -6.776,-28.055 -12.796,-29.323 -5.216,-1.097 -11.332,4.57 -16.333,15.173 -0.583,1.234 -1.873,2.016 -3.193,2.007 -1.365,-0.011 -2.599,-0.814 -3.161,-2.057 -3.087,-6.824 -6.693,-10.461 -9.88,-9.969 -4.299,0.657 -8.9,8.043 -9.847,15.805 -0.204,1.671 -1.569,2.961 -3.25,3.069 -1.686,0.107 -3.2,-0.997 -3.616,-2.628 -5.028,-19.729 -23.03,-29.553 -37.425,-28.787 -12.417,0.665 -20.896,8.479 -22.68,20.906 -0.188,1.308 -1.097,2.399 -2.35,2.82 -1.251,0.421 -2.636,0.101 -3.576,-0.829 -9.738,-9.628 -14.798,-10.661 -16.243,-9.756 -1.806,1.126 -2.902,7.479 0.479,17.54 0.527,1.568 -0.116,3.292 -1.542,4.131 -1.426,0.839 -3.245,0.567 -4.361,-0.658 -13.411,-14.7 -30.377,-14.151 -40.462,-7.421 -9.221,6.152 -16.74,20.285 -7.589,39.87 0.599,1.281 0.367,2.796 -0.586,3.841 -0.951,1.044 -2.438,1.414 -3.771,0.934 -11.993,-4.324 -23.796,4.153 -29.242,14.763 -5.49,10.692 -5.996,25.807 9.048,36.164 1.251,0.861 1.804,2.429 1.369,3.883 -0.434,1.455 -1.756,2.463 -3.272,2.499 -10.574,0.244 -16.501,4.669 -18.521,8.73 -1.176,2.362 -1.11,4.654 0.186,6.453 2.323,3.227 8.213,4.522 15.752,3.464 1.496,-0.21 2.957,0.563 3.625,1.917 0.668,1.354 0.393,2.985 -0.685,4.044 -12.255,12.051 -14.078,28.894 -9.327,34.368 3.194,3.682 9.72,2.209 17.899,-4.043 1.088,-0.832 2.56,-0.952 3.766,-0.311 1.209,0.641 1.933,1.928 1.854,3.293 -0.238,4.116 0.451,6.844 1.891,7.483 3.13,1.387 11.113,-3.039 15.635,-7.63 0.958,-0.972 2.392,-1.301 3.679,-0.837 1.284,0.462 2.184,1.628 2.302,2.988 0.214,2.445 0.975,6.681 3.664,7.584 2.86,0.966 7.697,-1.493 11.755,-5.973 5.964,-6.584 11.054,-18.436 5.771,-30.166 -0.709,-1.574 -0.164,-3.429 1.282,-4.371 1.447,-0.943 3.364,-0.688 4.516,0.597 4.473,4.989 9.202,6.271 14.456,3.921 8.217,-3.673 14.531,-15.007 13.991,-19.911 -0.202,-1.831 1.049,-3.505 2.862,-3.829 1.815,-0.324 3.566,0.813 4.013,2.6 2.245,9.018 5.519,12.701 7.833,13.141 1.773,0.334 3.138,-1.273 3.643,-1.981 1.834,-2.57 2.574,-7.105 0.094,-11.446 -0.896,-1.567 -0.452,-3.559 1.023,-4.598 1.476,-1.038 3.499,-0.786 4.675,0.585 7.433,8.683 16.593,13.694 23.34,12.763 4.388,-0.605 7.932,-3.758 10.532,-9.371 0.43,-0.926 1.241,-1.618 2.223,-1.896 0.981,-0.279 2.036,-0.114 2.887,0.45 6.129,4.062 16.157,2.05 20.373,-2.324 2.506,-2.6 2.547,-5.505 0.126,-8.881 -0.897,-1.252 -0.871,-2.943 0.065,-4.167 0.937,-1.223 2.563,-1.69 4.005,-1.151 2.394,0.895 6.536,1.459 10.923,2.057 10.84,1.477 23.126,3.151 27.036,11.304 2.146,4.472 1.25,10.04 -2.66,16.55 -3.521,5.861 -1.525,8.694 0.606,10.506 9.692,8.242 38.938,6.958 47.358,-0.164 1.292,-1.093 3.182,-1.105 4.487,-0.028 1.306,1.077 1.654,2.934 0.827,4.41 -7.878,14.07 -5.053,26.222 0.219,32.903 4.036,5.115 9.666,7.41 14.698,5.988 1.58,-0.45 3.263,0.267 4.038,1.716 0.775,1.449 0.438,3.243 -0.812,4.312 -13.502,11.546 -15.85,22.07 -12.318,26.962 2.489,3.446 7.5,3.746 12.464,0.748 0.557,-0.338 1.183,-0.503 1.805,-0.503 z"
   id="path814" />
				</g>
		</g>
</svg>
