<?xml version="1.0" encoding="UTF-8" standalone="no"?>
<!-- Generator: Adobe Illustrator 16.0.3, SVG Export Plug-In . SVG Version: 6.00 Build 0)  -->

<svg
   version="1.1"
   id="Layer_1"
   x="0px"
   y="0px"
   width="424.59872"
   height="755.961"
   viewBox="0 0 424.59872 755.961"
   enable-background="new 0 0 3200 1400"
   xml:space="preserve"
   sodipodi:docname="boy_blackhair_brownskin152_game.svg"
   inkscape:version="1.2.1 (9c6d41e410, 2022-07-14)"
   xmlns:inkscape="http://www.inkscape.org/namespaces/inkscape"
   xmlns:sodipodi="http://sodipodi.sourceforge.net/DTD/sodipodi-0.dtd"
   xmlns="http://www.w3.org/2000/svg"
   xmlns:svg="http://www.w3.org/2000/svg"><sodipodi:namedview
   id="namedview72"
   pagecolor="#ffffff"
   bordercolor="#666666"
   borderopacity="1.0"
   inkscape:showpageshadow="2"
   inkscape:pageopacity="0.0"
   inkscape:pagecheckerboard="0"
   inkscape:deskcolor="#d1d1d1"
   showgrid="false"
   inkscape:zoom="1.0966173"
   inkscape:cx="212.92751"
   inkscape:cy="378.43648"
   inkscape:window-width="1920"
   inkscape:window-height="1009"
   inkscape:window-x="-8"
   inkscape:window-y="-8"
   inkscape:window-maximized="1"
   inkscape:current-layer="Layer_1" /><defs
   id="defs1121" />

<g
   id="g152"
   transform="translate(-636.9679,-331.48891)">
			<g
   id="g78">
				<g
   id="g14">
					<g
   id="g6">
						<path
   d="m 838.873,1010.926 c -0.665,0 -1.336,-0.188 -1.932,-0.584 -1.61,-1.068 -2.05,-3.24 -0.981,-4.851 0.392,-0.591 39.059,-59.347 31.599,-87.753 -1.389,-5.288 -4.294,-8.995 -8.883,-11.335 -1.722,-0.878 -2.406,-2.986 -1.528,-4.708 0.878,-1.722 2.986,-2.406 4.708,-1.528 6.38,3.253 10.577,8.567 12.475,15.797 8.25,31.428 -30.868,90.882 -32.537,93.397 -0.676,1.015 -1.788,1.565 -2.921,1.565 z"
   id="path4" />
					</g>
					<g
   id="g12">
						<path
   fill="#4dbbc5"
   d="m 837.885,1007.188 c 26.718,-3.411 60.565,27.729 40.863,42.301 -19.703,14.572 -51.074,-23.464 -40.863,-42.301 z"
   id="path8" />
						<path
   d="m 868.917,1056.251 c -6.434,0 -13.385,-2.942 -20.016,-8.703 -12.323,-10.707 -20.964,-29.354 -14.094,-42.028 0.537,-0.99 1.517,-1.661 2.634,-1.804 20.433,-2.607 43.188,12.57 49.131,27.368 3.339,8.315 1.246,16.049 -5.744,21.219 -3.575,2.644 -7.629,3.948 -11.911,3.948 z m -28.686,-45.769 c -3.376,9.278 3.776,23.54 13.262,31.781 4.028,3.499 14.349,10.936 23.173,4.411 4.474,-3.31 5.589,-7.556 3.41,-12.981 -4.692,-11.685 -23.58,-24.168 -39.845,-23.211 z"
   id="path10" />
					</g>
				</g>
				<g
   id="g26">
					<g
   id="g18">
						<path
   d="m 696.067,1041.691 c -0.464,0 -0.936,-0.093 -1.389,-0.289 -1.774,-0.769 -2.589,-2.829 -1.82,-4.604 0.285,-0.658 28.609,-66.291 36.835,-105.968 0.393,-1.892 2.245,-3.109 4.138,-2.716 1.893,0.392 3.109,2.244 2.717,4.138 -8.373,40.383 -36.091,104.614 -37.267,107.329 -0.572,1.321 -1.861,2.11 -3.214,2.11 z"
   id="path16" />
					</g>
					<g
   id="g24">
						<path
   fill="#4dbbc5"
   d="m 696.707,1038.406 c -26.718,-3.41 -70.077,34.539 -38.025,44.928 16.41,5.318 48.236,-26.09 38.025,-44.928 z"
   id="path20" />
						<path
   d="m 662.768,1087.45 c -1.773,0 -3.504,-0.25 -5.165,-0.788 -14.782,-4.79 -14.26,-14.771 -13.35,-18.841 1.764,-7.88 9.329,-16.715 20.237,-23.632 11.199,-7.101 23.104,-10.474 32.66,-9.255 1.117,0.143 2.097,0.813 2.634,1.804 4.973,9.176 2.095,21.684 -7.699,33.461 -7.433,8.938 -19.074,17.251 -29.317,17.251 z m 30.38,-45.763 c -16.994,0 -39.437,15.93 -42.063,27.663 -0.405,1.809 -1.636,7.312 8.677,10.654 6.652,2.152 18.488,-4.116 26.942,-14.281 5.675,-6.824 10.419,-16.471 7.666,-24.008 -0.404,-0.019 -0.812,-0.028 -1.222,-0.028 z"
   id="path22" />
					</g>
				</g>
				<g
   id="g38">
					<g
   id="g32">
						<path
   fill="#f8688d"
   d="m 799.13,913.571 c -2.46,3.616 -10.517,16.222 -20.317,31.828 -14.122,-5.525 -40.535,-15.655 -60.43,-22.079 7.998,-27.1 14.979,-52.671 16.274,-71.273 81.303,17.27 102.297,12.773 115.67,4.701 6.874,5.93 24.5,24.193 30.279,39.117 -14.285,4.51 -38.699,13.663 -57.06,28.08 -7.897,-4.616 -18.4,-6.68 -24.416,-10.374 z"
   id="path28" />
						<path
   d="m 778.812,948.899 c -0.426,0 -0.858,-0.078 -1.274,-0.24 -13.984,-5.472 -40.405,-15.607 -60.23,-22.008 -1.806,-0.584 -2.818,-2.501 -2.281,-4.321 7.11,-24.092 14.808,-51.396 16.14,-70.526 0.07,-1.011 0.576,-1.941 1.385,-2.552 0.81,-0.61 1.844,-0.838 2.834,-0.629 83.023,17.635 101.413,12.204 113.134,5.129 1.295,-0.782 2.949,-0.643 4.095,0.346 7.629,6.582 25.308,25.143 31.256,40.504 0.349,0.901 0.31,1.907 -0.109,2.779 -0.418,0.871 -1.179,1.531 -2.101,1.822 -13.076,4.128 -37.733,13.189 -55.952,27.495 -1.131,0.888 -2.689,0.992 -3.928,0.269 -3.814,-2.229 -8.39,-3.857 -12.814,-5.433 -3.092,-1.101 -6.063,-2.158 -8.673,-3.384 -3.599,5.505 -10.68,16.632 -18.516,29.11 -0.657,1.046 -1.791,1.639 -2.966,1.639 z M 722.7,921.05 c 18.292,6.053 40.947,14.686 54.689,20.037 8.934,-14.206 16.4,-25.888 18.847,-29.484 1.05,-1.546 3.131,-1.994 4.725,-1.014 2.582,1.585 6.356,2.929 10.352,4.351 3.808,1.355 8.044,2.863 11.909,4.842 17.203,-12.924 38.984,-21.503 52.622,-26.05 -5.984,-12.188 -18.923,-26.175 -25.967,-32.688 -12.884,6.994 -34.534,11.424 -112.079,-4.759 -1.953,18.535 -8.64,42.761 -15.098,64.765 z"
   id="path30" />
					</g>
					<path
   fill="#0c105d"
   d="m 735.068,849.511 -1.947,22.063 c 0,0 57.771,26.094 122.566,-9.194 -1.876,-9.381 -2.143,-18.226 -2.143,-18.226 0,0 -32.007,24.617 -118.476,5.357 z"
   id="path34" />
					<path
   fill="#1a3667"
   d="m 808.153,869.575 c -0.451,3.634 -3.759,6.215 -7.393,5.764 v 0 c -3.633,-0.448 -6.214,-3.757 -5.768,-7.391 v 0 c 0.451,-3.633 3.76,-6.214 7.393,-5.766 v 0 c 3.636,0.452 6.215,3.758 5.768,7.393 z"
   id="path36" />
				</g>
				<g
   id="g48">
							<g
   id="g46">
								<path
   fill="#fdd5a3"
   d="m 848.006,743.602 c 0,0 -8.884,-3.542 -20.407,-7.157 1.208,-9.525 6.308,-22.422 6.308,-22.422 l -26.108,-6.325 c 0,0 -4.145,18.617 -5.29,24.793 -8.441,-1.481 -17.761,-2.864 -17.761,-2.864 0,0 -24.174,37.711 19.671,45.629 11.54,2.09 51.268,-0.633 43.587,-31.654 z"
   id="path40"
   style="fill:#916f6f" /><path
   d="m 811.822,779.306 c -3.232,0 -6.017,-0.242 -8.027,-0.606 -14.108,-2.548 -23.24,-8.376 -27.139,-17.322 -6.57,-15.072 4.664,-32.889 5.146,-33.64 0.744,-1.16 2.1,-1.772 3.46,-1.573 0.081,0.012 7.133,1.06 14.474,2.298 1.569,-7.688 4.503,-20.875 4.647,-21.525 0.205,-0.917 0.769,-1.714 1.566,-2.21 0.797,-0.498 1.761,-0.652 2.674,-0.431 l 26.107,6.325 c 0.984,0.238 1.816,0.892 2.283,1.79 0.466,0.899 0.52,1.956 0.148,2.897 -0.044,0.112 -3.996,10.173 -5.629,18.717 10.067,3.264 17.434,6.191 17.77,6.325 1.048,0.418 1.83,1.314 2.101,2.41 2.493,10.068 0.717,18.412 -5.277,24.799 -8.629,9.195 -23.816,11.746 -34.304,11.746 z m -25.224,-45.861 c -2.389,4.495 -7.534,15.972 -3.516,25.156 2.914,6.659 10.302,11.104 21.959,13.209 7.939,1.438 27.267,0.243 35.981,-9.041 3.994,-4.256 5.3,-9.693 3.972,-16.582 -3.104,-1.187 -10.106,-3.788 -18.442,-6.403 -1.616,-0.508 -2.638,-2.1 -2.424,-3.78 0.852,-6.719 3.479,-14.847 5.13,-19.507 l -18.812,-4.558 c -1.253,5.684 -3.674,16.762 -4.495,21.188 -0.35,1.888 -2.151,3.143 -4.046,2.81 -5.765,-1.011 -12.005,-1.986 -15.307,-2.492 z"
   id="path42" />
							</g>
						</g>
				<g
   id="g58">
							<path
   fill="#33a97f"
   d="m 784.748,729.626 c -24.569,46.177 56.482,61.137 63.258,13.976 14.072,5.126 38.602,23.096 53.17,46.648 -2.258,5.335 -28.49,23.897 -33.62,24.308 -3.284,-3.694 -6.629,-9.313 -11.566,-14.237 -2.464,19.087 15.637,59.782 17.355,64.076 0,0 -86.256,32.759 -160.594,4.575 -0.023,-0.009 33.524,-64.35 33.898,-105.397 -7.551,-2.945 -25.702,-9.126 -32.989,-17.678 2.367,-17.837 17.047,-31.885 23.142,-35.68 18.328,12.679 40.055,18.023 47.946,19.409 z"
   id="path54" />
							<path
   d="m 780.583,883.871 c -21.815,10e-4 -45.991,-2.875 -69.073,-11.627 -0.928,-0.352 -1.663,-1.081 -2.022,-2.006 -0.567,-1.461 0.017,-2.607 0.266,-3.097 3.311,-6.496 31.811,-63.44 33.334,-101.183 -0.149,-0.057 -0.302,-0.114 -0.456,-0.173 -9.182,-3.479 -24.55,-9.303 -31.636,-17.62 -0.643,-0.755 -0.936,-1.747 -0.806,-2.73 2.489,-18.756 17.758,-33.829 24.762,-38.189 1.185,-0.738 2.693,-0.702 3.841,0.092 20.081,13.892 43.909,18.375 46.56,18.841 1.104,0.194 2.048,0.905 2.54,1.912 0.492,1.008 0.471,2.189 -0.056,3.179 -5.653,10.626 -5.626,20.02 0.078,27.165 7,8.771 22.033,12.731 34.971,9.213 7.046,-1.916 19.229,-7.652 21.655,-24.544 0.15,-1.043 0.762,-1.964 1.667,-2.505 0.904,-0.542 2.005,-0.645 2.995,-0.286 15.769,5.745 40.386,24.554 54.949,48.097 0.597,0.965 0.689,2.16 0.247,3.205 -1.778,4.2 -11.363,11.503 -16.918,15.481 -4.432,3.175 -15.218,10.597 -19.646,10.951 -1.093,0.077 -2.165,-0.344 -2.895,-1.164 -1.395,-1.569 -2.755,-3.399 -4.195,-5.337 -0.357,-0.48 -0.723,-0.972 -1.097,-1.471 1.194,9.738 5.386,25.54 16.157,51.126 0.369,0.876 0.64,1.521 0.79,1.896 0.349,0.871 0.333,1.847 -0.045,2.707 -0.377,0.859 -1.084,1.531 -1.962,1.864 -0.895,0.34 -22.269,8.377 -53.14,13.046 -11.706,1.77 -25.718,3.157 -40.865,3.157 z M 717.644,867.03 c 63.115,22.097 134.725,0.746 151.04,-4.713 -12.276,-29.442 -17.714,-50.447 -16.165,-62.445 0.171,-1.322 1.078,-2.433 2.34,-2.864 1.262,-0.431 2.66,-0.108 3.603,0.835 3.176,3.168 5.687,6.547 7.902,9.528 0.837,1.127 1.646,2.215 2.424,3.198 6.3,-2.719 23.707,-15.286 28.211,-20.371 -13.278,-20.434 -33.592,-35.687 -46.396,-41.711 -3.296,12.957 -12.533,22.285 -25.88,25.915 -15.72,4.271 -33.5,-0.604 -42.278,-11.601 -6.674,-8.361 -7.61,-19.119 -2.771,-30.65 -8.38,-1.918 -26.5,-6.979 -42.842,-17.695 -6.215,4.717 -16.939,16.385 -19.451,30.305 6.48,6.426 20.18,11.617 27.733,14.479 1.042,0.395 1.987,0.753 2.808,1.073 1.354,0.528 2.241,1.839 2.228,3.293 -0.325,35.543 -24.4,87.068 -32.506,103.424 z"
   id="path56" />
						</g><g
   id="g64">
							<path
   fill="#ffa600"
   d="m 811.968,811.806 c -4.438,-1.255 -7.576,-18.276 -11.676,-17.42 -4.212,0.881 -4.929,15.293 -9.844,16.251 -5.87,1.143 -16.508,-0.404 -17.209,3.749 -0.98,5.989 12.676,9.081 10.681,15.34 -2.815,8.826 -5.588,19.662 -2.954,21.803 4.747,3.891 14.061,-13.965 20.462,-14.528 7.125,-0.629 21.936,19.24 23.797,12.163 1.341,-5.092 -9.102,-16.394 -6.245,-20.217 5.528,-7.375 14.87,-14.806 9.229,-16.476 -5.643,-1.694 -12.114,0.516 -16.241,-0.665 z"
   id="path60" />
							<path
   d="m 782.447,855.663 c -1.242,10e-4 -2.479,-0.427 -3.7,-1.428 -3.007,-2.443 -3.852,-7.732 1.838,-25.573 0.281,-0.88 -2.438,-2.935 -4.063,-4.163 -3.364,-2.543 -7.551,-5.707 -6.738,-10.679 0.953,-5.646 7.829,-5.905 13.895,-6.135 2.14,-0.081 4.35,-0.165 5.957,-0.458 0.918,-0.733 2.166,-4.367 2.844,-6.341 1.607,-4.678 3.125,-9.097 7.094,-9.927 4.929,-1.035 7.309,4.524 9.833,10.403 1.011,2.354 2.685,6.249 3.705,7.125 1.299,0.309 3.304,0.167 5.421,0.019 3.28,-0.232 6.999,-0.492 10.681,0.611 2.822,0.836 3.745,2.713 4.042,3.757 1.076,3.773 -2.145,7.389 -6.602,12.394 -1.611,1.809 -3.275,3.677 -4.674,5.513 0.065,1.297 1.853,4.666 2.941,6.717 2.404,4.529 4.674,8.808 3.688,12.557 -0.696,2.646 -2.464,3.574 -3.457,3.891 -3.744,1.199 -7.666,-2.065 -13.088,-6.585 -2.952,-2.459 -8.43,-7.013 -10.329,-6.873 -1.57,0.138 -5.502,4.444 -7.615,6.759 -3.656,4.004 -7.685,8.416 -11.673,8.416 z m 1.106,-6.397 z m -6.74,-33.868 c 0.553,0.964 2.774,2.643 3.931,3.517 3.501,2.646 8.297,6.271 6.511,11.874 -3.367,10.557 -3.873,15.285 -3.847,17.241 1.573,-1.155 3.978,-3.789 5.544,-5.505 4.055,-4.44 7.884,-8.635 12.17,-9.011 4.769,-0.427 9.939,3.897 15.424,8.469 1.362,1.134 3.124,2.603 4.609,3.695 -0.686,-1.64 -1.726,-3.601 -2.416,-4.899 -2.77,-5.219 -5.387,-10.149 -2.563,-13.928 1.62,-2.161 3.466,-4.234 5.252,-6.239 1.369,-1.537 3.243,-3.641 4.286,-5.12 -2.104,-0.326 -4.428,-0.162 -6.688,-0.003 -2.849,0.199 -5.539,0.39 -8.012,-0.316 -3.747,-1.062 -5.735,-5.688 -8.037,-11.047 -0.631,-1.47 -1.548,-3.605 -2.341,-5.061 -0.55,1.229 -1.129,2.916 -1.535,4.096 -1.693,4.929 -3.444,10.026 -7.984,10.911 -2.15,0.418 -4.704,0.515 -7.173,0.608 -2.189,0.084 -5.673,0.216 -7.131,0.718 z m 36.107,-6.96 c 0.001,0 0.002,10e-4 0.002,10e-4 0,-10e-4 -10e-4,-10e-4 -0.002,-10e-4 z"
   id="path62" />
						</g>
				<path
   d="m 736.799,713.717 c -0.645,0 -1.297,-0.178 -1.88,-0.55 -38.54,-24.612 -57.635,-53.209 -66.867,-72.865 -10.081,-21.464 -10.947,-36.99 -10.979,-37.641 -0.095,-1.931 1.394,-3.572 3.324,-3.667 1.919,-0.1 3.569,1.391 3.667,3.318 v 0 c 0.008,0.148 0.888,15.069 10.487,35.36 8.856,18.72 27.172,45.991 64.135,69.594 1.629,1.041 2.106,3.205 1.066,4.834 -0.668,1.046 -1.798,1.617 -2.953,1.617 z"
   id="path70" />
				<path
   d="m 667.838,643.581 c -14.486,10e-4 -28.504,-19.833 -30.26,-22.404 -1.09,-1.596 -0.68,-3.771 0.915,-4.862 1.595,-1.09 3.772,-0.682 4.864,0.913 3.768,5.505 15.414,19.307 24.576,19.308 1.157,0 2.273,-0.22 3.33,-0.704 13.037,-5.976 10.773,-26.865 10.749,-27.075 -0.223,-1.918 1.15,-3.656 3.068,-3.882 1.924,-0.219 3.655,1.143 3.884,3.06 0.126,1.064 2.898,26.155 -14.784,34.26 -2.098,0.962 -4.225,1.386 -6.342,1.386 z"
   id="path72" />
				<path
   d="m 927.896,914.151 c -0.039,0 -0.078,-10e-4 -0.117,-0.002 -1.932,-0.063 -3.446,-1.681 -3.383,-3.612 0.022,-0.683 1.898,-68.822 -26.251,-117.561 -0.967,-1.674 -0.394,-3.814 1.28,-4.781 1.674,-0.966 3.815,-0.393 4.781,1.28 29.167,50.5 27.28,118.425 27.186,121.291 -0.062,1.893 -1.616,3.385 -3.496,3.385 z"
   id="path74" />
				<path
   d="m 951.034,910.901 c -1.706,0.001 -3.2,-1.249 -3.458,-2.987 -0.042,-0.28 -4.384,-28.004 -20.256,-28.004 -0.194,0 -0.39,0.004 -0.588,0.013 -8.526,0.361 -16.711,17.815 -18.907,23.9 -0.655,1.818 -2.662,2.764 -4.479,2.106 -1.818,-0.654 -2.762,-2.658 -2.108,-4.477 1.026,-2.854 10.45,-27.898 25.196,-28.524 22.643,-0.969 27.854,32.533 28.065,33.96 0.283,1.912 -1.037,3.691 -2.949,3.975 -0.172,0.027 -0.345,0.038 -0.516,0.038 z"
   id="path76" />
			</g>
			<g
   id="g150">
				<g
   id="g84">
					<path
   fill="#1a1616"
   d="m 975.016,655.042 c 11.678,-29.852 25.515,-68.106 26.241,-95.028 62.237,38.167 72.772,-45.366 16.139,-39.066 39.843,-23.784 55.275,-59.701 24.041,-70.57 -21.512,-7.483 -51.027,23.27 -51.027,23.27 0,0 50.405,-77.803 -13.653,-102.662 -51.051,-19.808 -85.997,41.701 -85.997,41.701 0,0 10.038,-58.479 -28.9,-53.662 -20.74,2.567 -13.342,49.303 -14.032,46.786 -3.579,-13.071 -15.176,-64.229 -70.321,-70.583 -40.591,-4.675 -73.199,59.038 -28.199,97.771 -65.939,-27.451 -72.74,46.317 -18.307,45.961 -11.876,26.406 -27.252,67.358 -14.403,99.779 17.199,43.406 258.418,76.303 258.418,76.303 z"
   id="path80" />
					<path
   d="m 975.018,658.542 c -0.157,0 -0.316,-0.01 -0.475,-0.032 -0.604,-0.083 -61.158,-8.399 -123.034,-21.923 -36.417,-7.959 -66.188,-16.145 -88.484,-24.329 -29.064,-10.667 -45.315,-21.21 -49.683,-32.231 -12.552,-31.672 0.308,-70.055 12.369,-97.77 -15.539,-1.304 -27.478,-8.851 -32.473,-20.782 -4.291,-10.249 -2.204,-21.739 5.315,-29.273 4.317,-4.325 15.899,-12.477 38.452,-6.987 -16.223,-20.756 -15.186,-44.632 -7.745,-61.629 9.334,-21.318 28.884,-34.114 48.646,-31.836 23.645,2.725 42.408,13.663 55.768,32.511 4.4,6.208 7.723,12.6 10.253,18.513 1.725,-20.389 9.952,-26.288 17.502,-27.222 9.992,-1.234 18.007,1.228 23.822,7.322 8.938,9.368 10.424,25.362 10.152,36.833 4.127,-5.356 9.835,-11.898 16.938,-17.959 20.819,-17.768 43.531,-22.617 65.681,-14.023 16.716,6.487 27.542,17.044 32.18,31.379 6.651,20.558 -0.932,44.25 -7.958,59.755 11.126,-8.139 26.853,-16.477 40.343,-11.785 14.324,4.984 18.159,14.155 18.854,20.97 1.539,15.084 -11.168,34.094 -32.365,49.414 12.42,1.497 21.936,7.867 26.441,18.118 4.868,11.075 2.282,24.032 -6.288,31.509 -5.037,4.394 -19.113,12.577 -44.805,-1.211 -2.292,26.652 -15.026,62.014 -26.148,90.444 -0.531,1.354 -1.835,2.224 -3.258,2.224 z M 730.999,475.458 c 1.183,0 2.287,0.598 2.933,1.59 0.65,0.999 0.748,2.259 0.259,3.346 -12.05,26.792 -26.647,66.003 -14.341,97.054 3.758,9.484 26.049,28.888 133.116,52.292 54.166,11.84 107.333,19.675 119.795,21.451 11.492,-29.564 24.314,-65.949 24.997,-91.271 0.034,-1.25 0.731,-2.387 1.83,-2.982 1.1,-0.596 2.433,-0.561 3.498,0.093 17.547,10.759 32.688,12.501 41.54,4.779 6.288,-5.486 8.131,-15.116 4.482,-23.418 -4.579,-10.417 -16.294,-15.638 -31.326,-13.965 -1.646,0.178 -3.18,-0.802 -3.705,-2.363 -0.525,-1.561 0.109,-3.277 1.523,-4.121 24.36,-14.542 40.346,-34.769 38.875,-49.189 -0.711,-6.97 -5.485,-12.04 -14.191,-15.069 -15.906,-5.534 -39.574,14.285 -47.352,22.388 -1.25,1.302 -3.284,1.439 -4.696,0.321 -1.415,-1.12 -1.747,-3.131 -0.767,-4.646 0.259,-0.401 25.809,-40.432 16.065,-70.506 -3.96,-12.225 -13.396,-21.306 -28.046,-26.992 -19.829,-7.693 -39.499,-3.418 -58.465,12.703 -14.521,12.343 -23.138,27.316 -23.224,27.466 -0.841,1.476 -2.622,2.135 -4.22,1.563 -1.6,-0.572 -2.558,-2.21 -2.272,-3.884 0.053,-0.313 5.204,-31.484 -7.129,-44.397 -4.261,-4.461 -10.113,-6.164 -17.892,-5.201 -9.343,1.156 -13.366,16.36 -11.035,41.712 0.125,1.366 0.419,4.563 -2.763,5.142 -1.573,0.286 -3.466,-0.522 -4.04,-2.617 l -0.446,-1.655 c -4.006,-14.973 -16.197,-60.535 -66.9,-66.377 -16.692,-1.93 -33.339,9.206 -41.432,27.69 -7.725,17.644 -7.6,43.709 15.917,63.951 1.304,1.123 1.599,3.026 0.696,4.49 -0.903,1.464 -2.737,2.054 -4.324,1.394 -19.547,-8.137 -35.75,-7.802 -44.453,0.918 -5.506,5.517 -7.003,14.005 -3.813,21.625 4.381,10.465 15.927,16.688 30.924,16.688 0.13,-0.002 0.262,-0.006 0.382,-0.003 z"
   id="path82" />
				</g>
				<g
   id="g144">
					<g
   id="g90">
						<path
   fill="#fdd5a3"
   d="m 969.152,638.362 c -20.275,72.127 -90.055,104.321 -159.515,84.792 -69.452,-19.521 -112.244,-83.363 -91.962,-155.504 20.276,-72.123 92.272,-112.172 161.73,-92.646 69.458,19.527 110.036,91.235 89.747,163.358 z"
   id="path86"
   style="fill:#916f6f" />
						<path
   d="m 849.549,732.266 c -13.459,0 -27.207,-1.903 -40.86,-5.742 -35.136,-9.876 -64.139,-31.027 -81.666,-59.557 -18.097,-29.458 -22.614,-65.065 -12.718,-100.264 10.013,-35.617 32.765,-65.019 64.063,-82.788 31.108,-17.661 67.326,-22.022 101.983,-12.28 34.657,9.743 63.296,32.339 80.643,63.627 17.453,31.479 21.546,68.43 11.526,104.047 -9.893,35.193 -32.299,63.227 -63.091,78.938 -18.236,9.304 -38.7,14.019 -59.88,14.019 z m -6.05,-258.763 c -55.841,0 -106.164,37.145 -122.456,95.094 -9.361,33.297 -5.119,66.931 11.944,94.705 16.603,27.025 44.16,47.084 77.596,56.482 33.438,9.4 67.413,6.639 95.664,-7.773 29.033,-14.813 50.176,-41.305 59.534,-74.597 0,0 0,0 0,0 9.517,-33.83 5.642,-68.902 -10.91,-98.757 -16.434,-29.641 -43.572,-51.05 -76.416,-60.282 -11.717,-3.295 -23.456,-4.872 -34.956,-4.872 z"
   id="path88" />
					</g>
					<g
   id="g110">
						<g
   id="g108">
							<path
   fill="#fdd5a3"
   d="m 963.994,637.492 c 0,0 5.802,-14.177 24.203,-11.759 19.39,2.569 20.651,29.187 6.818,41.395 -13.823,12.174 -34.868,7.138 -38.476,-6.061 z"
   id="path92"
   style="fill:#916f6f" /><path
   id="path94"
   d="m 984.16992,621.96289 c -13.78998,0.0103 -21.27531,8.97574 -23.41406,14.20117 -0.732,1.789 0.12506,3.83441 1.91406,4.56641 1.791,0.733 3.83246,-0.12507 4.56446,-1.91406 0.048,-0.117 4.96192,-11.65524 20.5039,-9.61524 8.09299,1.073 11.06038,7.00818 12.10938,10.45117 2.57904,8.468 -0.42749,18.91867 -7.14649,24.84766 -7.38599,6.50599 -16.3838,6.91481 -22.34179,5.13281 -5.434,-1.627 -9.23937,-5.08724 -10.44336,-9.49023 -0.509,-1.865 -2.43183,-2.96413 -4.29883,-2.45313 -1.864,0.509 -2.96313,2.43383 -2.45313,4.29883 1.827,6.68399 7.50351,12.04861 15.1875,14.34961 2.741,0.821 5.57421,1.2207 8.40821,1.2207 7.39899,0 14.80227,-2.72464 20.57226,-7.80664 8.81697,-7.78199 12.60687,-20.99868 9.21287,-32.13867 -2.619,-8.59599 -9.14057,-14.19156 -17.89256,-15.35156 -1.56253,-0.20466 -3.05587,-0.2999 -4.48242,-0.29883 z" />
							<g
   id="g106">
								<g
   id="g104">
									<path
   fill="#fdd5a3"
   d="m 726.207,574.029 c 0,0 2.43,-15.129 -14.536,-22.644 -17.895,-7.912 -32.833,14.15 -27.4,31.766 5.458,17.599 26.041,24.259 35.999,14.883 z"
   id="path100"
   style="fill:#916f6f" />
									<path
   d="m 708.768,605.773 c -2.134,0 -4.333,-0.284 -6.543,-0.866 -9.988,-2.629 -18.149,-10.568 -21.297,-20.719 -3.466,-11.238 0.19,-24.487 8.892,-32.224 6.714,-5.971 15.194,-7.349 23.267,-3.779 15.373,6.809 17.564,20.246 16.576,26.4 -0.307,1.908 -2.103,3.204 -4.011,2.9 -1.902,-0.305 -3.198,-2.09 -2.904,-3.991 0.083,-0.569 1.638,-12.648 -12.494,-18.908 -7.466,-3.3 -13.093,0.218 -15.783,2.609 -6.613,5.881 -9.497,16.363 -6.855,24.925 2.914,9.395 10.378,14.436 16.391,16.018 5.487,1.445 10.54,0.478 13.863,-2.652 1.407,-1.323 3.622,-1.258 4.948,0.149 1.325,1.407 1.258,3.623 -0.149,4.948 -3.607,3.396 -8.544,5.19 -13.901,5.19 z"
   id="path102" />
								</g>
							</g>
						</g>
					</g>
					<g
   id="g126">
						<g
   id="g124">
							<g
   id="g116">
								<g
   id="g114">
									<circle
   fill="#fb5b4d"
   cx="912.034"
   cy="649.71002"
   r="19.622"
   id="circle112"
   style="fill:#a02c2c" />
								</g>
							</g>
							<g
   id="g122">
								<g
   id="g120">
									<circle
   fill="#fb5b4d"
   cx="758.672"
   cy="608.34302"
   r="19.622"
   id="circle118"
   style="fill:#a02c2c" />
								</g>
							</g>
						</g>
					</g>
					<path
   d="m 851.159,610.541 c -0.05,0 -0.1,-0.001 -0.15,-0.003 -0.646,-0.028 -2.799,-0.338 -3.368,-3.163 -0.788,-3.908 -2.372,-6.23 -4.708,-6.901 -2.569,-0.737 -5.126,0.357 -7.594,3.256 -1.919,2.254 -4.097,1.254 -4.514,1.031 -1.452,-0.777 -2.166,-2.474 -1.715,-4.058 0.179,-0.628 0.519,-1.167 0.961,-1.585 4.273,-4.978 9.522,-6.885 14.794,-5.373 3.463,0.996 7.94,3.919 9.625,12.19 0.215,0.651 0.241,1.371 0.034,2.079 -0.438,1.496 -1.817,2.527 -3.365,2.527 z"
   id="path128" />
					<g
   id="g134">
						<g
   id="g132">
							<circle
   cx="902.27899"
   cy="605.79303"
   r="12.173"
   id="circle130" />
						</g>
					</g>
					<g
   id="g140">
						<g
   id="g138">
							<circle
   cx="787.45203"
   cy="572.117"
   r="12.172"
   id="circle136" />
						</g>
					</g>
					<path
   d="m 841.734,690.938 c -8.487,0 -17.134,-1.193 -25.671,-3.683 -36.527,-10.658 -62.173,-42.305 -62.366,-76.959 -0.011,-1.933 1.547,-3.509 3.48,-3.52 0.007,0 0.013,0 0.02,0 1.924,0 3.489,1.554 3.5,3.48 0.176,31.582 23.75,60.481 57.327,70.278 35.064,10.229 72.152,-3.168 88.189,-31.854 0.943,-1.686 3.077,-2.289 4.763,-1.347 1.687,0.943 2.29,3.076 1.347,4.763 -13.673,24.459 -41.135,38.842 -70.589,38.842 z"
   id="path142" />
				</g>
				<path
   fill="#1a1616"
   d="m 753.029,493.089 c -16.87,34.808 32.095,43.062 58.407,-1.776 -8.021,31.033 72.333,71.852 120.588,31.023 -2.237,28.907 34.107,70.674 51.685,46.367 17.58,-24.31 -28.797,-101.236 -122.954,-108.899 -65.643,-5.342 -107.726,33.285 -107.726,33.285 z"
   id="path146" />
				<path
   d="m 970.693,579.517 c -2.53,0 -5.18,-0.496 -7.915,-1.499 -16.5,-6.054 -31.978,-29.005 -34.102,-48.704 -13.575,9.432 -30.052,14.138 -48.067,13.659 -17.302,-0.458 -35.397,-5.852 -49.646,-14.8 -12.244,-7.689 -20.115,-16.855 -22.678,-25.957 -16.692,21.489 -39.173,27.794 -52.533,20.65 -8.079,-4.32 -13.865,-14.812 -5.872,-31.303 0.843,-1.739 2.938,-2.464 4.676,-1.623 1.74,0.843 2.466,2.937 1.623,4.676 -5.024,10.368 -3.977,18.414 2.874,22.077 10.669,5.705 33.76,-0.557 49.365,-27.151 0.882,-1.506 2.741,-2.131 4.355,-1.463 1.614,0.667 2.489,2.42 2.052,4.111 -2.412,9.331 5.198,20.848 19.86,30.056 26.25,16.485 67.337,20.893 95.078,-2.58 1.078,-0.912 2.6,-1.086 3.855,-0.444 1.257,0.643 2.004,1.978 1.896,3.386 -1.512,19.528 15.335,43.579 29.675,48.84 6.499,2.385 11.627,0.816 15.684,-4.794 1.133,-1.565 3.322,-1.917 4.887,-0.785 1.566,1.132 1.918,3.32 0.785,4.887 -4.183,5.783 -9.653,8.761 -15.852,8.761 z"
   id="path148" />
			</g>
		</g>
</svg>
