<?xml version="1.0" encoding="UTF-8" standalone="no"?>
<!-- Generator: Adobe Illustrator 16.0.3, SVG Export Plug-In . SVG Version: 6.00 Build 0)  -->

<svg
   version="1.1"
   id="Layer_1"
   x="0px"
   y="0px"
   width="369.70309"
   height="158.06424"
   viewBox="0 0 369.70309 158.06424"
   enable-background="new 0 0 3200 1400"
   xml:space="preserve"
   sodipodi:docname="cloud1106_game.svg"
   inkscape:version="1.2.1 (9c6d41e410, 2022-07-14)"
   xmlns:inkscape="http://www.inkscape.org/namespaces/inkscape"
   xmlns:sodipodi="http://sodipodi.sourceforge.net/DTD/sodipodi-0.dtd"
   xmlns="http://www.w3.org/2000/svg"
   xmlns:svg="http://www.w3.org/2000/svg"><sodipodi:namedview
   id="namedview38548"
   pagecolor="#ffffff"
   bordercolor="#666666"
   borderopacity="1.0"
   inkscape:showpageshadow="2"
   inkscape:pageopacity="0.0"
   inkscape:pagecheckerboard="0"
   inkscape:deskcolor="#d1d1d1"
   showgrid="false"
   inkscape:zoom="3.2728966"
   inkscape:cx="185.00432"
   inkscape:cy="79.134795"
   inkscape:window-width="1920"
   inkscape:window-height="1009"
   inkscape:window-x="-8"
   inkscape:window-y="-8"
   inkscape:window-maximized="1"
   inkscape:current-layer="Layer_1" /><defs
   id="defs1121" />

<path
   d="m 34.130026,112.99124 c 6.174,0.192 12.251,-0.748 17.387,-1.696 1.071,-0.198 2.14,-0.407 3.208,-0.616 0.366,-0.072 0.732,-0.144 1.099,-0.215 -0.047,0.139 -0.093,0.279 -0.138,0.42 -1.215,3.795 -1.59,8.196 -1.083,12.726 1.27,11.36 7.527,21.279 17.169,27.212 5.859,3.606 12.986,5.839 21.787,6.826 2.47,0.277 4.916,0.416 7.332004,0.416 5.288,0 10.43,-0.663 15.356,-1.983 12.472,-3.342 23.635,-11.239 31.434,-22.237 3.934,-5.549 6.767,-11.482 8.37,-17.362 7.527,13.439 19.411,23.136 33.113,26.457 9.94,2.41 20.379,1.556 29.387,-2.406 8.684,-3.82 15.547,-10.836 19.325,-19.754 1.378,-3.253 2.281,-6.603 2.726,-9.954 7.75,8.405 18.07,14.499 29.388,17.148 4.294,1.005 8.574,1.5 12.752,1.5 10.455,0 20.269,-3.096 28.052,-9.031 5.017,-3.826 8.775,-8.58 10.948,-13.747 10.149,7.116 23.595,4.964 32.891,-0.8 10.582,-6.562005 19.164,-19.625005 13.004,-32.800005 -5.465,-11.688 -18.389,-15.806 -25.606,-17.22 -5.583,-1.094 -11.355,-1.497 -17.154,-1.214 0.134,-0.526 0.256,-1.051 0.367,-1.576 1.581,-7.477 0.761,-14.504 -2.436,-20.887 -4.403,-8.794003 -9.431,-15.189003 -15.371,-19.552003 -10.5,-7.7119997 -26.004,-8.0029997 -41.475,-0.776 -13.263,6.196 -24.464,18.672003 -33.308,37.094003 -1.034,-4.448 -2.545,-8.965 -4.594,-13.747 -5.36,-12.507003 -13.074,-22.343003 -22.308,-28.4430027 -10.927,-7.22000002 -24.916,-8.796 -36.505,-4.114 -10.006,4.042 -18.554,12.7159997 -24.069,24.4259997 -0.953,2.023003 -1.932,4.332003 -2.825,6.857003 -1.574,-1.471 -3.252,-2.978 -5.051,-4.538 -4.87,-4.223003 -9.684,-8.279003 -15.031,-11.488003 -16.585,-9.9509997 -36.803004,-10.6039997 -51.508004,-1.664 -12.981,7.893 -20.673,23.934003 -18.87,38.824003 -2.655,-0.797 -5.072,-1.215 -6.292,-1.395 -12.601,-1.857 -24.804,0.691 -33.473,6.988 -9.9219999,7.208 -16.2059999,22.747 -9.0549999,35.284 5.838,10.236005 17.4479999,16.606005 31.0569999,17.037005 z M 306.45703,72.396235 c -1.813,1.815 -3.359,3.089 -5.016,4.131 -0.444,0.28 -0.898,0.545 -1.364,0.789 -0.053,0.027 -0.197,0.096 -0.348,0.168 -0.118,0.057 -0.255,0.123 -0.391,0.202 -0.333,0.136 -0.682,0.257 -1.035,0.358 -0.089,0.023 -0.282,0.056 -0.464,0.089 -0.132,0.024 -0.295,0.053 -0.461,0.102 -0.166,0.007 -0.331,0.007 -0.497,0.004 -0.066,-0.013 -0.122,-0.03 -0.152,-0.042 -0.012,-0.005 -0.024,-0.01 -0.037,-0.015 -0.104,-0.128 -0.218,-0.261 -0.337,-0.399 -0.009,-0.01 -0.018,-0.021 -0.027,-0.03 -0.015,-0.023 -0.03,-0.046 -0.047,-0.069 -0.113,-0.161 -0.226,-0.322 -0.331,-0.488 -0.151,-0.237 -0.285,-0.482 -0.42,-0.728 l -0.051,-0.092 c -0.031,-0.056 -0.06,-0.115 -0.088,-0.173 l -0.028,-0.071 c -0.119,-0.359 -0.214,-0.716 -0.299,-1.083 -0.002,-0.03 -0.004,-0.061 -0.003,-0.091 l 0.004,-0.244 c 0.003,-0.184 0.006,-0.368 0.013,-0.552 0.013,-0.068 0.035,-0.169 0.075,-0.3 0.054,-0.182 0.107,-0.361 0.167,-0.54 0.038,-0.068 0.075,-0.142 0.11,-0.22 0.055,-0.121 0.113,-0.254 0.145,-0.313 0.119,-0.216 0.253,-0.421 0.388,-0.627 l 0.101,-0.155 c 0.028,-0.044 0.055,-0.087 0.079,-0.129 0.037,-0.038 0.075,-0.079 0.113,-0.122 0.288,-0.33 0.58,-0.651 0.893,-0.957 1.164,-1.136 1.738,-1.535 3.405,-2.522 1.422,-0.841 3.216,-1.712 4.8,-2.329 2.606,-1.014 5.308,-1.842 8.096,-2.481 -2.067,3.408 -4.522,6.453 -6.993,8.929 z m -155.959,-6.287 c -0.038,-0.01 -0.1,-0.033 -0.167,-0.06 0.066,-0.262 0.224,-0.467 0.417,-0.595 l 0.266,0.765 c -0.197,-0.041 -0.435,-0.088 -0.516,-0.11 z m 3.622,-4.106 c -0.001,0.051 -0.01,0.157 -0.018,0.271 -0.01,0.135 -0.022,0.302 -0.017,0.476 -0.033,0.157 -0.072,0.304 -0.115,0.441 -0.058,0.079 -0.115,0.168 -0.172,0.27 -0.04,0.071 -0.093,0.167 -0.145,0.28 -0.021,0.021 -0.042,0.043 -0.063,0.065 -0.146,0.155 -0.339,0.362 -0.434,0.444 l -0.016,0.014 c -0.166,0.117 -0.339,0.223 -0.515,0.325 -0.349,0.203 -0.683,0.364 -1.023,0.49 -0.145,0.054 -0.293,0.099 -0.44,0.145 -0.006,0 -0.012,0 -0.019,0 -0.041,-0.009 -0.081,-0.018 -0.118,-0.025 -0.114,-0.024 -0.22,-0.045 -0.253,-0.053 -0.083,-0.027 -0.231,-0.092 -0.342,-0.138 -0.039,-0.017 -0.078,-0.031 -0.115,-0.044 -0.195,-0.106 -0.387,-0.22 -0.585,-0.337 -0.035,-0.021 -0.068,-0.039 -0.102,-0.057 -0.026,-0.028 -0.053,-0.056 -0.082,-0.084 l -0.131,-0.129 c -0.184,-0.181 -0.367,-0.36 -0.545,-0.548 -0.057,-0.061 -0.11,-0.126 -0.163,-0.191 -0.007,-0.011 -0.015,-0.022 -0.023,-0.034 -0.204,-0.302 -0.401,-0.605 -0.579,-0.922 -0.183,-0.324 -0.346,-0.658 -0.5,-0.995 -0.065,-0.164 -0.131,-0.33 -0.187,-0.498 -0.298,-0.896 -0.508,-1.636 -0.662,-2.33 -0.417,-1.882 -0.503,-3.024 -0.547,-5.03 -0.038,-1.704 0.036,-3.475 0.218,-5.282 1.642,1.919 3.218,3.959 4.6,6.104 1.017,1.578 2.137,3.46 2.732,5.458 0.315,1.059 0.372,1.363 0.361,1.914 z M 68.175026,27.578232 c 9.647,-10.147 26.039,-13.104 41.760004,-7.533 5.381,1.907 10.529,4.949 16.693,9.862003 4.781,3.812 9.277,7.787 13.364,11.815 0.037,0.036 0.073,0.072 0.11,0.108 -1.057,4.928 -1.534,10.289 -0.857,15.727 0.623,5.007 2.037,8.6 4.449,11.307 1.276,1.432 2.921,2.515 4.756,3.133 3.163,1.064 5.834,-0.068 7.568,-1.013 2.93,-1.599 4.681,-3.848 5.202,-6.685 0.958,-5.215 -2.235,-12.159 -9.492,-20.639 -1.134,-1.324 -2.32,-2.643 -3.575,-3.969 0.548,-1.956 1.2,-3.924 1.93,-5.806 3.912,-10.081003 10.206,-18.073003 17.725,-22.504003 8.708,-5.1309997 20.415,-5.4909997 29.824,-0.918 8.454,4.109 15.617,11.633 21.292,22.362003 2.305,4.358 4.198,9.009 5.625,13.822 1.318,4.444 2.106,8.452 2.342,11.912 0.098,1.434 0.106,2.721 0.024,3.912 l -0.355,0.932 0.28,0.038 c -0.018,1.762 1.587,3.187 3.146,3.398 1.698,0.224 3.231,-0.728 3.914,-2.443 l 0.075,0.01 0.029,-0.28 c 4.332,-11.356 11.561,-27.63 24.383,-38.743003 5.534,-4.796 12.021,-8.167 19.284,-10.022 6.703,-1.71 12.313,-1.961 17.154,-0.766 5.184,1.28 9.933,4.406 14.113,9.292 2.191,2.562 4.203,5.579003 6.329,9.496003 1.439,2.651 2.84,5.566 3.342,8.917 0.666,4.452 0.043,8.918 -1.378,13.128 -2.838,0.434 -5.664,1.031 -8.455,1.792 -11.896,3.244 -18.61,7.967 -20.526,14.439 -1.091,3.687 -0.039,7.744 2.889,11.133 2.783,3.22 7.342,3.516 12.505,0.815 4.425,-2.315 8.492,-6.063 12.798,-11.794 2.33,-3.102 4.279,-6.376 5.798,-9.718 3.423,-0.296 6.95,-0.34 10.572,-0.126 7.463,0.437 17.753,2.325 24.394,8.836 1.919,1.881 5.161,5.808 5.315,10.965 0.128,4.285 -1.762,8.797 -5.324,12.704 -6.669,7.318005 -18.541,12.435005 -28.322,8.048005 -2.337,-1.047 -4.416,-2.618005 -6.354,-4.801005 -0.836,-0.942 -1.973,-1.349 -3.117,-1.114 -0.352,0.072 -0.688,0.205 -1.004,0.381 -0.159,0.072 -0.32,0.138 -0.469,0.231 -0.813,0.508 -1.352,1.266 -1.516,2.136 -2.35,12.498005 -14.068,19.491005 -24.252,21.868005 -11.607,2.709 -24.713,0.256 -35.955,-6.735 -6.109,-3.799 -11.343,-8.891 -15.135,-14.723005 -0.264,-0.406 -0.578,-0.71 -0.912,-0.96 -0.59,-2.78 -1.514,-5.476 -2.798,-8.021 -0.996,-1.976 -3.056,-2.233 -4.574,-1.466 -1.646,0.83 -2.812,2.868 -1.732,5.009 6.724,13.329005 0.265,31.473005 -13.822,38.829005 -14.307,7.469 -33.133,4.07 -45.784,-8.271 -6.558,-6.398 -11.469,-14.761 -14.204,-24.19 l -0.148,-1.057005 -0.251,0.069 c -0.822,-1.46 -2.33,-1.886 -3.628,-1.605 -1.468,0.313 -2.884,1.588 -3.022,3.438005 l -0.22,0.061 0.252,0.872 c 0.006,0.135 0.02,0.266 0.032,0.385 0.024,0.231 0.049,0.47 0.056,0.559 0.03,0.415 0.05,0.831 0.061,1.247 0.026,1.005 -0.004,2.065 -0.09,3.15 -0.144,1.826 -0.466,3.676 -1.013,5.823 -1.117,4.38 -2.948,8.712 -5.444,12.875 -5.784,9.649 -14.425,17.074 -24.332,20.904 -13.392,5.179 -30.228004,4.484 -41.895004,-1.728 -8.082,-4.303 -13.363,-11.022 -15.273,-19.431 -0.509,-2.244 -0.701,-3.952 -0.705,-6.305 -0.004,-2.317 0.123,-3.539 0.567,-5.451 0.169,-0.729 0.394,-1.486 0.707,-2.384 0.031,-0.089 0.065,-0.178 0.102,-0.27 0.012,-0.024 0.023,-0.049 0.035,-0.075 0.04,-0.09 0.095,-0.219 0.12,-0.27 l 0.112,-0.221 c 0.134,-0.264 0.267,-0.527 0.418,-0.782 0.111,-0.187 0.229,-0.369 0.352,-0.548 0.047,-0.05 0.095,-0.104 0.143,-0.165 0.086,-0.107 0.187,-0.236 0.23,-0.283 0.028,-0.027 0.069,-0.063 0.114,-0.101 l 0.2,10e-4 -0.037,-0.137 c 0.052,-0.045 0.1,-0.089 0.143,-0.132 0.114,-0.072 0.232,-0.14 0.354,-0.201 1.432,-0.715 2.116,-2.218 1.741,-3.827 -0.401,-1.724 -1.842,-2.936 -3.503,-2.946 -0.219,0 -0.438,0.001 -0.657,0.006 l -0.024,-0.089 -0.191,0.095 c -2.576,0.087 -5.132,0.602 -7.612,1.102 l -1.437,0.286 c -4.041,0.787 -8.22,1.602 -12.473,1.976 -11.336,0.998 -20.277,-1.398 -26.567,-7.125005 -4.7009999,-4.278 -7.0289999,-8.774 -7.1169999,-13.747 -0.094,-5.257 1.761,-10.681 4.9619999,-14.508 5.37,-6.42 15.329,-10.088 26.625,-9.834 3.5,0.082 8.611,0.578 13.093,2.479 0.613,0.26 1.456,0.692 2.05,1.05 0.073,0.044 0.146,0.088 0.218,0.133 0.556,1.28 1.201,2.537 1.931,3.764 0.75,1.261 2.217,1.925 3.739,1.689 1.449,-0.223 2.552,-1.218 2.877,-2.597 0.114,-0.484 0.184,-0.96 0.209,-1.428 l 0.191,-0.025 -0.181,-0.304 c 0.013,-1.446 -0.409,-2.807 -1.262,-4.063 -0.432,-0.636 -0.962,-1.221 -1.565,-1.759 -3.858,-11.288 0.62,-23.982 7.941,-31.683003 z"
   id="path1106" />
</svg>
