<?xml version="1.0" encoding="UTF-8" standalone="no"?>
<!-- Generator: Adobe Illustrator 16.0.3, SVG Export Plug-In . SVG Version: 6.00 Build 0)  -->

<svg
   version="1.1"
   id="Layer_1"
   x="0px"
   y="0px"
   width="369.70413"
   height="158.06653"
   viewBox="0 0 369.70413 158.06653"
   enable-background="new 0 0 3200 1400"
   xml:space="preserve"
   xmlns="http://www.w3.org/2000/svg"
   xmlns:svg="http://www.w3.org/2000/svg"><defs
   id="defs1121" />

<path
   d="m 15.069929,105.89953 c 9.297,5.764 22.743,7.917 32.892,0.8 2.173,5.167 5.932,9.921 10.948,13.747 7.783,5.935 17.598,9.03 28.052,9.03 4.178,0 8.459,-0.494 12.752,-1.5 11.318001,-2.649 21.638001,-8.743 29.388001,-17.148 0.445,3.351 1.348,6.701 2.726,9.954 3.778,8.918 10.642,15.934 19.325,19.754 9.007,3.963 19.443,4.818 29.387,2.406 13.702,-3.321 25.585,-13.017 33.113,-26.457 1.604,5.88 4.436,11.813 8.37,17.361 7.797,10.998 18.96,18.895 31.433,22.237 4.928,1.321 10.069,1.983 15.357,1.983 2.416,0 4.862,-0.139 7.332,-0.416 8.801,-0.987 15.928,-3.22 21.787,-6.826 9.641,-5.934 15.898,-15.852 17.169,-27.212 0.505,-4.532 0.13,-8.932 -1.085,-12.726 -0.045,-0.142 -0.091,-0.282 -0.138,-0.42 0.366,0.071 0.733,0.143 1.1,0.215 1.069,0.209 2.138,0.418 3.208,0.616 5.135,0.948 11.222,1.895 17.386,1.696 13.609,-0.431 25.221,-6.801 31.059,-17.040004 7.151,-12.538 0.868,-28.077 -9.055,-35.284 -8.67,-6.298 -20.872,-8.844 -33.473,-6.988 -1.22,0.18 -3.637,0.598 -6.292,1.396 1.805,-14.891 -5.889,-30.932 -18.869,-38.825 -14.706,-8.94 -34.923,-8.289 -51.508,1.664 -5.348,3.208 -10.161,7.265 -15.031,11.488 -1.8,1.561 -3.477,3.067 -5.051,4.538 -0.894,-2.525 -1.873,-4.834 -2.826,-6.857 -5.514,-11.708 -14.062,-20.383 -24.067,-24.426 -11.591,-4.681002 -25.579,-3.10500197 -36.506,4.114 -9.234,6.101 -16.948,15.936 -22.309,28.443 -2.049,4.78 -3.56,9.297 -4.595,13.748 -8.843,-18.421 -20.044,-30.898 -33.308,-37.094 -15.471001,-7.227 -30.976001,-6.936 -41.475001,0.776 -5.939,4.363 -10.968,10.759 -15.371,19.552 -3.197,6.384 -4.017,13.411 -2.436,20.887 0.111,0.525 0.233,1.05 0.367,1.576 -5.8,-0.284 -11.573,0.121 -17.154,1.214 -7.218,1.415 -20.142,5.533 -25.606,17.22 -6.16,13.18 2.423,26.242 13.004,32.804004 z M 309.46893,59.270526 c -0.603,0.538 -1.133,1.123 -1.564,1.759 -0.854,1.257 -1.275,2.618 -1.263,4.065 l -0.18,0.302 0.19,0.025 c 0.024,0.468 0.094,0.944 0.208,1.428 0.326,1.379 1.43,2.374 2.879,2.597 1.523,0.236 2.988,-0.43 3.738,-1.689 0.73,-1.228 1.375,-2.483 1.932,-3.764 0.072,-0.045 0.145,-0.089 0.218,-0.133 0.592,-0.357 1.435,-0.789 2.05,-1.05 4.481,-1.901 9.594,-2.397 13.094,-2.479 11.287,-0.252 21.256,3.414 26.624,9.834 3.201,3.827 5.056,9.251 4.962,14.509 -0.088,4.972 -2.416,9.468 -7.116,13.746 -6.291,5.726004 -15.224,8.124004 -26.568,7.125004 -4.252,-0.375 -8.431,-1.189 -12.473,-1.976 l -1.436,-0.286 c -2.481,-0.5 -5.038,-1.015 -7.613,-1.102 l -0.191,-0.095 -0.024,0.089 c -0.219,-0.006 -0.438,-0.006 -0.657,-0.006 -1.661,0.01 -3.102,1.221 -3.503,2.945 -0.375,1.609 0.309,3.111 1.74,3.827 0.122,0.061 0.24,0.13 0.354,0.201 0.043,0.043 0.091,0.087 0.143,0.131 l -0.037,0.138 0.2,-0.001 c 0.044,0.036 0.081,0.069 0.104,0.092 0.054,0.058 0.155,0.187 0.241,0.294 0.048,0.06 0.095,0.113 0.141,0.162 0.123,0.18 0.241,0.362 0.352,0.547 0.151,0.254 0.284,0.518 0.418,0.781 l 0.111,0.219 c 0.027,0.055 0.082,0.184 0.121,0.274 0.012,0.026 0.023,0.051 0.035,0.076 0.036,0.089 0.07,0.179 0.102,0.27 0.313,0.897 0.537,1.655 0.707,2.384 0.444,1.91 0.571,3.132 0.566,5.451 -0.01,2.356 -0.195,4.064 -0.705,6.304 -1.909,8.409 -7.19,15.128 -15.272,19.431 -11.665,6.211 -28.502,6.906 -41.896,1.728 -9.906,-3.831 -18.548,-11.255 -24.332,-20.904 -2.495,-4.162 -4.326,-8.494 -5.444,-12.875 -0.547,-2.147 -0.869,-3.998 -1.013,-5.822 -0.085,-1.084 -0.115,-2.145 -0.09,-3.149 0.011,-0.416 0.029,-0.832 0.061,-1.251 0.01,-0.091 0.033,-0.342 0.058,-0.58 0.012,-0.108 0.024,-0.231 0.03,-0.359 l 0.252,-0.873 -0.22,-0.061 c -0.14,-1.851004 -1.555,-3.125004 -3.023,-3.438004 -1.296,-0.279 -2.807,0.146 -3.628,1.605 l -0.251,-0.069 -0.148,1.057004 c -2.735,9.429 -7.646,17.792 -14.203,24.19 -12.65,12.341 -31.478,15.742 -45.784,8.271 -14.087,-7.357 -20.546,-25.501 -13.822,-38.829004 1.08,-2.142 -0.086,-4.18 -1.731,-5.009 -1.52,-0.767 -3.578,-0.508 -4.574,1.466 -1.283,2.544 -2.208,5.241 -2.798,8.021 -0.334,0.25 -0.648,0.554 -0.913,0.96 -3.791,5.833004 -9.024,10.924004 -15.135,14.723004 -11.24,6.99 -24.345001,9.446 -35.954001,6.735 -10.184,-2.377 -21.902,-9.37 -24.253,-21.869004 -0.163,-0.869 -0.701,-1.627 -1.515,-2.136 -0.147,-0.092 -0.309,-0.158 -0.466,-0.229 -0.316,-0.177 -0.653,-0.311 -1.007,-0.383 -1.147,-0.234 -2.282,0.171 -3.118,1.113 -1.938,2.183 -4.016,3.754004 -6.354,4.801004 -9.782,4.385 -21.652,-0.729 -28.321,-8.048004 -3.563,-3.907 -5.453,-8.418 -5.323,-12.704 0.153,-5.156 3.395,-9.083 5.313,-10.965 6.642,-6.511 16.932,-8.399 24.395,-8.836 3.62,-0.212 7.149,-0.169 10.571,0.126 1.519,3.342 3.468,6.616 5.798,9.718 4.307,5.732 8.373,9.479 12.798,11.794 5.166,2.701 9.724,2.405 12.506,-0.815 2.928,-3.39 3.98,-7.447 2.89,-11.133 -1.917,-6.472 -8.631,-11.195 -20.527,-14.439 -2.791,-0.761 -5.616,-1.359 -8.454,-1.792 -1.422,-4.21 -2.045,-8.676 -1.378,-13.128 0.502,-3.351 1.902,-6.266 3.342,-8.917 2.126,-3.917 4.137,-6.934 6.329,-9.496 4.181,-4.886 8.929,-8.012 14.112,-9.292 4.843,-1.195 10.453,-0.944 17.154,0.766 7.263,1.854 13.751001,5.226 19.283001,10.022 12.821,11.112 20.051,27.384 24.383,38.74 l 0.029,0.282 0.075,-0.01 c 0.682,1.715 2.209,2.672 3.914,2.442 1.558,-0.21 3.163,-1.635 3.146,-3.397 l 0.279,-0.038 -0.354,-0.93 c -0.082,-1.192 -0.074,-2.48 0.023,-3.915 0.235,-3.458 1.023,-7.465 2.343,-11.911 1.428,-4.813 3.32,-9.464 5.625,-13.822 5.675,-10.729 12.839,-18.253 21.293,-22.362 9.41,-4.574 21.115,-4.213 29.824,0.918 7.519,4.431 13.813,12.423 17.725,22.504 0.73,1.882 1.383,3.85 1.931,5.806 -1.255,1.327 -2.441,2.645 -3.575,3.97 -7.257,8.481 -10.45,15.425 -9.492,20.639 0.522,2.837 2.272,5.086 5.203,6.685 1.732,0.945 4.403,2.078 7.568,1.013 1.834,-0.618 3.479,-1.701 4.755,-3.133 2.413,-2.707 3.827,-6.3 4.45,-11.307 0.677,-5.438 0.199,-10.798 -0.857,-15.727 0.036,-0.036 0.073,-0.072 0.109,-0.108 4.086,-4.028 8.582,-8.003 13.363,-11.815 6.165,-4.914 11.313,-7.956 16.694,-9.862 15.72,-5.571 32.113,-2.614 41.76,7.533 7.32,7.699 11.797,20.393 7.941,31.685 z m -239.548001,19.307 c -0.192,-0.097 -0.652,-0.313 -0.76,-0.37 -0.015,-0.007 -0.027,-0.016 -0.041,-0.023 0.19,-0.385 0.568,-0.566 0.899,-0.566 0.102,0 0.198,0.017 0.282,0.049 z m -5.572,-12.625 c 1.582,0.616 3.377,1.486 4.799,2.329 1.668,0.987 2.243,1.387 3.405,2.522 0.313,0.306 0.606,0.627 0.894,0.956 0.038,0.044 0.076,0.085 0.113,0.123 0.024,0.042 0.05,0.085 0.079,0.13 l 0.096,0.148 c 0.136,0.208 0.271,0.416 0.39,0.63 0.033,0.063 0.092,0.196 0.146,0.316 0.035,0.079 0.072,0.152 0.11,0.221 0.063,0.189 0.122,0.39 0.192,0.625 0.022,0.078 0.039,0.152 0.049,0.209 0.01,0.175 0.01,0.349 0.013,0.523 l 0.01,0.28 c 0,0.029 0,0.058 0,0.086 -0.084,0.369 -0.179,0.726 -0.298,1.083 l -0.028,0.071 c -0.027,0.06 -0.057,0.118 -0.089,0.176 l -0.059,0.105 c -0.133,0.242 -0.265,0.482 -0.412,0.714 -0.106,0.166 -0.219,0.328 -0.332,0.489 -0.016,0.022 -0.03,0.044 -0.045,0.066 -0.01,0.011 -0.019,0.021 -0.028,0.032 -0.118,0.136 -0.233,0.269 -0.338,0.399 -0.013,0.005 -0.025,0.01 -0.038,0.016 -0.029,0.012 -0.085,0.029 -0.149,0.042 -0.166,0.003 -0.331,0.003 -0.498,-0.004 -0.166,-0.048 -0.329,-0.078 -0.461,-0.102 -0.183,-0.033 -0.374,-0.065 -0.459,-0.087 -0.356,-0.102 -0.705,-0.223 -1.036,-0.358 -0.133,-0.078 -0.269,-0.143 -0.386,-0.199 -0.152,-0.073 -0.3,-0.144 -0.356,-0.174 -0.438,-0.229 -0.884,-0.486 -1.363,-0.788 -1.656,-1.042 -3.203,-2.316 -5.015,-4.131 -2.472,-2.476 -4.927,-5.521 -6.994,-8.931 2.788,0.641 5.489,1.469 8.096,2.483 z m 158.596001,-7.107 c -0.153,0.692 -0.364,1.433 -0.662,2.331 -0.055,0.164 -0.118,0.326 -0.183,0.487 -0.155,0.341 -0.319,0.678 -0.504,1.004 -0.179,0.317 -0.375,0.621 -0.58,0.922 -0.01,0.013 -0.017,0.026 -0.025,0.039 -0.052,0.063 -0.103,0.127 -0.159,0.187 -0.17,0.181 -0.345,0.352 -0.521,0.525 l -0.156,0.154 c -0.028,0.028 -0.055,0.055 -0.08,0.083 -0.034,0.018 -0.068,0.037 -0.104,0.058 -0.194,0.115 -0.387,0.229 -0.584,0.336 -0.038,0.014 -0.077,0.029 -0.117,0.046 -0.11,0.046 -0.259,0.111 -0.321,0.132 -0.052,0.013 -0.158,0.035 -0.272,0.059 -0.033,0.007 -0.067,0.014 -0.104,0.022 l -0.062,-0.007 c -0.138,-0.042 -0.275,-0.084 -0.41,-0.135 -0.34,-0.127 -0.675,-0.287 -1.023,-0.491 -0.174,-0.102 -0.349,-0.207 -0.513,-0.324 l -0.019,-0.016 c -0.094,-0.082 -0.288,-0.291 -0.435,-0.446 -0.021,-0.021 -0.041,-0.042 -0.062,-0.063 -0.052,-0.113 -0.106,-0.21 -0.146,-0.281 -0.057,-0.101 -0.113,-0.19 -0.172,-0.269 -0.043,-0.138 -0.081,-0.285 -0.115,-0.442 0.01,-0.174 -0.01,-0.341 -0.017,-0.477 -0.01,-0.114 -0.017,-0.219 -0.018,-0.268 -0.012,-0.553 0.046,-0.856 0.36,-1.914 0.594,-1.995 1.715,-3.879 2.733,-5.459 1.382,-2.144 2.957,-4.184 4.599,-6.103 0.183,1.808 0.256,3.579 0.218,5.281 -0.043,2.005 -0.129,3.148 -0.546,5.029 z"
   id="path1108" />
</svg>
