<?xml version="1.0" encoding="UTF-8" standalone="no"?>
<!-- Generator: Adobe Illustrator 16.0.3, SVG Export Plug-In . SVG Version: 6.00 Build 0)  -->

<svg
   version="1.1"
   id="Layer_1"
   x="0px"
   y="0px"
   width="150.7686"
   height="169.64212"
   viewBox="0 0 150.7686 169.64212"
   enable-background="new 0 0 3200 1400"
   xml:space="preserve"
   xmlns="http://www.w3.org/2000/svg"
   xmlns:svg="http://www.w3.org/2000/svg"><defs
   id="defs1121" />

<g
   id="g10866"
   transform="translate(-1993.5986,-1090.5969)"><g
     id="g1034">
				<path
   fill="#ffa600"
   d="m 2081.807,1125.246 c 5.781,-9.897 1.34,-24.311 -9.009,-29.237 -10.349,-4.928 -24.336,0.712 -28.374,11.438 -2.954,7.848 -0.947,16.625 -1.919,24.953 -6.669,-6.794 -13.851,-13.888 -23.111,-16.095 -9.261,-2.206 -20.921,2.878 -22.08,12.327 -0.817,6.666 3.612,12.764 8.153,17.711 6.631,7.225 14.038,13.737 22.054,19.389 -10.089,-2.934 -21.818,5.318 -22.464,15.806 -0.731,11.867 11.064,21.488 22.881,22.808 11.815,1.319 23.387,-3.358 34.356,-7.942 -5.576,6.919 -4.922,17.669 0.477,24.728 5.398,7.06 14.674,10.517 23.554,10.153 8.834,-0.362 17.819,-4.596 22.318,-12.207 4.5,-7.611 3.344,-18.595 -3.67,-23.979 9.396,6.722 23.904,4.277 30.996,-4.843 7.092,-9.12 6.136,-23.349 -1.727,-31.813 -7.861,-8.466 -22.144,-6.004 -31.857,-5.4 9.433,-0.512 26.594,-20.065 17.166,-32.543 -10.102,-13.374 -29.462,-4.227 -37.744,4.746 z"
   id="path1030" />
				<path
   fill="#f7f2e0"
   d="m 2054.32,1140.664 c 5.373,-6.479 16.493,-5.19 22.369,0.836 5.877,6.025 7.485,15.049 7.337,23.465 -0.058,3.285 -0.548,6.976 -3.155,8.975 -1.637,1.255 -3.804,1.572 -5.865,1.582 -14.776,0.073 -27.288,-15.998 -23.594,-30.305 z"
   id="path1032" />
			</g><path
     d="m 2114.601,1212.934 c 0.564,-3.698 0.312,-7.329 -0.659,-10.609 4.325,0.579 8.888,0.101 13.16,-1.487 7.604,-2.826 13.209,-8.498 15.782,-15.972 2.475,-7.187 1.824,-15.701 -1.739,-22.775 -3.537,-7.02 -9.83,-11.59 -17.718,-12.869 -2.23,-0.361 -4.466,-0.519 -6.693,-0.551 0.647,-0.686 1.219,-1.34 1.704,-1.926 3.345,-4.032 7.356,-10.372 7.47,-17.676 0.107,-6.91 -3.997,-13.469 -10.456,-16.71 -5.635,-2.829 -12.721,-2.926 -19.956,-0.269 -2.644,0.971 -5.163,2.176 -7.517,3.587 0.048,-3.321 -0.565,-6.694 -1.853,-9.882 -2.639,-6.533 -7.435,-11.426 -13.504,-13.774 -5.735,-2.219 -12.674,-1.83 -19.039,1.063 -6.177,2.809 -10.894,7.996 -12.942,14.232 -1.681,5.12 -1.595,10.464 -1.512,15.632 0.01,0.364 0.012,0.729 0.017,1.095 -4.743,-4.377 -9.606,-8.005 -15.474,-10.207 -6.468,-2.427 -13.693,-2.076 -19.828,0.959 -6.555,3.244 -10.568,9.604 -10.225,16.205 0.43,8.275 6.024,14.653 12.217,20.995 3.551,3.634 7.372,7.128 11.426,10.447 -3.681,1.094 -7.156,3.165 -9.956,6.075 -4.997,5.196 -6.963,12.359 -5.259,19.162 1.598,6.383 6.354,12.259 13.05,16.121 10.104,5.829 21.116,5.092 32.158,1.934 -3.78,16.325 -4.844,33.739 -3.063,50.99 0.214,2.069 1.699,3.515 3.612,3.515 1.008,0 2.04,-0.478 2.762,-1.277 0.639,-0.708 0.94,-1.576 0.852,-2.442 -1.912,-18.517 -0.57,-36.476 3.971,-53.488 0,0 0,0 10e-4,0 -1.203,5.476 -0.465,11.455 2.301,16.819 3.242,6.291 9.11,11.045 16.523,13.384 3.451,1.089 7.081,1.625 10.696,1.625 5.608,0 11.18,-1.292 15.984,-3.814 7.45,-3.913 12.574,-10.684 13.707,-18.112 z m -71.097,-77.094 c 1.396,-0.483 2.446,-1.821 2.612,-3.329 0.327,-2.969 0.246,-6.07 0.169,-9.068 -0.134,-5.175 -0.271,-10.524 1.706,-15.225 1.738,-4.132 5.441,-7.504 10.16,-9.251 4.558,-1.688 9.362,-1.563 13.181,0.344 4.039,2.018 7.174,5.876 8.602,10.586 1.427,4.708 0.969,9.641 -1.255,13.532 -1.008,1.764 -0.392,3.485 0.821,4.494 1.089,0.998 2.76,1.384 4.181,0.458 0.347,-0.209 0.669,-0.492 0.95,-0.858 3.942,-4.14 9.065,-7.338 14.463,-9.023 5.65,-1.763 10.4,-1.462 14.112,0.901 1.997,1.271 3.838,3.37 4.689,5.35 0.699,1.627 0.962,3.834 0.684,5.762 -0.796,5.539 -4.173,10.086 -6.865,12.924 -1.829,1.929 -3.334,3.18 -5.193,4.316 -0.495,0.303 -0.989,0.577 -1.471,0.815 -0.188,0.094 -0.377,0.183 -0.569,0.27 -0.101,0.04 -0.202,0.079 -0.308,0.116 -0.498,0.175 -0.88,0.289 -1.236,0.372 -0.129,0.028 -0.258,0.056 -0.387,0.079 l -1.165,0.08 v 0.112 c -1.542,0.475 -2.617,1.829 -2.617,3.444 0,0.974 0.447,1.976 1.197,2.679 0.421,0.396 0.906,0.673 1.42,0.82 v 0.188 l 1.066,-0.071 c 1.463,-0.094 2.938,-0.219 4.418,-0.344 5.319,-0.452 10.819,-0.916 16.023,0.146 3.202,0.656 5.636,1.718 7.439,3.247 2.137,1.811 3.899,4.297 5.098,7.19 2.317,5.598 2.318,12.047 0,17.252 -2.24,5.035 -6.779,8.824 -12.451,10.396 -5.66,1.564 -11.487,0.674 -16.011,-2.454 l -0.321,-0.253 -0.021,0.026 c -1.68,-0.99 -3.527,-0.202 -4.533,1.152 -0.971,1.305 -1.191,3.225 0.166,4.509 l -0.039,0.052 0.632,0.443 c 4.266,3.603 5.908,9.71 4.184,15.7 -1.315,4.57 -4.451,8.295 -9.067,10.772 -6.146,3.298 -14.505,4.047 -21.297,1.906 -6.188,-1.95 -11.143,-6.181 -13.255,-11.315 -2.344,-5.7 -1.749,-12.063 1.515,-16.211 1.092,-1.39 1.27,-2.955 0.486,-4.295 -0.598,-1.021 -1.865,-1.831 -3.136,-1.831 -0.361,0 -0.723,0.065 -1.069,0.21 l -0.436,0.183 -0.21,-0.36 -0.525,0.667 c -0.956,0.399 -1.915,0.8 -2.879,1.196 -0.141,-0.388 -0.354,-0.749 -0.646,-1.067 -0.896,-0.98 -2.346,-1.426 -3.685,-1.127 -1.258,0.276 -2.21,1.162 -2.611,2.429 -0.288,0.907 -0.558,1.824 -0.827,2.74 -4.211,1.458 -8.498,2.621 -12.873,3.092 -7.006,0.749 -13.095,-0.373 -18.099,-3.346 -2.95,-1.75 -8.107,-5.645 -9.504,-12.051 -0.947,-4.341 0.625,-8.951 4.204,-12.334 3.626,-3.427 8.509,-4.891 12.883,-3.897 l 0.631,0.447 0.109,-0.26 c 1.668,0.387 3.185,-0.324 3.903,-1.839 0.678,-1.426 0.496,-3.483 -1.142,-4.709 l 0.072,-0.171 -0.51,-0.142 c -6.813,-4.854 -13.232,-10.414 -19.113,-16.56 -4.366,-4.563 -9.8,-10.243 -9.077,-16.679 0.509,-4.525 4.485,-7.466 8.038,-8.709 11.865,-4.155 22.118,5.468 29.816,13.268 l -0.026,0.244 0.19,-0.078 c 0.353,0.357 0.7,0.711 1.041,1.06 0.975,0.991 2.304,1.323 3.566,0.888 z"
     id="path1064" /><path
     d="m 2074.768,1179.144 c 0.372,0 0.746,-0.01 1.117,-0.027 2.988,-0.149 5.338,-0.911 7.182,-2.328 1.84,-1.413 3.181,-3.516 3.877,-6.08 1.205,-4.434 0.802,-9.417 0.316,-13.264 -0.781,-6.189 -3.52,-17.309 -13.073,-22.228 -6.887,-3.547 -16.816,-3.672 -22.478,2.946 v 10e-4 c -0.897,1.05 -1.183,2.354 -0.859,3.511 -0.207,0.022 -0.413,0.062 -0.614,0.12 -1.163,0.333 -2.008,1.239 -2.318,2.484 -2.12,8.515 0.408,17.938 6.764,25.205 5.336,6.104 12.77,9.661 20.086,9.66 z m -19.883,-34.903 c 0.82,-0.106 1.538,-0.482 2.046,-1.076 3.953,-4.622 11.471,-3.837 16.015,-0.204 5.47,4.373 7.03,12.068 7.377,17.754 l 0.046,0.726 c 0.185,2.845 0.415,6.385 -0.944,8.735 -1.205,2.085 -4.576,1.982 -7.19,1.528 -5.579,-0.969 -10.925,-4.64 -14.3,-9.819 -3.192,-4.901 -4.296,-10.635 -3.027,-15.73 0.163,-0.664 0.153,-1.316 -0.023,-1.914 z"
     id="path1066" /></g>
</svg>
