<?xml version="1.0" encoding="UTF-8" standalone="no"?>
<!-- Generator: Adobe Illustrator 16.0.3, SVG Export Plug-In . SVG Version: 6.00 Build 0)  -->

<svg
   version="1.1"
   id="Layer_1"
   x="0px"
   y="0px"
   width="133.53459"
   height="150.21715"
   viewBox="0 0 133.53459 150.21715"
   enable-background="new 0 0 3200 1400"
   xml:space="preserve"
   xmlns="http://www.w3.org/2000/svg"
   xmlns:svg="http://www.w3.org/2000/svg"><defs
   id="defs1121" />

<g
   id="g10873"
   transform="translate(-481.0619,-1110.0219)"><g
     id="g1040">
				<path
   fill="#ff4000"
   d="m 559.144,1140.933 c 5.091,-8.716 1.18,-21.407 -7.933,-25.746 -9.113,-4.339 -21.431,0.627 -24.986,10.073 -2.601,6.91 -0.834,14.64 -1.69,21.974 -5.872,-5.983 -12.196,-12.23 -20.352,-14.173 -8.155,-1.943 -18.423,2.534 -19.443,10.855 -0.72,5.869 3.181,11.238 7.18,15.596 5.839,6.362 12.362,12.097 19.42,17.073 -8.884,-2.583 -19.213,4.684 -19.782,13.918 -0.644,10.45 9.743,18.923 20.148,20.085 10.405,1.162 20.594,-2.957 30.255,-6.994 -4.911,6.093 -4.334,15.559 0.419,21.775 4.753,6.217 12.922,9.261 20.741,8.94 7.779,-0.319 15.692,-4.047 19.654,-10.749 3.962,-6.702 2.944,-16.375 -3.232,-21.116 8.274,5.919 21.05,3.767 27.295,-4.265 6.245,-8.032 5.402,-20.561 -1.521,-28.016 -6.923,-7.454 -19.5,-5.286 -28.053,-4.755 8.306,-0.451 23.418,-17.669 15.116,-28.657 -8.895,-11.774 -25.943,-3.719 -33.236,4.182 z"
   id="path1036" />
				<path
   fill="#f7f2e0"
   d="m 534.939,1154.51 c 4.732,-5.705 14.523,-4.57 19.699,0.736 5.175,5.306 6.591,13.252 6.46,20.663 -0.051,2.894 -0.482,6.143 -2.779,7.903 -1.441,1.104 -3.349,1.384 -5.165,1.393 -13.012,0.064 -24.03,-14.088 -20.777,-26.686 z"
   id="path1038" />
			</g><path
     d="m 612.193,1196.355 c 3.204,-6.774 3.205,-15.3 10e-4,-22.25 -2.787,-6.048 -7.647,-10.281 -13.684,-11.921 -2.515,-0.683 -5.064,-0.984 -7.617,-1.07 2.986,-3.296 6.477,-8.343 7.321,-14.542 0.868,-6.373 -1.774,-12.265 -7.248,-16.165 -4.59,-3.271 -11.05,-4.066 -17.721,-2.179 -2.871,0.812 -5.664,2.003 -8.276,3.513 -0.042,-2.044 -0.355,-4.113 -0.946,-6.146 -1.688,-5.808 -5.487,-10.638 -10.423,-13.252 -4.981,-2.639 -11.178,-3.048 -17.006,-1.123 -5.828,1.925 -10.566,5.948 -13,11.04 -2.55,5.335 -2.49,11.058 -2.433,16.592 0,0.05 0.001,0.1 0.001,0.149 -8.599,-7.588 -17.986,-12.667 -28.606,-8.633 -6.291,2.389 -10.526,7.14 -11.33,12.708 -1.132,7.838 3.788,14.336 8.75,19.658 3.52,3.775 7.351,7.382 11.451,10.783 -2.406,0.833 -4.705,2.15 -6.755,3.917 -4.863,4.189 -7.339,10.202 -6.623,16.082 0.746,6.116 4.403,11.729 10.3,15.806 5.356,3.703 11.977,5.439 19.154,5.018 3.629,-0.212 7.193,-0.912 10.622,-1.854 -3.193,14.191 -4.077,29.286 -2.536,44.238 0.213,2.069 1.699,3.515 3.612,3.515 0.992,0 2.05,-0.489 2.762,-1.278 0.638,-0.707 0.94,-1.574 0.851,-2.441 -1.472,-14.285 -0.738,-28.188 2.157,-41.48 0.1,2.212 0.526,4.429 1.315,6.563 2.504,6.767 8.257,12.133 15.784,14.722 3.056,1.052 6.371,1.568 9.714,1.568 4.963,0 9.986,-1.14 14.3,-3.362 5.963,-3.071 10.04,-7.816 11.79,-13.722 1.133,-3.825 1.134,-7.848 0.163,-11.491 2.898,0.293 5.914,0.054 8.901,-0.738 6.885,-1.828 12.445,-6.283 15.255,-12.225 z m -67.109,5.413 c -0.597,-1.021 -1.864,-1.831 -3.135,-1.831 -0.361,0 -0.723,0.065 -1.069,0.21 l -0.437,0.183 -0.211,-0.362 -0.526,0.67 c -0.672,0.281 -1.355,0.566 -2.047,0.852 -0.442,-0.813 -1.213,-1.412 -2.088,-1.688 -1.727,-0.546 -3.946,0.084 -4.658,2.331 -0.232,0.732 -0.449,1.473 -0.667,2.212 -8.189,2.827 -16.965,4.468 -24.675,0.803 -2.718,-1.291 -7.578,-4.227 -9.588,-9.379 -1.578,-4.044 -0.834,-8.347 1.989,-11.51 3.168,-3.552 7.763,-5.207 11.859,-4.319 l 0.625,0.442 0.11,-0.26 c 1.665,0.378 3.187,-0.333 3.908,-1.854 0.673,-1.419 0.487,-3.469 -1.148,-4.693 l 0.073,-0.172 -0.512,-0.142 c -5.246,-3.743 -10.231,-7.969 -14.826,-12.564 l -0.755,-0.753 c -3.694,-3.675 -8.292,-8.249 -8.978,-13.477 -0.488,-3.718 1.676,-7.063 5.79,-8.948 3.72,-1.706 8.11,-1.682 12.36,0.065 5.544,2.278 10.013,6.631 14.289,10.977 l -0.027,0.245 0.19,-0.079 c 0.217,0.221 0.433,0.441 0.649,0.661 l 0.392,0.398 c 0.976,0.995 2.309,1.329 3.567,0.891 1.396,-0.483 2.444,-1.823 2.609,-3.333 0.291,-2.663 0.231,-5.383 0.174,-8.013 -0.084,-3.877 -0.164,-7.54 0.764,-11.116 1.051,-4.048 3.864,-7.379 7.921,-9.38 3.688,-1.816 7.921,-2.116 11.614,-0.823 3.352,1.176 6.297,4.133 7.879,7.912 1.894,4.521 1.717,9.331 -0.484,13.194 -0.988,1.733 -0.41,3.424 0.761,4.44 0.488,0.466 1.089,0.805 1.741,0.955 0.827,0.189 1.656,0.056 2.378,-0.373 0.396,-0.214 0.762,-0.521 1.077,-0.934 2.988,-3.124 6.661,-5.59 10.642,-7.142 3.4,-1.323 8.308,-2.531 12.391,-0.759 1.958,0.851 3.665,2.295 4.806,4.067 0.998,1.55 1.406,3.037 1.364,4.972 -0.033,1.578 -0.568,3.761 -1.331,5.432 -0.895,1.959 -2.122,3.915 -3.456,5.508 -0.819,0.979 -1.704,1.907 -2.627,2.756 -0.982,0.901 -1.51,1.319 -2.454,1.946 -0.413,0.273 -0.834,0.533 -1.266,0.771 -0.206,0.114 -0.415,0.224 -0.612,0.323 l -0.199,0.089 c -0.093,0.041 -0.209,0.093 -0.329,0.157 -0.354,0.136 -0.686,0.244 -1.007,0.329 -0.131,0.034 -0.263,0.063 -0.395,0.092 l -0.168,0.037 c -0.036,0 -0.072,0 -0.108,0.01 -0.007,0 -0.015,10e-4 -0.022,10e-4 l -0.936,0.06 v 0.113 c -1.542,0.476 -2.618,1.83 -2.618,3.443 0,0.976 0.448,1.978 1.198,2.681 0.421,0.396 0.906,0.673 1.42,0.819 v 0.188 l 1.066,-0.073 c 1.253,-0.08 2.511,-0.184 3.77,-0.287 4.116,-0.339 8.373,-0.688 12.481,-0.176 2.662,0.333 4.937,1.063 6.759,2.169 1.865,1.133 3.486,2.947 4.818,5.393 2.55,4.682 2.969,10.456 1.122,15.446 -1.645,4.442 -4.897,7.78 -9.158,9.398 -5.394,2.047 -11.206,1.473 -15.579,-1.529 l -0.324,-0.256 -0.021,0.028 c -1.682,-0.993 -3.536,-0.194 -4.548,1.167 -1.116,1.5 -1.025,3.339 0.18,4.492 l -0.041,0.053 0.615,0.43 c 3.206,2.74 4.708,7.183 3.929,11.707 -0.808,4.687 -3.971,8.667 -8.906,11.209 -9.012,4.643 -23.058,2.669 -28.36,-6.924 -2.281,-4.127 -3.087,-10.67 0.531,-15.283 1.091,-1.391 1.268,-2.957 0.485,-4.293 z"
     id="path1068" /><path
     d="m 553.04,1188.823 c 4.47,0 8.005,-1.714 9.845,-4.83 2.053,-3.478 1.985,-7.919 1.761,-11.809 -0.394,-6.818 -2.41,-16.078 -9.777,-21.469 -6.328,-4.633 -16.745,-5.454 -22.538,1.292 -0.768,0.893 -1.081,2.002 -0.944,3.039 -0.064,0.015 -0.127,0.031 -0.191,0.05 -1.16,0.334 -2.003,1.24 -2.312,2.486 -1.672,6.748 -0.134,14.132 4.22,20.259 4.457,6.27 11.095,10.242 18.214,10.9 0.588,0.055 1.161,0.082 1.722,0.082 z M 535.95,1158 c 0.632,-0.167 1.184,-0.505 1.599,-0.988 3.132,-3.646 8.417,-3.142 12.001,-1.129 5.541,3.108 7.174,10.125 7.655,14.03 0.371,3.017 0.627,6.182 -0.009,8.896 -0.189,0.807 -0.471,1.695 -1.129,2.178 -0.86,0.629 -2.239,0.635 -3.58,0.592 -4.562,-0.156 -9.174,-2.627 -12.654,-6.781 -3.695,-4.409 -5.213,-10.288 -3.961,-15.342 0.124,-0.498 0.148,-0.989 0.078,-1.456 z"
     id="path1070" /></g>
</svg>
