<?xml version="1.0" encoding="UTF-8" standalone="no"?>
<!-- Generator: Adobe Illustrator 16.0.3, SVG Export Plug-In . SVG Version: 6.00 Build 0)  -->

<svg
   version="1.1"
   id="Layer_1"
   x="0px"
   y="0px"
   width="435.70847"
   height="755.961"
   viewBox="0 0 435.70847 755.961"
   enable-background="new 0 0 3200 1400"
   xml:space="preserve"
   sodipodi:docname="girl_yellowhair_pinkskin_520game.svg"
   inkscape:version="1.2.1 (9c6d41e410, 2022-07-14)"
   xmlns:inkscape="http://www.inkscape.org/namespaces/inkscape"
   xmlns:sodipodi="http://sodipodi.sourceforge.net/DTD/sodipodi-0.dtd"
   xmlns="http://www.w3.org/2000/svg"
   xmlns:svg="http://www.w3.org/2000/svg"><sodipodi:namedview
   id="namedview1429"
   pagecolor="#ffffff"
   bordercolor="#666666"
   borderopacity="1.0"
   inkscape:showpageshadow="2"
   inkscape:pageopacity="0.0"
   inkscape:pagecheckerboard="0"
   inkscape:deskcolor="#d1d1d1"
   showgrid="false"
   inkscape:zoom="0.89956654"
   inkscape:cx="218.43854"
   inkscape:cy="325.71243"
   inkscape:window-width="1920"
   inkscape:window-height="1009"
   inkscape:window-x="-8"
   inkscape:window-y="-8"
   inkscape:window-maximized="1"
   inkscape:current-layer="Layer_1" /><defs
   id="defs1121" />

<g
   id="g520"
   transform="translate(-1566.9954,-361.24825)">
			<g
   id="g352">
				<g
   id="g344">
					<path
   fill="#ffa600"
   d="m 1708.24,702.917 c -14.871,5.934 -8.97,25.698 7.376,33.3 -19.223,-0.158 -18.936,15.085 -14.144,26.839 -18.063,-8.799 -33.325,10.11 -23.207,24.887 -13.964,14.465 -35.859,15.08 -64.955,8.493 6.286,11.545 31.121,19.474 31.121,19.474 0,0 -6.254,17.087 -28.318,19.482 31.718,11.507 62.154,3.582 78.004,-35.854 11.908,4.868 26.577,-8.147 19.543,-24.015 24.171,7.155 36.45,-22.47 20.465,-35.524 25.691,-7.564 33.566,-38.792 6.93,-47.332 32.596,-17.058 -39.285,-9.184 -32.815,10.25 z"
   id="path340" />
					<path
   d="m 1641.58,843.762 c -8.346,0 -17.273,-1.674 -26.66,-5.08 -1.531,-0.555 -2.477,-2.093 -2.281,-3.709 0.194,-1.616 1.479,-2.885 3.097,-3.061 14.058,-1.526 20.935,-9.482 23.766,-14.035 -7.559,-2.852 -23.925,-9.962 -29.265,-19.768 -0.657,-1.208 -0.547,-2.688 0.282,-3.785 0.83,-1.096 2.226,-1.604 3.564,-1.303 29.27,6.626 47.885,4.892 59.766,-5.686 -3.807,-7.548 -2.849,-16.415 2.701,-22.848 4.914,-5.696 12.121,-8.096 19.533,-6.833 -1.592,-6.982 -0.906,-13.165 2.063,-17.542 1.871,-2.759 4.516,-4.753 7.903,-5.971 -6.224,-5.418 -10.032,-12.736 -9.838,-19.743 0.161,-5.791 3.092,-10.581 8.148,-13.488 -0.154,-4.418 2.283,-11.146 15.854,-16.488 9.387,-3.695 29.191,-7.876 32.429,-0.792 1.531,3.353 -0.901,6.286 -3.97,8.556 7.993,4.577 12.531,11.98 12.426,20.733 -0.142,11.864 -8.456,22.992 -20.79,28.519 5.382,7.256 6.134,17.229 1.529,25.94 -4.659,8.813 -13.394,13.41 -23.188,12.628 1.122,6.678 -0.774,13.242 -5.438,18.044 -4.645,4.782 -11.057,6.857 -17.072,5.715 -11.469,26.223 -30.62,39.997 -54.559,39.997 z m -12.195,-8.286 c 19.853,3.855 46.37,0.364 61.485,-37.244 0.347,-0.864 1.025,-1.555 1.883,-1.918 0.86,-0.361 1.826,-0.369 2.688,-0.016 4.227,1.728 9.229,0.501 12.748,-3.123 4.07,-4.19 4.919,-10.26 2.271,-16.233 -0.554,-1.248 -0.331,-2.703 0.569,-3.729 0.9,-1.026 2.319,-1.433 3.623,-1.047 10.669,3.158 17.841,-2.091 20.996,-8.059 3.263,-6.172 3.484,-15.5 -3.737,-21.398 -1.006,-0.821 -1.474,-2.131 -1.217,-3.403 0.257,-1.272 1.197,-2.299 2.442,-2.665 13.623,-4.011 20.856,-15.011 20.962,-23.804 0.093,-7.796 -5.051,-13.933 -14.112,-16.838 -1.344,-0.431 -2.298,-1.626 -2.419,-3.033 -0.121,-1.406 0.614,-2.747 1.864,-3.401 2.197,-1.15 3.696,-2.077 4.712,-2.789 -6.7,-0.266 -22.427,2.722 -29.751,8.783 -3.852,3.188 -3.11,5.414 -2.832,6.252 0.586,1.759 -0.302,3.67 -2.023,4.356 -4.031,1.608 -6.22,4.522 -6.328,8.427 -0.164,5.883 4.552,14.109 13.883,18.448 1.494,0.694 2.301,2.337 1.938,3.943 -0.36,1.598 -1.779,2.73 -3.414,2.73 -0.112,-0.002 -0.201,-10e-4 -0.299,-10e-4 -5.604,0 -9.431,1.455 -11.379,4.327 -2.518,3.712 -2.228,10.325 0.775,17.691 0.548,1.344 0.21,2.886 -0.85,3.877 -1.059,0.99 -2.619,1.226 -3.925,0.591 -8.107,-3.949 -14.661,-1.114 -18.09,2.859 -3.156,3.657 -5.231,10.279 -0.696,16.903 0.938,1.371 0.784,3.213 -0.369,4.408 -12.086,12.52 -29.958,16.247 -57.158,11.679 7.263,5.111 17.328,9.069 21.872,10.523 0.908,0.291 1.659,0.939 2.078,1.795 0.419,0.856 0.471,1.847 0.144,2.742 -0.226,0.621 -4.647,12.245 -18.334,18.367 z"
   id="path342" />
				</g>
				<g
   id="g350">
					<path
   fill="#ff3300"
   d="m 1676.793,784.625 c 0,0 -17.153,2.429 -13.662,11.486 4.373,12.815 22.478,23.16 22.478,23.16 0,0 14.852,-3.362 10.078,-19.547 -6.997,-2.05 -18.894,-15.099 -18.894,-15.099 z"
   id="path346" />
					<path
   d="m 1685.608,822.771 c -0.604,0 -1.204,-0.156 -1.736,-0.461 -0.785,-0.448 -19.254,-11.129 -24.032,-25.007 -1.064,-2.812 -0.874,-5.577 0.551,-8.003 3.667,-6.242 14.669,-7.965 15.912,-8.142 1.14,-0.156 2.297,0.253 3.076,1.107 4.35,4.767 12.89,12.809 17.292,14.1 1.143,0.335 2.036,1.227 2.373,2.368 1.776,6.025 1.389,11.278 -1.154,15.611 -3.836,6.537 -11.197,8.269 -11.509,8.34 -0.255,0.059 -0.515,0.087 -0.773,0.087 z m -10.068,-34.363 c -3.536,0.764 -7.915,2.393 -9.115,4.44 -0.251,0.429 -0.428,0.968 -0.028,2.004 0.017,0.043 0.032,0.085 0.047,0.129 2.974,8.716 14.146,17.081 19.6,20.472 1.567,-0.617 4.286,-2.016 5.838,-4.699 1.294,-2.238 1.583,-5.064 0.863,-8.416 -6.256,-2.871 -14.031,-10.605 -17.205,-13.93 z"
   id="path348" />
				</g>
			</g>
			<g
   id="g430">
				<g
   id="g364">
					<g
   id="g356">
						<path
   d="m 1709.653,916.667 c -0.634,0 -1.273,-0.171 -1.851,-0.531 -6.649,-4.15 -21.324,-17.079 -21.945,-17.628 -1.449,-1.278 -1.588,-3.49 -0.309,-4.939 1.279,-1.451 3.491,-1.588 4.939,-0.309 0.148,0.13 14.86,13.093 21.021,16.938 1.64,1.023 2.139,3.183 1.115,4.822 -0.661,1.064 -1.803,1.647 -2.97,1.647 z"
   id="path354" />
					</g>
					<g
   id="g362">
						<path
   fill="#ff4000"
   d="m 1690.833,897.088 c -21.028,16.832 -45.847,44.902 -52.689,32.911 -13.129,-23.006 24.127,-66.596 52.689,-32.911 z"
   id="path358" />
						<path
   d="m 1642.935,936.389 c -0.521,0 -1.03,-0.04 -1.527,-0.121 -2.681,-0.438 -4.86,-2.005 -6.304,-4.534 -8.362,-14.653 0.704,-34.781 14.419,-44.386 11.417,-7.997 28.965,-10.23 43.98,7.477 0.611,0.721 0.904,1.659 0.813,2.6 -0.091,0.941 -0.559,1.806 -1.296,2.396 -5.109,4.09 -10.529,8.927 -15.77,13.604 -13.747,12.269 -25.729,22.964 -34.315,22.964 z m 24.869,-48.109 c -6.306,0 -11.444,2.825 -14.266,4.801 -10.96,7.676 -18.729,24.013 -12.354,35.184 0.508,0.89 0.964,1.031 1.352,1.095 5.403,0.884 19.057,-11.343 30.055,-21.157 4.342,-3.876 8.805,-7.858 13.161,-11.482 -6.352,-6.387 -12.574,-8.441 -17.948,-8.441 z"
   id="path360" />
					</g>
				</g>
				<g
   id="g376">
					<g
   id="g368">
						<path
   d="m 1827.243,970.572 c -0.423,0 -0.854,-0.077 -1.272,-0.24 -17.862,-6.975 -31.868,-11.349 -32.008,-11.393 -1.846,-0.574 -2.876,-2.536 -2.302,-4.382 0.574,-1.846 2.534,-2.879 4.382,-2.302 0.141,0.044 14.367,4.485 32.475,11.555 1.8,0.703 2.689,2.733 1.987,4.533 -0.54,1.384 -1.862,2.229 -3.262,2.229 z"
   id="path366" />
					</g>
					<g
   id="g374">
						<path
   fill="#ff4000"
   d="m 1796.914,954.705 c -12.001,26.264 -16.272,61.5 -28.773,53.539 -25.026,-15.935 -8.168,-70.702 28.773,-53.539 z"
   id="path370" />
						<path
   d="m 1771.598,1012.886 c -1.529,0 -3.344,-0.42 -5.337,-1.689 -15.686,-9.988 -16.598,-32.234 -8.448,-47.118 6.627,-12.102 20.769,-21.75 40.576,-12.547 1.745,0.811 2.509,2.878 1.709,4.629 -3.797,8.308 -6.885,17.786 -9.609,26.147 -5.209,15.987 -8.973,27.538 -16.083,30.089 -0.763,0.273 -1.713,0.489 -2.808,0.489 z m 11.752,-57.921 c -8.045,0 -14.909,4.279 -19.397,12.476 -6.664,12.17 -5.815,30.284 6.068,37.852 1.247,0.795 1.79,0.599 2.021,0.515 3.881,-1.392 8.083,-14.288 11.791,-25.667 2.431,-7.46 5.145,-15.79 8.433,-23.557 -3.083,-1.085 -6.075,-1.619 -8.916,-1.619 z"
   id="path372" />
					</g>
				</g>
				<g
   id="g386">
					<g
   id="g384">
						<g
   id="g382">
							<path
   fill="#33a97f"
   d="m 1875.013,881.92 c 8.86,24.774 26.614,103.594 11.955,113.629 -14.658,10.037 -75.364,-9.995 -75.364,-9.995 0,0 -4.102,-25.006 8.313,-32.807 7.337,2.483 18.04,4.825 18.04,4.825 0,0 1.914,-18.51 -11.509,-32.063 -13.489,1.047 -32.262,-3.862 -32.262,-3.862 0,0 -22.7,32.721 -55.298,35.926 -32.616,3.2 -47.396,-33.267 -47.396,-33.267 0,0 9.725,-17.475 21.196,-21.41 8.01,4.765 18.283,10.866 18.283,10.866 0,0 15.789,-10.034 22.65,-32.474 62.84,19.436 121.392,0.632 121.392,0.632 z"
   id="path378" />
							<path
   d="m 1873.253,1001.791 c -22.777,10e-4 -57.799,-11.281 -62.746,-12.914 -1.238,-0.408 -2.146,-1.471 -2.357,-2.757 -0.183,-1.114 -4.314,-27.402 9.905,-36.337 0.892,-0.56 1.99,-0.689 2.984,-0.352 4.243,1.437 9.727,2.843 13.45,3.741 -0.288,-5.531 -1.924,-15.728 -9.461,-24.073 -10.925,0.484 -24.129,-2.27 -29.407,-3.5 -5.624,7.35 -26.915,32.557 -56.39,35.456 -1.479,0.145 -2.928,0.215 -4.339,0.215 -31.813,0.002 -46.493,-35.277 -46.645,-35.65 -0.397,-0.981 -0.329,-2.091 0.186,-3.017 0.424,-0.761 10.522,-18.697 23.119,-23.019 0.97,-0.334 2.042,-0.224 2.925,0.303 5.854,3.481 12.915,7.677 16.293,9.684 4.054,-3.201 14.424,-12.689 19.505,-29.307 0.271,-0.89 0.887,-1.634 1.709,-2.069 0.822,-0.435 1.784,-0.525 2.672,-0.251 20.933,6.475 41.468,8.608 59.434,8.608 34.454,0.002 59.475,-7.844 59.853,-7.965 1.795,-0.576 3.729,0.375 4.366,2.153 4.467,12.49 11.229,38.811 14.961,62.986 7.225,46.804 -1.468,52.754 -4.325,54.709 -3.514,2.408 -9.09,3.356 -15.692,3.356 z m -58.474,-18.885 c 23.098,7.406 60.862,16.153 70.211,9.755 3.826,-2.619 6.192,-16.568 1.36,-47.865 -3.377,-21.879 -9.254,-45.47 -13.565,-58.577 -13.131,3.618 -62.747,15.093 -116.915,-0.604 -7.595,21.1 -22.365,30.684 -23.021,31.101 -1.114,0.708 -2.529,0.729 -3.664,0.056 0,0 -9.059,-5.38 -16.796,-9.981 -7.057,3.304 -13.911,12.739 -16.959,17.721 3.163,6.579 17.173,32.118 43.117,29.578 30.56,-3.006 52.547,-34.126 52.766,-34.439 0.839,-1.204 2.344,-1.757 3.759,-1.39 0.183,0.049 18.368,4.749 31.106,3.76 1.019,-0.076 2.033,0.296 2.758,1.026 14.422,14.563 12.588,34.063 12.503,34.887 -0.103,0.991 -0.623,1.892 -1.431,2.476 -0.808,0.584 -1.826,0.798 -2.799,0.583 -0.411,-0.09 -9.438,-2.073 -16.673,-4.36 -6.495,5.598 -6.525,19.229 -5.757,26.273 z"
   id="path380" />
						</g>
					</g>
				</g>
				<g
   id="g400">
					<g
   id="g398">
						<g
   id="g396">
							<g
   id="g394">
								<g
   id="g392">
									<path
   fill="#fc9463"
   d="m 1778.888,744.253 c 0,0 13.654,-2.706 21.381,-4.798 -0.121,-8.117 -1.765,-18.486 -1.765,-18.486 l 19.354,-4.091 c 0,0 1.975,14.612 2.354,19.916 5.235,0.803 20.735,2.454 24.647,2.482 0,0 7.306,38.643 -30.281,41.18 -9.892,0.678 -40.144,-9.565 -35.69,-36.203 z"
   id="path388" />
									<path
   d="m 1813.622,783.987 c -7.858,0 -22.07,-4.641 -30.693,-14.146 -6.556,-7.227 -9.146,-16.274 -7.493,-26.165 0.24,-1.436 1.344,-2.573 2.771,-2.856 0.121,-0.023 10.815,-2.148 18.469,-4.051 -0.365,-7.219 -1.614,-15.162 -1.629,-15.252 -0.292,-1.841 0.91,-3.587 2.733,-3.973 l 19.354,-4.091 c 0.952,-0.197 1.945,0.003 2.74,0.564 0.796,0.561 1.321,1.427 1.452,2.392 0.069,0.514 1.475,10.938 2.121,17.302 6.658,0.862 18.365,2.043 21.437,2.065 1.673,0.012 3.103,1.206 3.414,2.85 0.147,0.785 3.514,19.366 -6.786,32.685 -5.866,7.586 -14.85,11.838 -26.699,12.638 -0.377,0.025 -0.776,0.038 -1.191,0.038 z m -31.58,-36.8 c -0.58,6.835 1.457,12.865 6.071,17.951 8.121,8.952 21.282,12.181 26.226,11.826 9.752,-0.658 17.022,-3.99 21.611,-9.903 6.321,-8.145 6.235,-19.352 5.798,-24.437 -6.187,-0.437 -17.692,-1.7 -22.066,-2.37 -1.615,-0.248 -2.845,-1.58 -2.961,-3.211 -0.25,-3.495 -1.23,-11.291 -1.837,-15.959 l -12.449,2.631 c 0.509,3.789 1.252,10.183 1.334,15.688 0.023,1.6 -1.041,3.012 -2.585,3.43 -5.838,1.581 -14.821,3.47 -19.142,4.354 z"
   id="path390" />
								</g>
							</g>
						</g>
					</g>
				</g>
				<g
   id="g416">
					<g
   id="g414">
						<g
   id="g406">
							<path
   fill="#f8688d"
   d="m 1778.888,744.253 c -6.777,1.672 -10.735,2.72 -21.288,4.876 1.146,8.572 -3.766,101.651 -19.846,124.473 21.158,27.344 138.343,22.96 160.969,7.687 -4.576,-11.109 -30.257,-140.865 -30.775,-142.921 -9.129,1.152 -17.156,1.231 -23.088,0.909 6.936,44.16 -61.353,45.896 -65.972,4.976 z"
   id="path402" />
							<path
   d="m 1822,896.952 c -1.447,0 -2.896,-0.009 -4.354,-0.026 -20.11,-0.238 -68.422,-2.78 -82.66,-21.183 -0.94,-1.215 -0.979,-2.901 -0.094,-4.157 15.291,-21.701 20.342,-113.732 19.238,-121.993 -0.244,-1.824 0.966,-3.524 2.769,-3.893 9.161,-1.872 13.379,-2.919 18.718,-4.243 l 2.433,-0.603 c 0.977,-0.241 2.011,-0.05 2.838,0.526 0.826,0.575 1.365,1.479 1.478,2.479 1.66,14.705 11.909,21.091 17.871,23.588 11.226,4.705 24.469,3.398 32.947,-3.248 7.018,-5.502 9.859,-13.933 8.218,-24.381 -0.163,-1.044 0.152,-2.105 0.861,-2.89 0.708,-0.783 1.738,-1.19 2.787,-1.148 4.921,0.27 12.809,0.332 22.459,-0.887 1.764,-0.223 3.398,0.901 3.832,2.616 0.101,0.399 0.536,2.547 2.354,11.561 6.087,30.18 24.612,122.021 28.264,130.884 0.633,1.536 0.099,3.305 -1.278,4.234 -11.301,7.629 -43.265,12.763 -78.681,12.764 z m -79.877,-23.709 c 10.166,9.907 38.61,16.244 75.606,16.684 32.49,0.377 64.374,-3.942 76.79,-10.237 -4.691,-16.11 -17.859,-80.517 -27.687,-129.233 -0.663,-3.291 -1.251,-6.203 -1.666,-8.247 -6.45,0.663 -12.043,0.788 -16.393,0.711 0.665,11.1 -3.259,20.506 -11.271,26.789 -10.412,8.162 -26.476,9.85 -39.972,4.196 -11.299,-4.733 -18.96,-13.847 -21.476,-25.345 -4.278,1.06 -8.124,1.99 -14.82,3.391 0.275,18.464 -4.533,96.009 -19.111,121.291 z"
   id="path404" />
						</g>
						<g
   id="g412">
							<path
   fill="#4dbbc5"
   d="m 1830.42,805.647 c -4.609,-0.547 -7.785,-17.008 -14.786,-14.332 -4.044,1.532 -2.294,13.905 -7.029,15.631 -5.646,2.066 -16.917,2.492 -16.955,6.729 -0.029,6.103 16.534,7.76 13.319,13.527 -4.693,8.395 -4.86,18.128 -1.91,19.84 5.334,3.117 14.862,-9.964 21.129,-11.529 6.98,-1.75 23.84,11.813 24.573,4.492 0.531,-5.27 -11.745,-13.493 -9.511,-17.736 4.318,-8.198 12.549,-18.404 6.685,-19.181 -5.869,-0.782 -11.232,3.081 -15.515,2.559 z"
   id="path408" />
							<path
   d="m 1804.84,851.034 c -1.202,10e-4 -2.39,-0.293 -3.548,-0.97 -5.576,-3.236 -4.385,-15.306 0.396,-24.158 -0.85,-0.743 -2.962,-1.813 -4.299,-2.488 -4.127,-2.09 -9.265,-4.689 -9.24,-9.759 0.052,-5.739 7.081,-7.211 13.282,-8.51 2.181,-0.456 4.437,-0.929 5.97,-1.49 0.656,-0.551 1.281,-3.88 1.617,-5.668 0.785,-4.188 1.598,-8.517 5.375,-9.948 6.909,-2.646 10.992,4.654 13.697,9.479 0.904,1.615 2.246,4.009 3.021,4.672 1.226,0.051 2.942,-0.494 4.769,-1.062 2.926,-0.908 6.567,-2.04 10.517,-1.514 2.842,0.377 4.055,2.076 4.524,3.057 1.831,3.822 -1.224,8.856 -5.091,15.23 -1.15,1.897 -2.338,3.854 -3.31,5.666 0.356,1.159 2.521,3.734 3.845,5.31 3.088,3.674 6.28,7.473 5.877,11.476 -0.271,2.715 -1.832,4.005 -2.738,4.532 -3.445,2.003 -8.057,-0.041 -13.896,-2.63 -3.442,-1.526 -8.648,-3.827 -10.57,-3.351 -1.799,0.449 -4.799,2.927 -7.445,5.112 -4.035,3.334 -8.491,7.014 -12.753,7.014 z m 0.272,-6.776 z m -0.125,-0.222 c 0,0 0.011,0 0.017,0 1.578,0 5.974,-3.629 8.132,-5.412 3.533,-2.917 6.87,-5.673 10.204,-6.505 4.255,-1.07 9.773,1.377 15.107,3.741 1.934,0.857 4.585,2.033 6.361,2.561 -0.853,-1.527 -2.685,-3.707 -3.801,-5.035 -3.496,-4.159 -7.111,-8.461 -4.854,-12.747 1.101,-2.09 2.419,-4.262 3.693,-6.363 1.455,-2.398 3.499,-5.767 4.292,-7.782 -2.047,0.04 -4.142,0.691 -6.181,1.325 -2.582,0.802 -5.248,1.633 -7.954,1.306 -3.684,-0.44 -5.79,-4.2 -8.021,-8.18 -1.265,-2.258 -3.558,-6.35 -4.876,-6.396 -0.481,0.851 -0.932,3.251 -1.209,4.732 -0.824,4.394 -1.759,9.373 -6.096,10.953 -2.005,0.734 -4.512,1.259 -6.937,1.767 -2.171,0.454 -5.982,1.253 -7.473,2.066 0.878,0.938 3.706,2.37 5.157,3.104 3.634,1.839 7.065,3.576 8.073,6.87 0.342,1.117 0.516,2.867 -0.598,4.865 -3.768,6.745 -3.835,13.399 -3.036,15.13 z m 11.898,-49.452 z"
   id="path410" />
						</g>
					</g>
				</g>
				<g
   id="g422">
					<path
   d="m 1867.943,741.867 c -1.761,0 -3.276,-1.324 -3.475,-3.114 -0.213,-1.921 1.171,-3.651 3.093,-3.864 38.711,-4.296 67.334,-29.496 84.529,-49.88 18.819,-22.308 28.478,-43.907 28.573,-44.123 0.78,-1.768 2.846,-2.567 4.615,-1.786 1.768,0.781 2.568,2.846 1.788,4.614 -0.402,0.912 -10.082,22.595 -29.498,45.657 -25.865,30.72 -56.723,48.866 -89.236,52.474 -0.13,0.015 -0.26,0.022 -0.389,0.022 z"
   id="path418" />
					<path
   d="m 1970.517,678.039 c -3.626,0 -7.199,-0.993 -10.489,-3.452 -15.627,-11.683 -6.574,-36.837 -6.181,-37.903 0.669,-1.814 2.687,-2.741 4.495,-2.072 1.812,0.669 2.739,2.679 2.073,4.491 v 0 c -0.078,0.212 -7.639,21.323 3.804,29.877 11.522,8.613 32.225,-12.88 32.431,-13.1 1.323,-1.409 3.537,-1.481 4.946,-0.161 1.41,1.321 1.484,3.533 0.165,4.944 -0.815,0.871 -16.462,17.375 -31.244,17.376 z"
   id="path420" />
				</g>
				<g
   id="g428">
					<path
   d="m 1735.713,754.203 c -39.736,0 -69.479,-15.604 -88.433,-29.964 -24.188,-18.326 -36.171,-38.127 -36.669,-38.961 -0.991,-1.659 -0.449,-3.808 1.21,-4.799 1.657,-0.991 3.806,-0.452 4.798,1.207 v 0 c 0.117,0.194 11.919,19.637 35.105,37.139 30.933,23.35 66.392,32.379 105.383,26.84 1.909,-0.283 3.686,1.059 3.957,2.973 0.272,1.914 -1.059,3.686 -2.973,3.957 -7.778,1.104 -15.239,1.608 -22.378,1.608 z"
   id="path424" />
					<path
   d="m 1624.795,717.121 c -14.447,0.002 -28.94,-13.454 -29.737,-14.204 -1.407,-1.325 -1.473,-3.541 -0.147,-4.948 1.328,-1.407 3.541,-1.472 4.948,-0.147 0.209,0.197 21.292,19.738 33.702,9.066 6.47,-5.565 2.086,-24.337 0.041,-30.475 -0.611,-1.833 0.378,-3.815 2.211,-4.427 1.835,-0.614 3.814,0.376 4.428,2.208 0.962,2.876 9.075,28.375 -2.115,38 -4.144,3.565 -8.736,4.926 -13.331,4.927 z"
   id="path426" />
				</g>
			</g>
			<g
   id="g518">
				<g
   id="g436">
					<path
   fill="#4dbbc5"
   d="m 1621.57,539.415 c -22.161,8.188 -55.993,29.644 -50.484,44.704 5.509,15.065 99.898,4.322 99.898,4.322 z"
   id="path432" />
					<path
   d="m 1610.227,595.657 c -33.932,0 -40.628,-5.417 -42.427,-10.336 -6.779,-18.532 30.886,-41.181 52.558,-49.188 1.278,-0.471 2.713,-0.159 3.678,0.798 l 49.415,49.025 c 0.956,0.948 1.283,2.361 0.842,3.632 -0.441,1.272 -1.573,2.178 -2.911,2.33 -0.237,0.027 -24.017,2.711 -48.164,3.509 -4.723,0.156 -9.042,0.23 -12.991,0.23 z m 10.482,-52.166 c -22.131,8.728 -50.383,28.363 -46.335,39.425 0.263,0.72 3.853,6.988 48.576,5.516 15.813,-0.521 31.478,-1.863 40.32,-2.716 z"
   id="path434" />
				</g>
				<g
   id="g508">
					<g
   id="g506">
						<g
   id="g442">
							<path
   fill="#ffa600"
   d="m 1626.765,532.413 c 12.054,-67.88 133.536,-86.518 133.536,-86.518 0,0 134.583,-40.268 166.821,33.335 39.039,6.157 39.835,47.14 17.817,51.195 22.989,3.422 15.427,49.158 -20.08,55.166 0,0 -84.035,11.948 -132.063,16.923 -46.644,12.464 -129.426,31.237 -129.426,31.237 -35.315,7.033 -58.68,-33.003 -38.42,-44.393 -22.012,4.056 -25.908,-38.662 1.815,-56.945 z"
   id="path438" />
							<path
   d="m 1655.063,638.076 c -19.328,10e-4 -34.276,-12.603 -39.368,-26.366 -2.733,-7.388 -2.247,-14.274 1.098,-19.446 -4.726,-1.614 -8.542,-5.451 -10.833,-11.142 -5.862,-14.567 -0.712,-37.827 17.637,-50.784 5.731,-28.359 30.975,-52.496 73.123,-69.875 30.77,-12.688 59.675,-17.493 62.812,-17.99 3.3,-0.97 35.514,-10.171 72.012,-11.011 49.885,-1.144 83.723,14.278 98.002,44.637 22.816,4.34 33.237,20.27 33.42,34.461 0.109,8.497 -3.365,15.675 -9.152,19.83 4.839,3.662 7.666,9.857 7.743,17.623 0.167,16.899 -12.432,37.022 -36.111,41.029 -0.931,0.133 -84.419,11.982 -132.011,16.924 -46.225,12.34 -128.461,31.011 -129.287,31.198 -3.117,0.621 -6.154,0.912 -9.085,0.912 z m -30.11,-52.219 c 1.45,0 2.78,0.904 3.289,2.31 0.582,1.609 -0.084,3.403 -1.576,4.242 -7.956,4.474 -5.732,13.29 -4.406,16.873 4.163,11.25 19.459,25.213 40.428,21.038 0.736,-0.168 83.161,-18.881 129.206,-31.186 0.178,-0.047 0.359,-0.081 0.543,-0.1 47.412,-4.911 131.091,-16.787 131.93,-16.907 20.992,-3.553 30.308,-22.049 30.188,-34.043 -0.038,-3.82 -1.101,-12.851 -10.13,-14.195 -1.692,-0.252 -2.954,-1.691 -2.983,-3.402 -0.03,-1.711 1.183,-3.192 2.865,-3.502 7.192,-1.325 11.769,-7.736 11.657,-16.333 -0.149,-11.635 -9.294,-24.793 -29.387,-27.962 -1.18,-0.186 -2.183,-0.959 -2.661,-2.053 -12.732,-29.07 -43.686,-43.268 -92.082,-42.177 -36.787,0.825 -70.197,10.691 -70.53,10.791 -0.154,0.046 -0.313,0.082 -0.472,0.106 -1.19,0.183 -119.146,19.047 -130.621,83.67 -0.168,0.946 -0.718,1.781 -1.52,2.31 -17.332,11.431 -20.567,32.418 -16.238,43.174 1.64,4.075 5.032,8.661 11.864,7.407 0.213,-0.042 0.426,-0.061 0.636,-0.061 z m 1.812,-53.444 h 0.01 z"
   id="path440" />
						</g>
						<g
   id="g448">
							<path
   fill="#fc9463"
   d="m 1923.259,581.133 c 13.576,73.788 -34.968,133.512 -106.027,146.583 -71.056,13.075 -137.682,-25.449 -151.262,-99.252 -13.578,-73.79 33.494,-141.547 104.553,-154.625 71.056,-13.075 139.165,33.503 152.736,107.294 z"
   id="path444" />
							<path
   d="m 1789.988,733.733 c -26.043,0.001 -50.856,-6.855 -71.812,-20.106 -29.261,-18.502 -49.023,-48.522 -55.649,-84.53 -6.705,-36.438 0.784,-72.906 21.088,-102.685 20.181,-29.597 50.819,-49.491 86.273,-56.016 35.452,-6.525 71.166,1.162 100.561,21.643 29.571,20.604 49.549,52.023 56.252,88.46 v 0 c 6.624,36.002 -1.159,71.088 -21.917,98.792 -20.104,26.834 -50.974,45.253 -86.92,51.866 -9.365,1.725 -18.699,2.576 -27.876,2.576 z m 4.545,-258.598 c -7.755,0 -15.57,0.709 -23.377,2.146 -70.21,12.92 -114.9,79.05 -101.744,150.549 6.268,34.065 24.915,62.434 52.506,79.88 26.847,16.976 60.472,22.857 94.68,16.563 34.21,-6.292 63.539,-23.757 82.585,-49.178 19.572,-26.124 26.9,-59.269 20.634,-93.329 0,0 0,0 0,0 -6.365,-34.613 -25.319,-64.439 -53.369,-83.983 -21.379,-14.895 -46.294,-22.648 -71.915,-22.648 z"
   id="path446" />
						</g>
						<g
   id="g464">
							<g
   id="g462">
								<g
   id="g454">
									<g
   id="g452">
										<circle
   fill="#fc4b31"
   cx="1721.392"
   cy="645.21899"
   r="19.622"
   id="circle450" />
									</g>
								</g>
								<g
   id="g460">
									<g
   id="g458">
										<circle
   fill="#fc4b31"
   cx="1878.089"
   cy="619.19299"
   r="19.622"
   id="circle456" />
									</g>
								</g>
							</g>
						</g>
						<path
   d="m 1786.164,612.266 c -0.066,0 -0.124,-0.002 -0.174,-0.005 -1.605,-0.088 -2.951,-1.271 -3.253,-2.85 -0.139,-0.728 -0.041,-1.446 0.239,-2.075 2.495,-8.064 7.238,-10.53 10.781,-11.178 5.403,-0.988 10.432,1.431 14.191,6.807 0.4,0.459 0.685,1.03 0.801,1.673 0.292,1.621 -0.586,3.238 -2.107,3.868 -0.437,0.182 -2.703,0.958 -4.39,-1.472 -2.169,-3.128 -4.605,-4.469 -7.235,-3.99 -2.391,0.437 -4.195,2.591 -5.366,6.402 -0.781,2.541 -2.691,2.82 -3.487,2.82 z"
   id="path466" />
						<path
   d="m 1796.256,693.628 c -32.907,0 -63.063,-17.776 -75.388,-46.063 -0.771,-1.772 0.039,-3.834 1.811,-4.606 1.771,-0.773 3.834,0.038 4.607,1.811 13.127,30.129 48.714,47.12 84.614,40.404 34.38,-6.435 60.691,-32.866 63.984,-64.275 0.201,-1.923 1.924,-3.319 3.846,-3.116 1.922,0.202 3.317,1.923 3.115,3.846 -3.612,34.466 -32.257,63.426 -69.658,70.427 -5.67,1.059 -11.344,1.572 -16.931,1.572 z"
   id="path468" />
						<g
   id="g488">
							<g
   id="g486">
								<g
   id="g476">
									<g
   id="g474">
										<path
   fill="#fc9463"
   d="m 1917.028,582.63 c 0,0 -1.027,-15.306 16.576,-21.242 18.57,-6.249 31.442,17.128 24.388,34.2 -7.059,17.047 -28.199,21.794 -37.268,11.521 z"
   id="path470" />
										<path
   d="m 1933.75,615.989 c -6.253,0 -11.907,-2.324 -15.649,-6.563 -1.279,-1.449 -1.142,-3.661 0.308,-4.94 1.449,-1.279 3.662,-1.142 4.94,0.308 3.027,3.431 7.98,4.865 13.589,3.927 6.143,-1.024 14.05,-5.364 17.821,-14.471 3.427,-8.293 1.521,-19.014 -4.532,-25.49 -2.461,-2.633 -7.751,-6.661 -15.507,-4.053 -14.701,4.958 -14.226,17.195 -14.198,17.714 0.103,1.921 -1.364,3.576 -3.284,3.691 -1.924,0.122 -3.572,-1.327 -3.701,-3.247 -0.418,-6.224 3.005,-19.416 18.949,-24.792 8.381,-2.82 16.71,-0.667 22.854,5.907 7.963,8.517 10.384,22.065 5.887,32.946 -4.072,9.833 -12.938,16.998 -23.138,18.699 -1.467,0.244 -2.918,0.364 -4.339,0.364 z"
   id="path472" />
									</g>
								</g>
								<g
   id="g484">
									<g
   id="g482">
										<path
   fill="#fc9463"
   d="m 1672.821,628.275 c 0,0 -4.487,-14.668 -23.054,-13.947 -19.58,0.771 -23.281,27.2 -10.625,40.641 12.667,13.417 34.111,10.33 38.926,-2.493 z"
   id="path478" />
										<path
   d="m 1659.139,667.178 c -8.333,0 -16.603,-3.516 -22.541,-9.806 -8.074,-8.575 -10.63,-22.099 -6.218,-32.892 3.403,-8.326 10.42,-13.301 19.25,-13.649 16.84,-0.653 24.713,10.455 26.538,16.42 0.565,1.849 -0.475,3.805 -2.323,4.371 -1.844,0.564 -3.792,-0.468 -4.364,-2.304 -0.18,-0.552 -4.114,-12.117 -19.577,-11.492 -8.172,0.322 -11.68,5.967 -13.044,9.303 -3.354,8.207 -1.322,18.906 4.831,25.441 6.767,7.167 15.703,8.405 21.808,7.177 5.57,-1.122 9.687,-4.22 11.294,-8.501 0.68,-1.809 2.694,-2.726 4.507,-2.046 1.81,0.68 2.726,2.697 2.046,4.507 -2.438,6.494 -8.593,11.317 -16.465,12.902 -1.9,0.382 -3.823,0.569 -5.742,0.569 z"
   id="path480" />
									</g>
								</g>
							</g>
						</g>
						<path
   fill="#ffa600"
   d="m 1894.048,483.742 c 40.255,29.459 35.26,59.459 18.922,63.712 -33.604,8.746 -59.991,-31.603 -59.991,-31.603 0,0 6.014,30.952 -24.059,31.73 -35.363,0.917 -45.588,-22.936 -45.588,-22.936 0,0 -10.361,36.588 -45.578,37.751 -25.885,0.854 -19.727,-33.981 -19.727,-33.981 0,0 -24.964,60.9 -52.021,49.467 -42.206,-17.832 14.085,-126.085 106.11,-137.771 56.186,-7.135 121.932,43.631 121.932,43.631 z"
   id="path490" />
						<path
   d="m 1672.909,582.816 c -2.807,0 -5.567,-0.57 -8.266,-1.709 -1.78,-0.752 -2.614,-2.806 -1.861,-4.586 0.752,-1.78 2.803,-2.615 4.586,-1.862 3.772,1.594 7.62,1.541 11.761,-0.166 19.277,-7.942 35.499,-47.011 35.66,-47.405 0.679,-1.655 2.497,-2.53 4.213,-2.033 1.717,0.498 2.783,2.21 2.472,3.971 -0.029,0.167 -2.897,17.172 4.293,25.445 2.74,3.154 6.627,4.603 11.872,4.429 32.288,-1.066 42.229,-34.865 42.326,-35.207 0.403,-1.426 1.662,-2.443 3.142,-2.539 1.485,-0.097 2.858,0.751 3.442,2.114 0.383,0.871 9.941,21.683 42.28,20.815 7.55,-0.195 13.144,-2.493 16.625,-6.83 6.461,-8.047 4.113,-20.608 4.089,-20.734 -0.319,-1.643 0.569,-3.281 2.119,-3.911 1.55,-0.63 3.329,-0.074 4.246,1.328 0.248,0.38 25.436,38.136 56.18,30.131 1.88,-0.483 3.783,0.636 4.269,2.506 0.487,1.871 -0.635,3.782 -2.505,4.269 -25.636,6.67 -46.823,-12.48 -57.114,-24.396 -0.524,4.859 -2.053,10.492 -5.825,15.19 -4.83,6.016 -12.198,9.194 -21.901,9.445 -25.773,0.666 -39.065,-11.048 -44.961,-18.7 -5.168,11.244 -18.585,32.603 -46.181,33.514 -7.383,0.247 -13.247,-2.061 -17.4,-6.849 -3.634,-4.19 -5.357,-9.705 -6.097,-14.934 -7.009,13.081 -18.768,31.161 -32.571,36.851 -2.999,1.235 -5.971,1.853 -8.893,1.853 z"
   id="path492" />
						<g
   id="g498">
							<g
   id="g496">
								<circle
   cx="1732.915"
   cy="604.50201"
   r="12.172"
   id="circle494" />
							</g>
						</g>
						<g
   id="g504">
							<g
   id="g502">
								<circle
   cx="1851.293"
   cy="587.01703"
   r="12.173"
   id="circle500" />
							</g>
						</g>
					</g>
				</g>
				<g
   id="g516">
					<g
   id="g514">
						<path
   fill="#4dbbc5"
   d="m 1620.216,539.66 c 81.056,-28.416 233.449,-47.535 316.549,-57.077 -5.263,-24.35 -17.015,-79.952 -58.344,-102.507 -26.455,-14.44 -74.222,-19.558 -118.839,-11.511 -45.296,8.167 -90.457,26.044 -112.325,45.709 -34.986,31.473 -29.852,85.392 -27.041,125.386 z m 117.839,-73.233 c 16.575,-1.47 38.245,-2.003 74.045,-11.954 12.41,-3.454 27.891,20.94 5.286,28.849 -33.458,11.697 -62.451,13.995 -78.548,11.913 -16.1,-2.078 -13.686,-27.669 -0.783,-28.808 z"
   id="path510" />
						<path
   d="m 1620.216,543.16 c -0.675,0 -1.345,-0.195 -1.923,-0.576 -0.912,-0.6 -1.492,-1.59 -1.568,-2.679 l -0.287,-4.043 c -2.79,-39.089 -6.612,-92.623 28.479,-124.188 21.961,-19.748 66.726,-38.02 114.045,-46.552 44.674,-8.058 93.354,-3.282 121.137,11.883 42.441,23.162 54.729,80.032 59.975,104.316 l 0.113,0.523 c 0.209,0.966 0,1.975 -0.576,2.778 -0.575,0.803 -1.464,1.326 -2.445,1.438 -153.577,17.635 -256.873,36.248 -315.79,56.902 -0.379,0.133 -0.771,0.198 -1.16,0.198 z m 182.789,-174.94 c -14.094,0 -28.642,1.237 -42.802,3.791 -45.42,8.189 -89.869,26.22 -110.606,44.868 -32.41,29.155 -29.043,78.333 -26.212,117.993 59.557,-20.063 160.805,-38.18 309.141,-55.322 -5.43,-24.833 -17.891,-75.722 -55.781,-96.4 -17.809,-9.722 -44.818,-14.93 -73.74,-14.93 z m -52.332,131.193 c -4.67,0 -8.792,-0.255 -12.284,-0.707 -10.119,-1.306 -14.484,-10.037 -14.322,-18.11 0.165,-8.188 4.917,-16.882 13.68,-17.655 2.3,-0.204 4.697,-0.39 7.217,-0.585 15.892,-1.233 35.669,-2.768 66.199,-11.254 8.759,-2.441 17.795,5.173 20.418,13.532 2.382,7.593 0.208,17.358 -13.038,21.993 -27.059,9.457 -51.021,12.786 -67.87,12.786 z m 63.869,-41.767 c -0.516,0 -1.019,0.064 -1.504,0.2 -31.187,8.668 -52.194,10.299 -67.534,11.489 -2.492,0.193 -4.865,0.377 -7.141,0.579 -10e-4,0 -10e-4,0 0,0 -4.605,0.407 -7.196,5.88 -7.296,10.824 -0.097,4.805 2.012,10.225 8.221,11.026 15.297,1.981 43.542,-0.068 76.944,-11.746 7.461,-2.61 10.54,-7.33 8.67,-13.29 -1.602,-5.109 -6.319,-9.082 -10.358,-9.082 z m -76.488,8.781 h 0.01 z"
   id="path512" />
					</g>
				</g>
			</g>
		</g>
</svg>
