<?xml version="1.0" encoding="UTF-8" standalone="no"?>
<!-- Generator: Adobe Illustrator 16.0.3, SVG Export Plug-In . SVG Version: 6.00 Build 0)  -->

<svg
   version="1.1"
   id="Layer_1"
   x="0px"
   y="0px"
   width="436.55017"
   height="755.961"
   viewBox="0 0 436.55017 755.961"
   enable-background="new 0 0 3200 1400"
   xml:space="preserve"
   sodipodi:docname="girl_orangehair1022_game.svg"
   inkscape:version="1.2.1 (9c6d41e410, 2022-07-14)"
   xmlns:inkscape="http://www.inkscape.org/namespaces/inkscape"
   xmlns:sodipodi="http://sodipodi.sourceforge.net/DTD/sodipodi-0.dtd"
   xmlns="http://www.w3.org/2000/svg"
   xmlns:svg="http://www.w3.org/2000/svg"><sodipodi:namedview
   id="namedview105"
   pagecolor="#ffffff"
   bordercolor="#666666"
   borderopacity="1.0"
   inkscape:showpageshadow="2"
   inkscape:pageopacity="0.0"
   inkscape:pagecheckerboard="0"
   inkscape:deskcolor="#d1d1d1"
   showgrid="false"
   inkscape:zoom="0.82506641"
   inkscape:cx="219.98229"
   inkscape:cy="396.33174"
   inkscape:window-width="1920"
   inkscape:window-height="1009"
   inkscape:window-x="-8"
   inkscape:window-y="-8"
   inkscape:window-maximized="1"
   inkscape:current-layer="Layer_1" /><defs
   id="defs1121" />

<g
   id="g1022"
   transform="translate(-1100.1643,-360.95804)">
			<g
   id="g832">
				<g
   id="g824">
					<path
   d="m 1329.146,993.137 c -1.429,0 -2.771,-0.882 -3.29,-2.303 -0.105,-0.29 -10.85,-29.345 -34.313,-56.852 -1.254,-1.471 -1.079,-3.68 0.392,-4.935 1.471,-1.254 3.68,-1.079 4.935,0.392 24.32,28.514 35.117,57.77 35.565,59.001 0.66,1.816 -0.277,3.823 -2.093,4.484 -0.394,0.144 -0.798,0.213 -1.196,0.213 z"
   id="path822" />
				</g>
				<g
   id="g830">
					<path
   fill="#1a1616"
   d="m 1329.207,988.873 c -24.859,10.367 -34.899,55.099 -10.554,57.904 24.345,2.805 28.798,-46.669 10.554,-57.904 z"
   id="path826" />
					<path
   d="m 1320.658,1050.395 c -0.789,0 -1.591,-0.046 -2.406,-0.141 -9.229,-1.063 -15.334,-7.423 -16.749,-17.448 -2.275,-16.125 8.513,-39.722 26.357,-47.163 1.039,-0.433 2.224,-0.341 3.183,0.25 12.811,7.89 15.641,30.995 10.168,46.798 -3.94,11.374 -11.35,17.704 -20.553,17.704 z m 8.168,-57.495 c -13.734,6.948 -22.197,26.136 -20.393,38.928 0.976,6.913 4.548,10.772 10.62,11.473 9.266,1.071 13.715,-7.625 15.542,-12.9 4.263,-12.31 2.538,-30.603 -5.769,-37.501 z"
   id="path828" />
				</g>
			</g>
			<g
   id="g844">
				<g
   id="g836">
					<path
   d="m 1476.52,1029.667 c -1.466,0 -2.832,-0.928 -3.32,-2.395 -0.098,-0.293 -10.03,-29.635 -32.718,-57.784 -1.213,-1.505 -0.976,-3.708 0.529,-4.921 1.506,-1.213 3.708,-0.978 4.921,0.528 23.518,29.18 33.497,58.724 33.91,59.968 0.609,1.833 -0.383,3.813 -2.216,4.424 -0.367,0.122 -0.74,0.18 -1.106,0.18 z"
   id="path834" />
				</g>
				<g
   id="g842">
					<path
   fill="#1a1616"
   d="m 1478.454,1026.167 c -25.138,9.672 -36.419,54.106 -12.162,57.589 24.258,3.481 30.087,-45.85 12.162,-57.589 z"
   id="path838" />
					<path
   d="m 1468.75,1087.436 c -0.967,0 -1.952,-0.071 -2.954,-0.215 -9.196,-1.32 -15.122,-7.847 -16.257,-17.907 -1.826,-16.183 9.615,-39.471 27.659,-46.413 1.051,-0.403 2.233,-0.279 3.174,0.339 12.586,8.242 14.772,31.418 8.862,47.063 -4.168,11.033 -11.534,17.133 -20.484,17.133 z m 9.211,-57.254 c -13.922,6.564 -22.916,25.51 -21.467,38.347 0.783,6.938 4.247,10.895 10.295,11.763 9.235,1.329 13.923,-7.24 15.896,-12.463 4.604,-12.186 3.388,-30.521 -4.724,-37.647 z"
   id="path840" />
				</g>
			</g>
			<g
   id="g936">
				<g
   id="g858">
					<g
   id="g856">
						<g
   id="g854">
							<g
   id="g852">
								<g
   id="g850">
									<path
   fill="#fdc093"
   d="m 1351.63,727.891 c 0,0 -12.912,1.905 -22.217,2.672 -1.505,-9.115 -1.049,-24.938 -1.049,-24.938 l -25.49,2.82 c 0,0 1.626,21.113 1.626,27.084 -13.384,4.139 -19.251,4.592 -19.251,4.592 0,0 -11.963,42.809 41.761,35.34 11.571,-1.608 33.449,-11.642 24.62,-47.57 z"
   id="path846" />
									<path
   d="m 1315.319,779.833 c -12.661,0 -22.033,-3.403 -27.948,-10.173 -10.496,-12.011 -5.703,-29.732 -5.493,-30.481 0.396,-1.416 1.635,-2.435 3.102,-2.547 0.042,-0.004 5.024,-0.45 15.96,-3.682 -0.292,-7.773 -1.542,-24.051 -1.556,-24.236 -0.145,-1.882 1.229,-3.54 3.105,-3.747 l 25.49,-2.82 c 1.009,-0.111 2.012,0.219 2.757,0.904 0.745,0.688 1.156,1.662 1.126,2.675 0,0.138 -0.336,12.249 0.581,21.044 8.586,-0.858 18.563,-2.325 18.677,-2.342 1.787,-0.265 3.479,0.875 3.91,2.628 3.832,15.591 2.553,28.246 -3.8,37.615 -7.404,10.919 -19.067,13.607 -23.738,14.257 -4.346,0.603 -8.406,0.905 -12.173,0.905 z m -27.154,-36.585 c -0.763,4.467 -1.664,14.81 4.502,21.835 6.031,6.871 17.425,9.195 33.86,6.911 2.921,-0.406 12.917,-2.417 18.908,-11.252 4.794,-7.07 5.964,-16.792 3.49,-28.932 -4.449,0.617 -12.656,1.699 -19.225,2.24 -1.823,0.149 -3.444,-1.12 -3.741,-2.918 -1.083,-6.556 -1.194,-16.196 -1.158,-21.593 l -18.185,2.013 c 0.461,6.253 1.383,19.35 1.383,23.977 0,1.534 -1,2.891 -2.466,3.344 -8.7,2.691 -14.356,3.87 -17.368,4.375 z"
   id="path848" />
								</g>
							</g>
						</g>
					</g>
				</g>
				<g
   id="g914">
					<g
   id="g868">
						<g
   id="g866">
							<g
   id="g864">
								<path
   fill="#ffa600"
   d="m 1292.449,738.518 c -1.768,42.39 59.452,33.181 51.515,-9.679 8.829,-0.667 50.528,-6.073 68.499,-7.149 1.479,6.976 12.15,44.479 10.814,47.313 -3.5,0.985 -19.717,3.232 -29.206,3.594 4.976,18.515 46.492,75.021 46.8,71.334 0,0 -28.409,34.312 -150.676,39.034 -0.025,10e-4 -22.297,-75.83 -23.614,-92.978 -1.279,-0.255 -17.466,6.183 -31.08,7.335 -6.738,-14.6 -8.285,-39.246 -2.197,-47.86 12.506,-2.367 54.92,-10.012 59.145,-10.944 z"
   id="path860" />
								<path
   d="m 1290.065,886.468 c -2.504,0 -2.951,-1.535 -4.198,-5.815 -0.615,-2.11 -1.494,-5.145 -2.552,-8.84 -1.916,-6.691 -4.828,-16.979 -7.82,-27.987 -6.494,-23.892 -10.482,-40.478 -11.893,-49.454 -0.365,0.112 -0.735,0.228 -1.096,0.339 -6.363,1.975 -17.012,5.279 -26.711,6.101 -1.457,0.13 -2.856,-0.683 -3.473,-2.021 -6.83,-14.798 -9.189,-41.002 -1.877,-51.349 0.524,-0.741 1.315,-1.25 2.208,-1.418 5.188,-0.982 15.343,-2.84 26.095,-4.807 14.312,-2.617 30.532,-5.584 32.946,-6.117 1.058,-0.233 2.17,0.037 3.003,0.735 0.833,0.698 1.294,1.743 1.249,2.828 -0.425,10.177 3.162,17.821 10.1,21.524 7.363,3.931 17.353,2.882 24.86,-2.611 8.294,-6.07 11.799,-16.313 9.617,-28.1 -0.181,-0.978 0.062,-1.985 0.668,-2.772 0.606,-0.788 1.519,-1.28 2.51,-1.355 3.222,-0.243 11.228,-1.167 20.499,-2.237 16.344,-1.887 36.685,-4.234 48.055,-4.916 1.724,-0.094 3.273,1.073 3.633,2.768 0.412,1.944 1.636,6.618 3.054,12.031 7.812,29.832 8.657,35.051 7.503,37.5 -0.432,0.918 -1.242,1.603 -2.218,1.878 -3.232,0.91 -15.73,2.701 -25.32,3.44 7.829,18.81 37.309,59.219 42.873,64.749 0.145,0.039 0.289,0.088 0.43,0.147 1.404,0.584 2.277,1.998 2.151,3.513 -0.088,1.057 -0.607,1.981 -1.38,2.596 -4.746,5.009 -37.997,35.217 -152.648,39.645 -0.094,0.003 -0.182,0.005 -0.268,0.005 z m -23.573,-99.991 c 0.269,0 0.516,0.027 0.772,0.078 1.539,0.307 2.686,1.6 2.806,3.164 1.144,14.894 18.833,76.32 22.713,89.638 97.362,-4.163 133.43,-27.545 142.75,-35.229 -1.314,-1.466 -3.004,-3.528 -5.258,-6.422 -4.364,-5.604 -9.8,-13.093 -14.914,-20.55 -7.946,-11.585 -21.718,-32.66 -24.671,-43.65 -0.277,-1.028 -0.07,-2.127 0.563,-2.984 0.632,-0.857 1.62,-1.381 2.684,-1.421 7.948,-0.303 20.086,-1.888 25.772,-2.913 -0.952,-6.258 -5.3,-22.86 -7.541,-31.419 -0.986,-3.765 -1.835,-7.008 -2.428,-9.387 -11.544,0.853 -29.816,2.962 -44.739,4.685 -7.045,0.813 -13.018,1.502 -17.053,1.917 1.312,12.955 -3.284,24.198 -12.909,31.242 -9.629,7.048 -22.605,8.309 -32.291,3.139 -4.987,-2.663 -12.966,-9.153 -13.773,-23.599 -6.183,1.171 -17.719,3.28 -28.969,5.338 -9.769,1.787 -19.045,3.483 -24.531,4.512 -4.115,7.885 -3.026,27.68 2.225,40.954 8.287,-1.062 17.201,-3.827 22.731,-5.544 3.59,-1.115 4.992,-1.549 6.061,-1.549 z"
   id="path862" />
							</g>
						</g>
					</g>
					<g
   id="g912">
						<g
   id="g874">
							<path
   fill="#33a97f"
   d="m 1408.018,831.722 c 6.773,0.461 12.772,-3.745 14.89,-9.867 -4.325,-6.097 -8.918,-12.856 -13.155,-19.497 -7.995,-0.402 -14.871,5.666 -15.416,13.686 -0.552,8.106 5.574,15.126 13.681,15.678 z"
   id="path870" />
							<path
   d="m 1409.014,835.256 c -0.409,0 -0.82,-0.014 -1.233,-0.042 v 0 c -4.854,-0.331 -9.289,-2.531 -12.487,-6.197 -3.199,-3.665 -4.778,-8.357 -4.448,-13.211 0.668,-9.839 9.255,-17.448 19.083,-16.943 1.131,0.057 2.166,0.657 2.775,1.612 3.928,6.157 8.444,12.85 13.059,19.354 0.654,0.922 0.823,2.102 0.453,3.17 -2.545,7.356 -9.509,12.257 -17.202,12.257 z m -0.758,-7.027 c 4.459,0.311 8.624,-2.089 10.665,-5.953 -3.875,-5.507 -7.654,-11.106 -11.055,-16.378 -5.317,0.554 -9.665,4.904 -10.038,10.382 -0.419,6.169 4.258,11.53 10.428,11.949 z"
   id="path872" />
						</g>
						<g
   id="g880">
							<path
   fill="#33a97f"
   d="m 1274.344,753.215 c 0.274,-4.039 -1.109,-7.808 -3.569,-10.641 -8.204,1.504 -17.35,3.172 -24.914,4.561 -0.472,1.283 -0.781,2.649 -0.878,4.083 -0.551,8.107 5.574,15.127 13.682,15.679 8.108,0.552 15.127,-5.575 15.679,-13.682 z"
   id="path876" />
							<path
   d="m 1259.676,770.431 c -0.414,0 -0.83,-0.014 -1.249,-0.042 -10.02,-0.683 -17.617,-9.389 -16.936,-19.408 0.116,-1.711 0.481,-3.411 1.085,-5.054 0.427,-1.161 1.436,-2.011 2.653,-2.234 l 24.914,-4.561 c 1.218,-0.229 2.463,0.213 3.274,1.147 3.177,3.66 4.746,8.338 4.418,13.173 0,0 0,0 0,0 -0.653,9.602 -8.674,16.979 -18.159,16.979 z m -11.039,-20.246 c -0.079,0.423 -0.133,0.847 -0.163,1.271 -0.419,6.168 4.258,11.528 10.428,11.948 6.167,0.422 11.53,-4.259 11.95,-10.427 0.158,-2.334 -0.401,-4.608 -1.594,-6.567 z m 25.707,3.03 h 0.01 z"
   id="path878" />
						</g>
						<g
   id="g886">
							<path
   fill="#33a97f"
   d="m 1304.656,852.373 c 0.552,-8.107 -5.574,-15.128 -13.682,-15.679 -4.918,-0.335 -9.425,1.797 -12.342,5.328 2.275,8.389 4.536,16.475 6.448,23.216 1.23,0.434 2.532,0.724 3.896,0.816 8.109,0.552 15.128,-5.574 15.68,-13.681 z"
   id="path882" />
							<path
   d="m 1290.003,869.59 c -0.42,0 -0.841,-0.015 -1.264,-0.043 -1.617,-0.11 -3.24,-0.45 -4.825,-1.01 -1.071,-0.378 -1.891,-1.252 -2.201,-2.345 -2.298,-8.103 -4.472,-15.926 -6.459,-23.254 -0.297,-1.097 -0.044,-2.269 0.679,-3.145 3.737,-4.524 9.447,-6.98 15.278,-6.592 4.854,0.33 9.289,2.53 12.488,6.196 3.199,3.666 4.778,8.358 4.448,13.212 -0.33,4.854 -2.53,9.289 -6.196,12.488 -3.346,2.922 -7.549,4.493 -11.948,4.493 z m -2.09,-7.197 c 0.435,0.084 0.87,0.141 1.302,0.17 2.993,0.202 5.877,-0.769 8.134,-2.738 2.257,-1.97 3.612,-4.7 3.815,-7.688 v 0 c 0.203,-2.989 -0.77,-5.878 -2.739,-8.135 -1.97,-2.257 -4.7,-3.611 -7.688,-3.814 -3.013,-0.215 -5.974,0.833 -8.209,2.823 1.681,6.169 3.488,12.672 5.385,19.382 z"
   id="path884" />
						</g>
						<g
   id="g892">
							<circle
   fill="#33a97f"
   cx="1300.698"
   cy="802.32703"
   r="14.714"
   id="circle888" />
							<path
   d="m 1300.725,820.542 c -0.42,0 -0.841,-0.015 -1.264,-0.043 -4.854,-0.33 -9.289,-2.53 -12.488,-6.196 -3.199,-3.666 -4.778,-8.358 -4.448,-13.212 0.682,-10.021 9.383,-17.61 19.408,-16.937 10.02,0.683 17.618,9.389 16.936,19.409 -0.33,4.854 -2.53,9.289 -6.196,12.487 -3.346,2.921 -7.548,4.492 -11.948,4.492 z m -0.036,-29.43 c -5.84,0 -10.778,4.542 -11.18,10.453 -0.203,2.989 0.77,5.878 2.739,8.135 1.97,2.257 4.7,3.611 7.688,3.814 2.993,0.204 5.878,-0.769 8.134,-2.738 2.257,-1.969 3.612,-4.699 3.815,-7.688 0.419,-6.17 -4.258,-11.53 -10.428,-11.95 -0.256,-0.017 -0.513,-0.026 -0.768,-0.026 z"
   id="path890" />
						</g>
						<g
   id="g898">
							<circle
   fill="#33a97f"
   cx="1358.34"
   cy="849.14502"
   r="14.714"
   id="circle894" />
							<path
   d="m 1358.352,867.359 c -0.414,0 -0.83,-0.014 -1.249,-0.042 v 0 c -4.854,-0.331 -9.289,-2.531 -12.487,-6.197 -3.199,-3.665 -4.778,-8.357 -4.448,-13.211 0.33,-4.854 2.53,-9.289 6.196,-12.488 3.666,-3.198 8.358,-4.77 13.212,-4.448 4.854,0.331 9.289,2.531 12.487,6.197 3.199,3.665 4.779,8.357 4.448,13.211 -0.653,9.601 -8.674,16.978 -18.159,16.978 z m -0.773,-7.026 c 6.168,0.428 11.53,-4.258 11.95,-10.427 0.203,-2.988 -0.77,-5.877 -2.739,-8.134 -1.97,-2.258 -4.7,-3.612 -7.689,-3.815 -2.982,-0.2 -5.877,0.769 -8.134,2.738 -2.257,1.97 -3.612,4.7 -3.815,7.688 -0.42,6.17 4.257,11.53 10.427,11.95 z"
   id="path896" />
						</g>
						<g
   id="g904">
							<circle
   fill="#33a97f"
   cx="1358.34"
   cy="787.612"
   r="14.715"
   id="circle900" />
							<path
   d="m 1358.351,805.827 c -0.413,0 -0.829,-0.014 -1.247,-0.042 -10.021,-0.683 -17.618,-9.389 -16.936,-19.409 0.682,-10.02 9.385,-17.614 19.408,-16.937 0,0 0,0 0,0 10.02,0.683 17.618,9.389 16.936,19.409 -0.654,9.602 -8.676,16.979 -18.161,16.979 z m -0.018,-29.43 c -5.841,0 -10.779,4.542 -11.182,10.453 -0.419,6.17 4.258,11.53 10.427,11.95 6.172,0.426 11.53,-4.259 11.95,-10.427 0.419,-6.17 -4.258,-11.53 -10.428,-11.95 -0.256,-0.017 -0.513,-0.026 -0.767,-0.026 z"
   id="path902" />
						</g>
						<g
   id="g910">
							<circle
   fill="#33a97f"
   cx="1386.235"
   cy="746.87701"
   r="14.714"
   id="circle906" />
							<path
   d="m 1386.262,765.093 c -0.42,0 -0.841,-0.015 -1.264,-0.043 -10.02,-0.683 -17.617,-9.389 -16.936,-19.408 0.33,-4.854 2.531,-9.289 6.197,-12.488 3.666,-3.198 8.354,-4.775 13.212,-4.448 10.02,0.682 17.617,9.389 16.936,19.408 -0.33,4.854 -2.531,9.29 -6.197,12.488 -3.346,2.919 -7.548,4.491 -11.948,4.491 z m -0.035,-29.43 c -5.84,0 -10.778,4.542 -11.181,10.453 -0.419,6.169 4.258,11.529 10.428,11.949 2.988,0.204 5.877,-0.769 8.134,-2.738 2.257,-1.97 3.612,-4.7 3.815,-7.688 0.419,-6.169 -4.258,-11.529 -10.428,-11.949 v 0 c -0.256,-0.018 -0.514,-0.027 -0.768,-0.027 z"
   id="path908" />
						</g>
					</g>
				</g>
				<g
   id="g922">
					<g
   id="g920">
						<path
   fill="#ff4000"
   d="m 1293.228,874.777 c -40.992,-5.054 -49.905,18.529 -39.602,41.022 8.246,17.995 19.69,34.914 38.766,57.686 7.676,-2.188 25.178,-2.098 43.573,-20.937 -2.303,-3.291 -15.909,-24.463 -17.172,-27.413 -1.856,-6.504 22.558,3.13 36.591,-0.725 4.031,-1.108 8.323,0.256 10.953,3.506 18.129,22.395 62.438,77.452 65.275,78.678 24.135,0 46.839,-18.413 46.839,-18.413 0,0 -42.217,-106.318 -56.201,-131.524 -46.175,21.585 -88.234,19.43 -129.022,18.12 z"
   id="path916" />
						<path
   d="m 1431.611,1010.095 c -0.478,0 -0.95,-0.098 -1.388,-0.287 -2.36,-1.02 -11.287,-11.267 -60.49,-72.125 l -6.117,-7.563 c -1.747,-2.158 -4.613,-3.077 -7.305,-2.333 -7.63,2.094 -17.47,0.657 -25.377,-0.498 -2.392,-0.349 -5.358,-0.782 -7.48,-0.933 3.729,6.29 13.23,21.115 15.379,24.187 0.964,1.379 0.812,3.248 -0.363,4.452 -15.85,16.231 -31.2,19.119 -40.372,20.845 -1.887,0.355 -3.517,0.662 -4.747,1.013 -1.326,0.378 -2.755,-0.06 -3.643,-1.119 -19.553,-23.342 -30.929,-40.283 -39.265,-58.475 -5.928,-12.943 -5.648,-25.395 0.77,-34.16 5.206,-7.109 16.769,-14.914 42.284,-11.813 l 3.835,0.125 c 39.097,1.278 79.523,2.604 123.435,-17.923 1.667,-0.778 3.65,-0.135 4.542,1.473 13.933,25.115 54.666,127.581 56.393,131.931 0.565,1.423 0.14,3.047 -1.048,4.011 -0.965,0.781 -23.955,19.192 -49.043,19.192 z m 1.886,-6.434 c 10e-4,0 10e-4,0 0,0 10e-4,0 10e-4,0 0,0 z m -75.317,-83.129 c 4.162,0 8.183,1.854 10.876,5.183 l 6.12,7.566 c 16.941,20.955 51.446,63.632 57.682,69.796 18.172,-0.506 35.548,-11.89 41.352,-16.083 -6.197,-15.526 -39.795,-99.332 -53.496,-125.786 -44.241,19.795 -84.576,18.478 -123.61,17.197 l -3.989,-0.13 c -0.105,-0.003 -0.211,-0.012 -0.316,-0.024 -17.618,-2.175 -30.046,0.934 -35.938,8.982 -4.875,6.658 -4.895,16.54 -0.054,27.108 7.859,17.153 18.601,33.258 36.875,55.229 0.961,-0.205 2,-0.4 3.121,-0.611 8.482,-1.596 21.096,-3.968 34.645,-16.869 -4.31,-6.549 -14.629,-22.671 -15.874,-25.577 -0.058,-0.136 -0.108,-0.275 -0.148,-0.417 -0.693,-2.431 0.291,-4.036 0.939,-4.777 2.509,-2.868 7.429,-2.148 15.579,-0.957 7.261,1.06 16.297,2.38 22.511,0.674 1.234,-0.339 2.486,-0.504 3.725,-0.504 z"
   id="path918" />
					</g>
				</g>
				<g
   id="g928">
					<path
   d="m 1412.459,725.189 c -1.82,0 -3.356,-1.408 -3.488,-3.252 -0.137,-1.928 1.315,-3.603 3.243,-3.739 42.843,-3.046 69.487,-21.822 84.294,-37.037 16.105,-16.549 22.147,-32.622 22.207,-32.782 0.668,-1.812 2.677,-2.742 4.492,-2.077 1.813,0.666 2.744,2.672 2.081,4.485 -0.257,0.703 -6.49,17.408 -23.522,35.007 -15.672,16.193 -43.844,36.171 -89.055,39.386 -0.085,0.007 -0.169,0.009 -0.252,0.009 z"
   id="path924" />
					<path
   d="m 1507.645,684.261 c -4.141,0 -8.046,-1.349 -11.138,-4.92 -12.411,-14.335 -3.179,-40.338 -2.779,-41.438 0.659,-1.816 2.666,-2.756 4.484,-2.096 1.816,0.659 2.754,2.665 2.097,4.481 -0.091,0.253 -8.224,23.251 1.49,34.471 6.53,7.542 23.662,-4.079 29.148,-8.744 1.472,-1.251 3.681,-1.074 4.934,0.399 1.252,1.473 1.073,3.682 -0.399,4.934 -0.811,0.689 -15.379,12.912 -27.837,12.913 z"
   id="path926" />
				</g>
				<g
   id="g934">
					<path
   d="m 1203.668,755.688 c -27.728,0 -48.807,-7.335 -62.827,-14.545 -20.432,-10.506 -30.555,-22.8 -30.976,-23.317 -1.219,-1.501 -0.99,-3.705 0.51,-4.924 1.499,-1.216 3.701,-0.99 4.92,0.506 v 0 c 0.096,0.117 9.82,11.852 29.067,21.674 17.733,9.05 47.451,18.294 88.321,10.937 1.903,-0.349 3.722,0.923 4.065,2.824 0.342,1.902 -0.922,3.723 -2.825,4.064 -10.825,1.948 -20.919,2.781 -30.255,2.781 z"
   id="path930" />
					<path
   d="m 1123.967,744.792 c -10.689,10e-4 -20.865,-4.023 -21.613,-4.325 -1.792,-0.724 -2.658,-2.764 -1.934,-4.556 0.724,-1.793 2.765,-2.66 4.556,-1.935 0.266,0.106 27.01,10.651 34.692,-3.799 4.005,-7.536 -6.9,-23.433 -11.036,-28.406 -1.235,-1.486 -1.034,-3.693 0.452,-4.929 1.484,-1.236 3.691,-1.035 4.927,0.449 1.941,2.33 18.765,23.138 11.837,36.171 -4.688,8.823 -13.445,11.33 -21.881,11.33 z"
   id="path932" />
				</g>
			</g>
			<g
   id="g1020">
				<g
   id="g1012">
					<g
   id="g942">
						<path
   fill="#fe5719"
   d="m 1466.85,526.009 c 8.772,90.708 -59.73,158.569 -151.477,167.79 -91.743,9.226 -171.937,-43.68 -180.71,-134.4 -8.774,-90.701 49.196,-194.048 143.007,-166.553 80.505,-45.615 180.41,42.461 189.18,133.163 z"
   id="path938" />
						<path
   d="m 1294.577,698.353 c -42.066,0.001 -80.687,-12.952 -110.438,-37.361 -30.674,-25.167 -48.988,-60.181 -52.96,-101.256 -5.733,-59.266 16.136,-120.36 54.418,-152.026 26.203,-21.674 57.863,-28.103 91.64,-18.63 30.666,-16.797 66.595,-16.126 101.344,1.94 48.808,25.376 86.538,80.751 91.753,134.652 v 0 c 4.262,44.077 -9.577,85.692 -38.969,117.178 -28.438,30.464 -69.507,49.794 -115.642,54.431 -7.124,0.717 -14.185,1.072 -21.146,1.072 z m -46.945,-306.497 c -20.986,0 -40.531,7.151 -57.573,21.248 -36.57,30.249 -57.432,88.904 -51.912,145.958 3.789,39.183 21.229,72.558 50.433,96.519 33.225,27.258 78.13,39.592 126.444,34.736 94.229,-9.47 156.616,-78.43 148.343,-163.971 -4.997,-51.676 -41.189,-104.77 -88.015,-129.115 -33.063,-17.191 -67.141,-17.667 -95.956,-1.341 -0.823,0.467 -1.8,0.579 -2.71,0.313 -9.911,-2.904 -19.628,-4.347 -29.054,-4.347 z"
   id="path940" />
					</g>
					<g
   id="g948">
						<path
   fill="#fdc093"
   d="m 1425.418,585.24 c 7.325,74.257 -45.738,129.408 -117.245,136.46 -71.498,7.06 -134.328,-36.652 -141.658,-110.918 -7.327,-74.251 44.947,-137.491 116.45,-144.548 71.506,-7.059 135.128,44.753 142.453,119.006 z"
   id="path944" />
						<path
   d="m 1293.205,725.942 c -30.531,0 -59.215,-9.157 -82.035,-26.413 -27.465,-20.769 -44.561,-52.165 -48.138,-88.404 -3.619,-36.671 6.833,-72.193 29.43,-100.021 22.459,-27.66 54.479,-44.832 90.16,-48.353 35.681,-3.524 70.438,7.06 97.871,29.799 27.599,22.876 44.79,55.672 48.408,92.345 v 0 c 3.575,36.237 -7.054,70.366 -29.927,96.101 -22.155,24.926 -54.28,40.618 -90.457,44.187 -5.142,0.508 -10.253,0.759 -15.312,0.759 z m 2.829,-256.854 c -4.221,0 -8.463,0.208 -12.725,0.629 -70.638,6.972 -120.41,68.784 -113.311,140.721 3.383,34.273 19.504,63.931 45.394,83.508 25.192,19.049 58.021,27.67 92.437,24.27 34.42,-3.395 64.931,-18.265 85.913,-41.87 21.56,-24.257 31.572,-56.495 28.193,-90.763 v 0 c -3.436,-34.826 -19.74,-65.952 -45.91,-87.644 -22.707,-18.822 -50.723,-28.851 -79.991,-28.851 z"
   id="path946" />
					</g>
					<path
   fill="#fe5719"
   d="m 1263.416,481.856 c 0,0 117.604,82.565 159.654,84.194 10.995,-117.112 -85.59,-114.409 -139.032,-109.125 -53.448,5.283 -146.459,15.414 -119.017,120.937 33.988,-12.39 98.395,-96.006 98.395,-96.006 z"
   id="path950" />
					<path
   d="m 1165.021,581.363 c -1.429,0 -2.771,-0.882 -3.289,-2.302 -0.662,-1.816 0.273,-3.825 2.089,-4.487 32.671,-11.911 97.979,-94.062 98.635,-94.89 1.154,-1.458 3.247,-1.76 4.766,-0.685 1.159,0.82 116.339,81.984 156.875,83.555 1.931,0.075 3.437,1.702 3.362,3.633 -0.075,1.931 -1.705,3.409 -3.633,3.362 -39.499,-1.531 -139.742,-70.243 -157.945,-82.94 -11.69,14.5 -68.153,83.056 -99.662,94.542 -0.395,0.144 -0.8,0.212 -1.198,0.212 z"
   id="path952" />
					<g
   id="g964">
						<g
   id="g962">
							<g
   id="g960">
								<g
   id="g958">
									<path
   fill="#fdc093"
   d="m 1420.31,586.311 c 0,0 0.249,-15.257 18.193,-19.677 18.918,-4.65 29.733,19.585 21.328,35.917 -8.416,16.305 -29.758,19.258 -37.892,8.329 z"
   id="path954" />
									<path
   d="m 1436.249,620.864 c -7.086,0 -13.375,-2.868 -17.117,-7.896 -1.154,-1.551 -0.832,-3.743 0.719,-4.897 1.552,-1.154 3.745,-0.832 4.897,0.718 2.711,3.643 7.492,5.466 13.118,5.008 6.169,-0.505 14.362,-4.146 18.855,-12.853 4.08,-7.928 3.081,-18.703 -2.377,-25.617 -2.218,-2.81 -7.119,-7.236 -15.005,-5.295 -14.972,3.688 -15.514,15.844 -15.53,16.36 -0.059,1.922 -1.672,3.441 -3.581,3.405 -1.923,-0.045 -3.449,-1.621 -3.418,-3.543 0.102,-6.21 4.591,-19.012 20.856,-23.019 8.54,-2.1 16.624,0.727 22.172,7.755 7.189,9.107 8.466,22.744 3.105,33.162 -4.859,9.415 -14.25,15.783 -24.507,16.622 -0.736,0.06 -1.466,0.09 -2.187,0.09 z"
   id="path956" />
								</g>
							</g>
						</g>
					</g>
					<g
   id="g1010">
						<path
   d="m 1272.063,606.019 c -0.232,0 -0.423,-0.022 -0.552,-0.042 -1.59,-0.257 -2.804,-1.577 -2.935,-3.182 -0.06,-0.734 0.111,-1.435 0.453,-2.028 3.319,-7.762 8.293,-9.722 11.886,-9.998 5.468,-0.421 10.225,2.508 13.407,8.246 0.35,0.499 0.574,1.096 0.622,1.748 0.122,1.642 -0.92,3.159 -2.499,3.627 -0.454,0.136 -2.789,0.673 -4.212,-1.92 -1.833,-3.338 -4.131,-4.929 -6.782,-4.721 -2.423,0.186 -4.443,2.141 -6.003,5.81 -0.9,2.116 -2.466,2.46 -3.385,2.46 z"
   id="path966" />
						<g
   id="g972">
							<g
   id="g970">
								<circle
   cx="1224.875"
   cy="591.53101"
   r="12.172"
   id="circle968" />
							</g>
						</g>
						<g
   id="g978">
							<g
   id="g976">
								<circle
   cx="1341.51"
   cy="581.164"
   r="12.172"
   id="circle974" />
							</g>
						</g>
						<g
   id="g994">
							<g
   id="g992">
								<g
   id="g984">
									<g
   id="g982">
										<circle
   fill="#fb5b4d"
   cx="1209.3409"
   cy="639.83698"
   r="19.622"
   id="circle980" />
									</g>
								</g>
								<g
   id="g990">
									<g
   id="g988">
										<circle
   fill="#fb5b4d"
   cx="1367.812"
   cy="628.95697"
   r="19.622"
   id="circle986" />
									</g>
								</g>
							</g>
						</g>
						<g
   id="g1008">
							<g
   id="g1006">
								<g
   id="g1004">
									<g
   id="g1002">
										<g
   id="g1000">
											<path
   fill="#fb5b4d"
   d="m 1264.455,636.906 c 5.398,0.636 36.473,-2.169 49.124,-3.715 6.713,7.124 5.524,51.631 -19.589,53.825 -25.307,2.179 -35.269,-42.357 -29.535,-50.11 z"
   id="path996" />
											<path
   d="m 1292.237,690.592 c -9.805,0 -18.594,-6.127 -24.929,-17.454 -7.526,-13.457 -10.28,-32.077 -5.667,-38.313 0.747,-1.01 1.973,-1.544 3.224,-1.395 4.604,0.544 33.899,-1.955 48.29,-3.713 1.102,-0.14 2.208,0.264 2.972,1.074 5.613,5.956 5.921,26.228 0.61,40.168 -4.533,11.899 -12.293,18.657 -22.442,19.544 -0.691,0.06 -1.377,0.089 -2.058,0.089 z m -25.57,-50.1 c -1.131,4.91 0.527,18.102 6.751,29.23 3.786,6.77 10.375,14.663 20.272,13.808 9.206,-0.804 14.057,-8.634 16.505,-15.062 4.714,-12.374 3.663,-26.701 1.623,-31.544 -11.742,1.349 -35.825,3.568 -45.061,3.568 -0.031,0 -0.061,0 -0.09,0 z"
   id="path998" />
										</g>
									</g>
								</g>
							</g>
						</g>
					</g>
				</g>
				<path
   d="m 1181.869,656.562 c -40.324,0 -73.129,-32.806 -73.129,-73.129 0,-40.323 32.806,-73.13 73.129,-73.13 40.323,0 73.13,32.806 73.13,73.13 0,40.324 -32.806,73.129 -73.13,73.129 z m 0,-139.26 c -36.464,0 -66.129,29.666 -66.129,66.13 0,36.464 29.666,66.129 66.129,66.129 36.464,0 66.13,-29.666 66.13,-66.129 0,-36.464 -29.666,-66.13 -66.13,-66.13 z"
   id="path1014" />
				<path
   d="m 1378.405,641.643 c -40.324,0 -73.13,-32.806 -73.13,-73.13 0,-40.324 32.806,-73.129 73.13,-73.129 40.324,0 73.129,32.806 73.129,73.129 0,40.323 -32.805,73.13 -73.129,73.13 z m 0,-139.259 c -36.464,0 -66.13,29.666 -66.13,66.129 0,36.464 29.666,66.13 66.13,66.13 36.464,0 66.129,-29.666 66.129,-66.13 10e-4,-36.464 -29.665,-66.129 -66.129,-66.129 z"
   id="path1016" />
				<path
   d="m 1253.329,570.094 c -1.812,0 -3.345,-1.396 -3.486,-3.232 -0.148,-1.928 1.294,-3.61 3.222,-3.758 l 53.608,-4.114 c 1.929,-0.143 3.61,1.294 3.758,3.222 0.148,1.928 -1.294,3.61 -3.222,3.758 l -53.608,4.114 c -0.091,0.007 -0.182,0.01 -0.272,0.01 z"
   id="path1018" />
			</g>
		</g>
</svg>
