<?xml version="1.0" encoding="UTF-8" standalone="no"?>
<!-- Generator: Adobe Illustrator 16.0.3, SVG Export Plug-In . SVG Version: 6.00 Build 0)  -->

<svg
   version="1.1"
   id="Layer_1"
   x="0px"
   y="0px"
   width="614.65558"
   height="661.92188"
   viewBox="0 0 614.65558 661.92188"
   enable-background="new 0 0 3200 1400"
   xml:space="preserve"
   xmlns="http://www.w3.org/2000/svg"
   xmlns:svg="http://www.w3.org/2000/svg"><defs
   id="defs1121" />

<g
   id="g10812"
   transform="translate(-1987.8082,-324.56712)"><g
     id="g158">
					<path
   d="m 2339.782,745.758 c -2.555,0 -5.151,-0.08 -7.793,-0.245 -1.929,-0.121 -3.396,-1.782 -3.274,-3.712 0.12,-1.929 1.766,-3.401 3.712,-3.274 32.497,2.04 62.186,-8.943 88.245,-32.629 19.595,-17.81 29.653,-36.517 29.753,-36.704 0.907,-1.706 3.026,-2.356 4.731,-1.45 1.707,0.906 2.357,3.022 1.453,4.729 -0.424,0.8 -10.62,19.814 -31.048,38.439 -17.779,16.211 -46.721,34.846 -85.779,34.846 z"
   id="path154" />
					<path
   d="m 2437.761,703.502 c -5.307,0.001 -10.373,-1.6 -14.251,-6.018 -12.87,-14.666 1.196,-37.401 1.801,-38.361 1.031,-1.636 3.193,-2.126 4.827,-1.096 1.635,1.03 2.126,3.189 1.098,4.825 -0.177,0.283 -11.864,19.304 -2.464,30.016 9.487,10.814 34.192,-5.928 34.439,-6.1 1.585,-1.105 3.767,-0.718 4.872,0.866 1.106,1.584 0.721,3.764 -0.862,4.872 -0.874,0.61 -15.942,10.996 -29.46,10.996 z"
   id="path156" />
				</g><g
     id="g204"
     transform="matrix(1.5101974,0,0,1,-1143.8669,-1.8700345)">
					<g
   id="g178">
						<path
   fill="#f8688d"
   d="m 2332.209,742.02 c -28.273,-2.404 -42.747,-4.748 -56.158,-7.088 -9.358,46.891 -72.007,34.266 -60.169,-8.479 -22.268,-3.594 -41.649,-9.09 -53.16,-13.421 -7.538,3.653 -22.349,42.409 -22.278,54.649 0,1.152 34.442,8.642 40.843,11.604 -10.339,36.98 -43.377,110.946 -45.737,145.611 38.976,32.239 160.713,21.172 192.951,7.674 -2.149,-18.019 -34.64,-107.118 -29.003,-133.278 0.265,-1.228 18.415,0.33 33.696,-1.907 1.036,-6.487 0.779,-41.419 -0.985,-55.365 z"
   id="path174" />
						<path
   d="m 2230.435,949.407 c -28.228,0 -74.503,-3.108 -97.116,-21.813 -0.868,-0.719 -1.338,-1.811 -1.262,-2.935 1.547,-22.713 15.861,-61.621 28.49,-95.948 6.504,-17.679 12.675,-34.452 16.476,-47.271 -4.728,-1.518 -13.3,-3.691 -20.475,-5.51 -4.511,-1.144 -8.771,-2.224 -11.924,-3.093 -5.273,-1.454 -7.681,-2.118 -7.681,-5.155 -0.074,-12.95 14.774,-53.206 24.252,-57.799 0.862,-0.42 1.859,-0.466 2.759,-0.126 5.209,1.959 24.387,8.706 52.485,13.241 0.982,0.158 1.852,0.728 2.389,1.565 0.537,0.837 0.692,1.864 0.427,2.824 -2.986,10.781 -0.975,20.261 5.665,26.69 6.786,6.571 17.344,8.895 26.901,5.914 6.236,-1.944 17.23,-7.874 20.797,-25.745 0.373,-1.864 2.17,-3.086 4.034,-2.764 13.546,2.363 28.01,4.681 55.853,7.049 1.645,0.14 2.968,1.41 3.176,3.048 1.729,13.669 2.123,49.137 0.969,56.357 -0.241,1.51 -1.436,2.688 -2.949,2.91 -8.972,1.313 -18.986,1.355 -25.614,1.383 -1.942,0.008 -4.05,0.017 -5.531,0.067 -2.087,18.451 11.06,63.41 19.884,93.59 4.917,16.816 8.801,30.099 9.537,36.268 0.185,1.553 -0.682,3.04 -2.124,3.644 -17.839,7.47 -57.903,13.183 -95.263,13.586 -1.335,0.015 -2.724,0.023 -4.155,0.023 z m -91.245,-26.091 c 16.854,12.791 50.573,19.572 95.322,19.068 38.742,-0.417 74.214,-6.343 90.074,-12.052 -1.307,-6.626 -4.85,-18.74 -8.867,-32.48 -10.526,-36.002 -23.628,-80.809 -19.645,-99.298 0.645,-2.986 3.801,-3.139 5.688,-3.229 1.574,-0.075 3.762,-0.084 6.295,-0.095 6.099,-0.025 14.214,-0.059 21.932,-0.956 0.62,-9.394 0.366,-35.411 -0.945,-49.016 -24.126,-2.117 -37.984,-4.201 -50.335,-6.315 -3.717,13.918 -12.621,23.933 -24.805,27.731 -11.965,3.731 -25.256,0.76 -33.854,-7.568 -7.75,-7.506 -10.681,-17.987 -8.424,-29.817 -17.447,-3.022 -35.146,-7.53 -48.387,-12.334 -5.601,5.563 -17.84,35.097 -19.177,48.443 3.041,0.915 9.11,2.454 14.205,3.746 12.222,3.098 21.133,5.411 24.488,6.964 1.559,0.722 2.363,2.466 1.901,4.119 -3.752,13.419 -10.45,31.625 -17.541,50.9 -12.125,32.961 -25.824,70.198 -27.925,92.189 z m 4.753,-155.686 c 0,0.011 0,0.021 0,0.031 0,-0.01 0,-0.02 0,-0.031 z"
   id="path176" />
					</g>
					<circle
   fill="#ffffff"
   cx="2182.001"
   cy="745.59497"
   r="7.3860002"
   id="circle180" />
					<circle
   fill="#ffffff"
   cx="2310.4661"
   cy="771.85199"
   r="7.3860002"
   id="circle182" />
					<circle
   fill="#ffffff"
   cx="2263.301"
   cy="780.422"
   r="7.3850002"
   id="circle184" />
					<circle
   fill="#ffffff"
   cx="2204.2241"
   cy="787.80701"
   r="7.3850002"
   id="circle186" />
					<circle
   fill="#ffffff"
   cx="2232.77"
   cy="825.99799"
   r="7.3850002"
   id="circle188" />
					<circle
   fill="#ffffff"
   cx="2283.5381"
   cy="854.64203"
   r="7.3860002"
   id="circle190" />
					<circle
   fill="#ffffff"
   cx="2177.7241"
   cy="839.87"
   r="7.3850002"
   id="circle192" />
					<circle
   fill="#ffffff"
   cx="2158.916"
   cy="907.58801"
   r="7.3850002"
   id="circle194" />
					<circle
   fill="#ffffff"
   cx="2218.0649"
   cy="869.41199"
   r="7.3860002"
   id="circle196" />
					<circle
   fill="#ffffff"
   cx="2255.916"
   cy="892.81598"
   r="7.3850002"
   id="circle198" />
					<circle
   fill="#ffffff"
   cx="2303.0811"
   cy="917.52301"
   r="7.3850002"
   id="circle200" />
					<circle
   fill="#ffffff"
   cx="2211.6101"
   cy="924.90802"
   r="7.3850002"
   id="circle202" />
				</g><g
     id="g172">
					<g
   id="g170">
						<g
   id="g168">
							<g
   id="g166">
								<g
   id="g164">
									<path
   fill="#fdd5a3"
   d="m 2261.809,707.004 c 0,0 -3.469,20.354 -3.989,25.056 7.177,1.411 12.867,2.43 18.231,2.872 0,0 29.946,20.688 4.854,44.747 -16.8,16.107 -81.373,6.807 -89.486,-15.007 -10.719,-28.824 24.464,-38.219 24.464,-38.219 0,0 5.679,0.883 16.622,2.684 1.027,-9.534 4.427,-24.793 4.427,-24.793 z"
   id="path160" />
									<path
   d="m 2250.628,791.321 c -8.856,0 -18.072,-1.135 -26.219,-3.001 -19.402,-4.445 -32.623,-12.62 -36.271,-22.429 -3.213,-8.638 -2.997,-16.586 0.64,-23.624 7.229,-13.991 25.43,-18.99 26.2,-19.196 0.471,-0.125 0.96,-0.152 1.441,-0.076 0.05,0.008 4.552,0.708 13.067,2.1 1.324,-9.336 3.903,-20.957 4.027,-21.513 0.388,-1.737 2.014,-2.91 3.788,-2.718 l 24.878,2.66 c 0.961,0.104 1.836,0.598 2.419,1.369 0.583,0.77 0.821,1.747 0.659,2.699 -0.029,0.171 -2.458,14.436 -3.526,21.661 5.829,1.11 10.31,1.836 14.606,2.19 0.61,0.051 1.197,0.261 1.701,0.608 0.616,0.426 15.098,10.594 16.305,25.66 0.688,8.583 -3.02,16.824 -11.019,24.493 -6.816,6.539 -19.347,9.117 -32.696,9.117 z m -34.506,-61.288 c -3.079,0.971 -16.034,5.56 -21.139,15.474 -2.681,5.206 -2.776,11.244 -0.284,17.945 2.729,7.337 14.712,14.251 31.272,18.045 22.076,5.056 44.651,3.189 52.511,-4.345 6.396,-6.133 9.386,-12.475 8.887,-18.849 -0.79,-10.101 -9.984,-17.93 -12.615,-19.973 -5.072,-0.478 -10.376,-1.415 -17.609,-2.837 -1.785,-0.352 -3.004,-2.012 -2.804,-3.819 0.394,-3.555 2.368,-15.466 3.396,-21.586 l -18.047,-1.93 c -1.03,4.903 -2.985,14.656 -3.707,21.353 -0.103,0.957 -0.595,1.828 -1.36,2.411 -0.767,0.582 -1.739,0.823 -2.688,0.667 -8.536,-1.403 -13.908,-2.256 -15.813,-2.556 z"
   id="path162" />
								</g>
							</g>
						</g>
					</g>
				</g><path
     d="m 2295.893,976.646 c -1.579,0 -3.148,-0.119 -4.715,-0.362 -14.261,-2.211 -25.041,-14.95 -26.823,-31.7 -0.204,-1.922 1.188,-3.646 3.11,-3.851 1.934,-0.208 3.646,1.188 3.851,3.11 1.464,13.761 9.682,23.778 20.935,25.523 19.432,3.011 40.986,-17.847 57.642,-55.8 0.777,-1.771 2.843,-2.577 4.611,-1.799 1.771,0.777 2.575,2.842 1.799,4.611 -16.774,38.218 -39.042,60.268 -60.41,60.268 z"
     id="path206" /><g
     id="g212">
					<path
   fill="#4dbbc5"
   d="m 2353.097,913.897 c 12.001,26.264 16.272,61.5 28.773,53.54 25.026,-15.936 -9.668,-85.81 -28.773,-53.54 z"
   id="path208" />
					<path
   d="m 2378.414,972.078 c -1.097,0 -2.046,-0.216 -2.809,-0.489 -7.11,-2.55 -10.874,-14.102 -16.083,-30.088 -2.725,-8.362 -5.813,-17.841 -9.609,-26.148 -0.476,-1.043 -0.412,-2.252 0.172,-3.238 5.694,-9.616 12.391,-10.712 17.008,-9.928 12.15,2.052 22.732,19.682 25.944,35.539 3.051,15.058 -0.335,26.963 -9.287,32.664 -1.992,1.268 -3.808,1.688 -5.336,1.688 z m -21.353,-57.891 c 3.6,8.21 6.521,17.174 9.117,25.146 3.708,11.379 7.91,24.276 11.791,25.668 0.232,0.084 0.775,0.278 2.021,-0.515 9.054,-5.766 7.343,-19.662 6.187,-25.37 -3.024,-14.933 -12.298,-28.684 -20.249,-30.026 -3.184,-0.539 -6.166,1.174 -8.867,5.097 z"
   id="path210" />
				</g><path
     d="m 2211.955,986.489 c -1.3,0 -2.593,-0.11 -3.883,-0.334 -13.892,-2.409 -24.023,-17.686 -26.441,-39.868 -0.209,-1.921 1.179,-3.648 3.101,-3.858 1.935,-0.205 3.649,1.18 3.858,3.101 2.065,18.951 9.989,31.875 20.679,33.729 12.369,2.151 26.798,-11.094 38.604,-35.408 0.845,-1.739 2.937,-2.466 4.677,-1.62 1.739,0.844 2.465,2.938 1.62,4.677 -12.352,25.438 -27.538,39.581 -42.215,39.581 z"
     id="path214" /><g
     id="g220"
     transform="translate(-37.400689,-3.7400689)">
					<path
   d="m 2158.916,716.243 c -0.4,0 -0.807,-0.069 -1.204,-0.215 -41.163,-15.08 -65.032,-41.173 -77.808,-60.408 -13.876,-20.893 -17.951,-38.064 -18.118,-38.785 -0.436,-1.883 0.738,-3.763 2.621,-4.199 1.89,-0.434 3.762,0.737 4.198,2.618 v 0 c 0.039,0.167 4.038,16.871 17.298,36.746 12.192,18.274 34.966,43.076 74.217,57.456 1.814,0.665 2.747,2.675 2.082,4.49 -0.519,1.418 -1.859,2.297 -3.286,2.297 z"
   id="path216" />
					<path
   d="m 2071.709,652.586 c -17.142,0.002 -29.662,-22.853 -30.259,-23.963 -0.916,-1.702 -0.278,-3.824 1.424,-4.74 1.702,-0.916 3.824,-0.278 4.74,1.423 0.122,0.225 11.102,20.229 24.196,20.231 1.612,0 3.256,-0.303 4.916,-0.983 7.896,-3.237 9.667,-22.433 9.664,-28.902 -10e-4,-1.933 1.564,-3.501 3.497,-3.502 10e-4,0 0,0 0,0 1.931,0 3.497,1.563 3.5,3.494 0,3.032 -0.352,29.79 -14.01,35.387 -2.637,1.081 -5.203,1.555 -7.671,1.555 z"
   id="path218" />
				</g><g
     id="g248">
					<g
   id="g228">
						<path
   fill="#4dbbc5"
   d="m 2037.397,407.772 c -5.408,-3.029 -49.845,-5.766 -45.834,19.333 4.011,25.1 38.178,23.397 49.428,-11.167 -5.579,-7.965 -3.594,-8.166 -3.594,-8.166 z"
   id="path224" />
						<path
   d="m 2010.197,447.656 c -0.632,0 -1.256,-0.024 -1.874,-0.073 -10.639,-0.833 -18.385,-8.468 -20.216,-19.926 -1.25,-7.822 1.438,-14.293 7.772,-18.715 12.971,-9.053 38.396,-6.93 43.228,-4.224 1.333,0.746 2.027,2.271 1.717,3.766 -0.021,0.104 -0.047,0.205 -0.077,0.304 0.321,0.75 1.127,2.31 3.111,5.143 0.631,0.901 0.802,2.045 0.461,3.091 -6.961,21.387 -21.807,30.634 -34.122,30.634 z m 12.785,-38.266 c -7.853,0 -17.439,1.221 -23.289,5.43 -4.007,2.883 -5.492,6.612 -4.674,11.733 1.314,8.223 6.492,13.476 13.851,14.052 9.3,0.719 21.927,-6.543 28.242,-24.138 -1.72,-2.579 -2.776,-4.564 -3.256,-6.183 -2.314,-0.48 -6.3,-0.894 -10.874,-0.894 z m 14.773,1.863 v 0 c 0,0.001 0,0.001 0,0 z"
   id="path226" />
					</g>
					<g
   id="g234">
						<path
   fill="#4dbbc5"
   d="m 2077.473,388.882 c 5.409,3.029 51.723,3.234 47.712,-21.865 -4.011,-25.099 -39.299,-17.981 -50.548,16.583 2.836,5.282 2.836,5.282 2.836,5.282 z"
   id="path230" />
						<path
   d="m 2088.688,393.718 c -6.14,0 -11.069,-0.743 -12.924,-1.782 -0.582,-0.326 -1.059,-0.811 -1.374,-1.398 l -2.837,-5.283 c -0.451,-0.841 -0.54,-1.831 -0.244,-2.739 7.702,-23.667 25.595,-34.97 39.296,-33.89 9.629,0.753 16.372,7.422 18.036,17.838 1.273,7.966 -1.668,14.7 -8.506,19.472 -8.345,5.825 -21.487,7.782 -31.447,7.782 z m -8.752,-7.649 c 4.988,1.219 26.162,1.61 36.683,-6.225 4.252,-3.167 5.924,-7.182 5.11,-12.274 -1.153,-7.217 -5.298,-11.466 -11.67,-11.964 -10.424,-0.816 -24.881,8.608 -31.619,27.678 z"
   id="path232" />
					</g>
					<path
   fill="#fe5719"
   d="m 2194.474,442.837 c -1.199,-1.334 -25.191,-22.226 -54.132,2.625 2.299,-12.734 -21.196,-22.107 -31.304,-9.551 3.892,-14.774 -6.48,-22.329 -21.44,-16.715 10.115,-10.962 0.335,-25.947 -10.069,-23.772 -9.347,-14.665 -9.733,-41.599 1.681,-64.743 -10.979,2.957 -32.224,28.844 -32.224,28.844 0,0 -12.823,-13.164 -16.12,-31.457 -16.083,24.355 -13.97,63.805 19.811,92.675 -6.5,9.033 4.157,19.826 18.924,17.113 -9.197,15.563 9.643,29.675 23.852,18.865 1.176,23.136 24.395,26.38 33.79,14.601 5.354,21.635 26.573,39.021 44.503,33.359 8.195,-21.017 22.728,-61.844 22.728,-61.844 z"
   id="path236"
   style="fill:#803300" /><path
   d="m 2164.687,509.247 c -5.456,0 -11.142,-1.56 -16.59,-4.616 -10.027,-5.624 -18.323,-15.663 -22.556,-26.995 -5.507,3.799 -12.75,4.934 -19.49,2.766 -7.934,-2.552 -13.44,-9.117 -15.377,-18.021 -8.039,3.437 -16.192,1.074 -21.073,-3.268 -5.1,-4.537 -6.974,-10.945 -5.377,-17.353 -7.253,-0.225 -13.669,-3.327 -16.942,-8.497 -2.327,-3.675 -2.66,-7.894 -1.034,-11.751 -33.443,-30.188 -34.692,-70.552 -18.303,-95.373 0.789,-1.195 2.227,-1.788 3.625,-1.5 1.401,0.288 2.486,1.399 2.74,2.807 2.184,12.114 8.932,21.977 12.655,26.672 6.339,-7.366 21.666,-24.214 31.334,-26.817 1.33,-0.359 2.741,0.095 3.614,1.157 0.873,1.063 1.043,2.537 0.435,3.771 -11.18,22.669 -9.965,46.508 -2.939,59.487 0.044,0 0.088,0 0.132,0 5.311,0 10.49,3.144 13.467,8.393 2.083,3.673 3.174,8.692 1.635,13.832 5.521,-0.51 10.325,0.821 13.776,3.938 2.902,2.622 4.552,6.2 4.887,10.44 6.339,-2.828 13.842,-2.08 19.464,0.487 5.101,2.328 8.709,5.961 10.307,10.086 14.186,-9.991 26.957,-9.975 35.532,-7.971 10.264,2.4 17.282,8.254 18.469,9.575 0.859,0.955 1.125,2.304 0.694,3.514 -0.145,0.409 -14.644,41.117 -22.765,61.942 -0.385,0.987 -1.196,1.747 -2.207,2.066 -2.603,0.822 -5.328,1.229 -8.113,1.229 z m -37.446,-41.425 c 0.248,0 0.499,0.026 0.748,0.081 1.302,0.285 2.329,1.284 2.649,2.578 2.895,11.697 10.896,22.443 20.882,28.044 4.293,2.408 10.711,4.816 17.601,3.244 7.025,-18.163 18.144,-49.159 21.235,-57.809 -5.484,-4.077 -24.809,-15.531 -47.734,4.155 -1.124,0.965 -2.734,1.118 -4.02,0.382 -1.285,-0.736 -1.968,-2.202 -1.705,-3.659 0.795,-4.401 -3.293,-7.957 -7.035,-9.665 -5.544,-2.53 -13.571,-2.694 -18.098,2.932 -1.035,1.287 -2.831,1.673 -4.304,0.93 -1.475,-0.745 -2.229,-2.418 -1.808,-4.016 1.4,-5.316 0.716,-9.559 -1.928,-11.946 -3.032,-2.74 -8.602,-2.964 -14.897,-0.601 -1.519,0.57 -3.229,0.023 -4.133,-1.323 -0.905,-1.345 -0.769,-3.136 0.331,-4.328 5.408,-5.861 2.815,-11.631 1.892,-13.26 -1.646,-2.905 -4.971,-5.482 -8.674,-4.712 -1.416,0.3 -2.884,-0.316 -3.667,-1.544 -9.041,-14.184 -9.828,-37.422 -2.612,-58.314 -7.482,5.992 -16.692,15.954 -22.273,22.754 -0.632,0.77 -1.563,1.234 -2.558,1.277 -1.005,0.035 -1.96,-0.341 -2.655,-1.055 -0.466,-0.478 -9.755,-10.141 -14.758,-24.561 -10.299,22.935 -5.912,55.771 23.229,80.677 1.383,1.182 1.63,3.228 0.566,4.705 -2.015,2.801 -1.287,5.206 -0.321,6.731 2.129,3.362 7.968,6.329 15.771,4.896 1.354,-0.247 2.719,0.314 3.503,1.439 0.784,1.125 0.841,2.604 0.144,3.784 -3.102,5.248 -2.487,10.574 1.642,14.247 3.807,3.387 10.774,4.847 17.078,0.052 1.033,-0.786 2.416,-0.934 3.594,-0.389 1.177,0.547 1.955,1.7 2.021,2.997 0.446,8.771 4.546,15.039 11.248,17.195 5.925,1.906 12.632,0.015 16.311,-4.599 0.672,-0.844 1.683,-1.319 2.735,-1.319 z"
   id="path238" />
					<g
   id="g246">
						<path
   fill="#4dbbc5"
   d="m 2084.117,396.265 c 0,0 -4.614,-18.428 -15.207,-18.428 -24.955,8.023 -34.655,21.694 -34.655,21.694 0,0 -2.326,19.048 16.421,21.213 3.137,-5.47 33.441,-24.479 33.441,-24.479 z"
   id="path242" />
						<path
   d="m 2050.677,424.244 c -0.134,0 -0.268,-0.007 -0.402,-0.023 -6.435,-0.743 -11.434,-3.323 -14.855,-7.668 -5.794,-7.355 -4.688,-17.037 -4.639,-17.446 0.071,-0.577 0.284,-1.127 0.62,-1.601 0.424,-0.597 10.671,-14.716 36.438,-23 0.347,-0.111 0.708,-0.168 1.071,-0.168 12.95,0 18.062,18.92 18.603,21.078 0.368,1.47 -0.252,3.01 -1.536,3.815 -14.218,8.919 -30.597,20.346 -32.265,23.255 -0.628,1.095 -1.792,1.758 -3.035,1.758 z m -13.02,-23.371 c -0.168,3.378 0.262,13.791 11.585,16.104 5.779,-6.096 22.71,-17.144 30.758,-22.251 -1.678,-4.906 -5.461,-12.887 -10.604,-13.365 -19.833,6.514 -29.437,16.765 -31.739,19.512 z"
   id="path244" />
					</g>
				</g><g
     id="g274">
					<g
   id="g254">
						<path
   fill="#4dbbc5"
   d="m 2557.381,488.891 c 5.957,-1.714 49.845,5.766 40.209,29.287 -9.635,23.521 -42.511,14.063 -45.572,-22.156 7.25,-6.482 5.363,-7.131 5.363,-7.131 z"
   id="path250" />
						<path
   d="m 2580.12,534.562 c -1.155,0 -2.33,-0.09 -3.523,-0.273 -12.535,-1.923 -26.075,-14.411 -28.066,-37.973 -0.093,-1.096 0.335,-2.171 1.154,-2.904 2.579,-2.305 3.719,-3.639 4.203,-4.297 -0.01,-0.104 -0.01,-0.208 -0.01,-0.313 0.039,-1.527 1.063,-2.852 2.531,-3.274 5.328,-1.533 30.563,2.209 41.122,13.982 5.157,5.751 6.297,12.665 3.295,19.995 -3.902,9.522 -11.648,15.056 -20.71,15.057 z m -24.446,-37.141 c 2.132,18.572 12.757,28.533 21.984,29.949 7.297,1.119 13.536,-2.812 16.694,-10.519 1.966,-4.8 1.371,-8.769 -1.872,-12.49 -7.492,-8.599 -25.807,-12.049 -32.226,-12.216 -0.835,1.466 -2.317,3.157 -4.58,5.276 z m 0.568,-5.221 h 0.011 z m -0.01,-10e-4 z"
   id="path252" />
					</g>
					<g
   id="g260">
						<path
   fill="#4dbbc5"
   d="m 2522.676,461.351 c -5.957,1.714 -51.094,-8.66 -41.459,-32.181 9.635,-23.521 42.366,-8.534 45.428,27.685 -3.969,4.496 -3.969,4.496 -3.969,4.496 z"
   id="path256" />
						<path
   d="m 2521.105,464.976 c -8.396,0 -29.55,-5.37 -39.292,-16.232 -5.567,-6.208 -6.894,-13.435 -3.835,-20.9 3.998,-9.761 12.08,-14.711 21.632,-13.25 13.58,2.083 28.426,17.168 30.521,41.967 0.081,0.952 -0.231,1.895 -0.863,2.611 l -3.969,4.496 c -0.441,0.5 -1.016,0.863 -1.656,1.047 -0.605,0.173 -1.468,0.261 -2.538,0.261 z m 1.571,-3.625 h 0.01 z m -26.298,-40.009 c -5.293,0 -9.478,3.186 -11.922,9.154 -1.955,4.772 -1.245,9.063 2.173,13.117 8.408,9.977 28.938,14.436 34.21,14.436 0.028,0 0.056,0 0.082,0 l 2.094,-2.371 c -2.207,-20.104 -14.11,-32.577 -24.466,-34.166 -0.742,-0.113 -1.467,-0.17 -2.171,-0.17 z"
   id="path258" />
					</g>
					<path
   fill="#fe5719"
   d="m 2396.447,487.168 c 1.473,-1.025 29.602,-15.888 52.104,14.914 0.669,-12.922 25.684,-16.684 32.657,-2.151 -0.415,-15.272 11.407,-20.26 24.69,-11.379 -7.346,-12.981 5.598,-25.337 15.23,-20.845 12.449,-12.144 18.975,-38.278 13.145,-63.416 10.015,5.385 24.788,35.438 24.788,35.438 0,0 15.489,-9.889 22.876,-26.946 10.098,27.384 -0.967,65.31 -40.445,85.706 4.266,10.278 -8.574,18.353 -22.331,12.34 5.4,17.251 -16.163,26.689 -27.528,12.921 -6.427,22.256 -29.773,20.114 -36.231,6.5 -10.151,19.841 -34.78,31.924 -50.944,22.317 -3.183,-22.332 -8.011,-65.399 -8.011,-65.399 z"
   id="path262"
   style="fill:#803300" /><path
   d="m 2417.286,559.416 c -5.332,0 -10.331,-1.292 -14.617,-3.838 -0.911,-0.542 -1.527,-1.466 -1.677,-2.515 -3.152,-22.129 -7.975,-65.072 -8.023,-65.503 -0.143,-1.277 0.425,-2.529 1.479,-3.263 1.456,-1.014 9.615,-5.105 20.141,-5.105 0.01,0 0.018,0 0.026,0 8.808,0.006 21.245,2.908 32.774,15.873 2.497,-3.651 6.84,-6.365 12.337,-7.467 6.055,-1.215 13.536,-0.232 19.061,3.969 1.295,-4.051 3.718,-7.159 7.142,-9.048 4.07,-2.247 9.056,-2.445 14.312,-0.688 -0.325,-5.355 1.883,-9.993 4.75,-13.094 4.13,-4.468 9.952,-6.339 15.155,-5.066 9.803,-11.033 16.428,-33.964 10.719,-58.587 -0.311,-1.339 0.191,-2.736 1.283,-3.571 1.094,-0.835 2.573,-0.953 3.783,-0.302 8.818,4.742 19.895,24.645 24.386,33.263 4.695,-3.72 13.518,-11.783 18.409,-23.079 0.569,-1.313 1.912,-2.156 3.309,-2.107 1.431,0.04 2.692,0.945 3.188,2.288 10.29,27.906 -0.142,66.92 -39.594,88.675 0.703,4.126 -0.585,8.158 -3.689,11.204 -4.366,4.286 -11.32,5.842 -18.436,4.405 0.091,6.604 -3.196,12.414 -9.197,15.667 -5.742,3.114 -14.222,3.547 -21.261,-1.629 -3.919,8.227 -10.779,13.36 -19.085,14.034 -7.058,0.568 -13.851,-2.188 -18.345,-7.143 -6.708,10.065 -17.077,17.946 -28.123,21.132 -3.47,0.998 -6.902,1.495 -10.207,1.495 z m -9.609,-9.083 c 6.351,3.105 13.147,2.225 17.875,0.86 11.002,-3.173 21.245,-11.809 26.733,-22.536 0.607,-1.187 1.845,-1.961 3.169,-1.905 1.332,0.02 2.538,0.795 3.109,1.999 2.529,5.333 8.638,8.703 14.83,8.202 7.018,-0.569 12.44,-5.735 14.877,-14.173 0.359,-1.247 1.381,-2.192 2.651,-2.456 1.275,-0.261 2.584,0.198 3.41,1.199 5.041,6.108 12.159,6.276 16.639,3.848 4.857,-2.633 6.671,-7.678 4.851,-13.495 -0.41,-1.309 -0.018,-2.735 1.003,-3.651 1.021,-0.916 2.483,-1.151 3.738,-0.602 7.266,3.175 13.632,1.622 16.474,-1.166 1.288,-1.264 2.546,-3.44 1.224,-6.626 -0.698,-1.681 0.01,-3.616 1.626,-4.451 34.058,-17.595 45.825,-48.563 41.034,-73.243 -8.162,12.896 -19.413,20.184 -19.975,20.543 -0.839,0.535 -1.865,0.688 -2.827,0.42 -0.959,-0.269 -1.758,-0.933 -2.197,-1.826 -3.883,-7.896 -10.575,-19.695 -16.491,-27.237 2.255,21.987 -3.817,44.431 -15.856,56.175 -1.042,1.016 -2.605,1.281 -3.924,0.667 -3.428,-1.599 -7.253,0.157 -9.52,2.608 -1.271,1.375 -5.113,6.4 -1.187,13.342 0.799,1.411 0.523,3.186 -0.665,4.289 -1.188,1.104 -2.979,1.246 -4.326,0.344 -5.592,-3.738 -11.064,-4.792 -14.642,-2.816 -3.118,1.721 -4.753,5.695 -4.604,11.19 0.045,1.651 -1.071,3.109 -2.677,3.497 -1.605,0.39 -3.264,-0.399 -3.978,-1.888 -3.123,-6.508 -10.979,-8.185 -16.95,-6.985 -4.033,0.809 -8.825,3.337 -9.057,7.804 -0.076,1.479 -1.076,2.75 -2.496,3.173 -1.419,0.422 -2.951,-0.094 -3.825,-1.29 -17.826,-24.401 -39.255,-17.661 -45.525,-14.943 1.037,9.127 4.785,41.842 7.479,61.129 z"
   id="path264" />
					<g
   id="g272">
						<path
   fill="#4dbbc5"
   d="m 2514.522,467.021 c 0,0 8.699,-16.888 19.012,-14.469 22.465,13.509 28.788,29.033 28.788,29.033 0,0 -2.084,19.076 -20.83,16.904 -1.805,-6.042 -26.97,-31.468 -26.97,-31.468 z"
   id="path268" />
						<path
   d="m 2544.403,502.163 c -1.074,0 -2.179,-0.065 -3.314,-0.197 -1.39,-0.161 -2.55,-1.134 -2.95,-2.475 -0.961,-3.214 -14.298,-18.079 -26.104,-30.008 -1.066,-1.077 -1.318,-2.718 -0.624,-4.064 1.019,-1.977 10.322,-19.23 22.922,-16.274 0.354,0.083 0.693,0.221 1.005,0.408 23.196,13.949 29.949,30.035 30.226,30.712 0.22,0.538 0.301,1.123 0.238,1.7 -0.045,0.409 -1.179,10.088 -8.498,15.926 -3.562,2.841 -7.89,4.272 -12.901,4.272 z m -0.655,-7.015 c 0.188,0.005 0.374,0.008 0.557,0.008 11.08,0 13.797,-9.755 14.398,-13.044 -1.604,-3.182 -8.613,-15.364 -26.446,-26.242 -5.124,-0.712 -10.635,6.192 -13.378,10.587 6.668,6.81 20.633,21.436 24.869,28.691 z"
   id="path270" />
					</g>
				</g><g
     id="g280">
							<path
   fill="#fe5719"
   d="m 2425.75,573.926 c -16.428,83.109 -92.222,125.614 -172.252,109.792 -80.023,-15.818 -133.948,-83.967 -117.514,-167.084 16.427,-83.105 94.013,-134.663 174.042,-118.841 80.031,15.819 132.155,93.029 115.724,176.133 z"
   id="path276"
   style="fill:#803300" />
							<path
   d="m 2286.372,690.481 c -11.045,0 -22.281,-1.101 -33.553,-3.329 -40.371,-7.98 -74.848,-29.174 -97.078,-59.677 -22.948,-31.487 -31.184,-71.092 -23.19,-111.519 8.089,-40.921 31.045,-75.987 64.642,-98.738 33.389,-22.61 73.701,-30.729 113.513,-22.858 39.811,7.869 74.001,30.717 96.274,64.335 22.408,33.822 30.292,74.991 22.204,115.91 v 0 c -7.99,40.425 -30.676,73.914 -63.877,94.299 -23.186,14.236 -50.416,21.577 -78.935,21.577 z M 2281,398.433 c -28.354,0 -55.981,8.395 -79.883,24.581 -32.059,21.709 -53.971,55.199 -61.699,94.299 -7.61,38.49 0.195,76.148 21.98,106.039 21.19,29.076 54.14,49.295 92.778,56.933 38.643,7.64 76.807,1.479 107.467,-17.346 31.519,-19.352 53.065,-51.205 60.673,-89.691 v 0 c 7.73,-39.101 0.211,-78.41 -21.173,-110.687 -21.232,-32.048 -53.833,-53.83 -91.796,-61.334 -9.455,-1.87 -18.942,-2.794 -28.347,-2.794 z"
   id="path278" />
						</g><g
     id="g286">
							<path
   fill="#fdd5a3"
   d="m 2398.263,616.317 c -14.474,73.201 -81.223,110.637 -151.716,96.7 -70.482,-13.932 -117.977,-73.953 -103.502,-147.162 14.468,-73.196 82.807,-118.604 153.291,-104.668 70.488,13.93 116.399,81.935 101.927,155.13 z"
   id="path282" />
							<path
   d="m 2275.505,719.392 c -9.757,0 -19.68,-0.972 -29.637,-2.94 -35.661,-7.049 -66.118,-25.773 -85.76,-52.725 -20.281,-27.827 -27.561,-62.827 -20.497,-98.55 7.146,-36.15 27.428,-67.128 57.11,-87.228 29.503,-19.978 65.122,-27.15 100.294,-20.195 35.173,6.951 65.382,27.137 85.062,56.841 19.8,29.884 26.767,66.251 19.619,102.402 l -3.434,-0.679 3.434,0.679 c -7.063,35.721 -27.111,65.315 -56.453,83.331 -20.484,12.576 -44.546,19.064 -69.738,19.064 z m -4.734,-257.224 c -24.891,0 -49.141,7.369 -70.124,21.577 -28.146,19.059 -47.383,48.46 -54.168,82.789 -6.68,33.786 0.17,66.838 19.287,93.07 18.602,25.523 47.531,43.273 81.46,49.98 9.828,1.943 19.479,2.884 28.841,2.884 59.172,0.003 107.041,-37.547 118.763,-96.829 6.788,-34.33 0.187,-68.842 -18.587,-97.178 -18.64,-28.133 -47.258,-47.254 -80.584,-53.84 -8.302,-1.642 -16.632,-2.453 -24.888,-2.453 z"
   id="path284" />
						</g><g
     id="g292">
							<g
   id="g290">
								<circle
   fill="#fb5b4d"
   cx="2185.8589"
   cy="600.71802"
   r="19.622"
   id="circle288" />
							</g>
						</g><g
     id="g298">
							<g
   id="g296">
								<circle
   fill="#fb5b4d"
   cx="2345.4031"
   cy="635.02899"
   r="19.622"
   id="circle294" />
							</g>
						</g><path
     d="m 2355.386,599.164 c -1.088,0 -2.776,-0.465 -3.534,-3.123 -1.836,-6.432 -5.92,-14.38 -14.957,-15.722 -6.643,-0.983 -12.988,2.627 -18.854,10.741 -0.51,0.704 -2.061,2.844 -4.631,1.807 -1.493,-0.604 -2.386,-2.174 -2.158,-3.768 0.114,-0.796 0.487,-1.492 1.023,-2.012 0.028,-0.04 0.06,-0.083 0.093,-0.129 9.367,-12.955 19.07,-14.527 25.555,-13.563 9.931,1.474 17.268,8.834 20.661,20.725 0.01,0.017 0.01,0.033 0.014,0.049 0.278,0.601 0.39,1.287 0.284,1.99 -0.244,1.629 -1.603,2.891 -3.246,2.997 -0.08,0.005 -0.163,0.008 -0.25,0.008 z"
     id="path300" /><path
     d="m 2266.279,682.081 c -5.295,0 -10.189,-0.594 -14.612,-1.524 -22.164,-4.661 -39.708,-17.524 -52.147,-38.233 -9.747,-16.227 -13.323,-32.359 -14.67,-38.432 -0.093,-0.417 -0.192,-0.867 -0.272,-1.214 -0.413,-0.721 -0.571,-1.59 -0.386,-2.466 0.357,-1.679 1.778,-2.855 3.456,-2.863 0.01,0 0.015,0 0.022,0 2.899,0 3.44,2.442 4.014,5.027 8.887,40.083 30.126,64.748 61.424,71.33 20.07,4.223 51.03,0.654 84.55,-40.298 2.176,-2.66 3.617,-4.412 6.205,-3.182 1.475,0.702 2.271,2.333 1.936,3.968 -0.202,0.984 -0.8,1.787 -1.593,2.276 -0.302,0.359 -0.721,0.871 -1.131,1.372 -28.551,34.88 -55.793,44.238 -76.796,44.239 z m 72.659,-49.285 z"
     id="path302" /><path
     d="m 2281.215,598.675 c -0.729,0 -2.761,-0.24 -3.496,-2.813 -1.046,-3.661 -2.918,-5.716 -5.563,-6.109 -2.405,-0.357 -4.808,1.099 -7.144,4.331 -1.688,2.334 -3.775,1.727 -4.376,1.484 -1.493,-0.604 -2.384,-2.16 -2.155,-3.754 0.104,-0.729 0.427,-1.374 0.892,-1.877 4.96,-6.831 10.246,-7.638 13.811,-7.107 5.423,0.805 9.411,4.715 11.239,11.016 0.231,0.565 0.317,1.199 0.219,1.847 -0.247,1.627 -1.6,2.874 -3.242,2.979 -0.046,10e-4 -0.109,0.003 -0.185,0.003 z"
     id="path304" /><path
     d="m 2229.866,577.526 c -1.093,0 -2.774,-0.468 -3.528,-3.117 -1.83,-6.433 -5.911,-14.383 -14.955,-15.725 -4.579,-0.68 -11.57,0.633 -18.865,10.755 -1.361,1.89 -2.921,2.491 -4.635,1.789 -1.497,-0.613 -2.383,-2.2 -2.136,-3.799 0.119,-0.775 0.485,-1.451 1.005,-1.962 0.026,-0.038 0.056,-0.078 0.087,-0.121 9.354,-12.979 19.067,-14.551 25.572,-13.586 9.937,1.474 17.274,8.837 20.66,20.733 0,0.015 0.01,0.029 0.012,0.043 0.272,0.59 0.384,1.262 0.286,1.953 -0.231,1.637 -1.588,2.914 -3.237,3.027 -0.083,0.006 -0.172,0.01 -0.266,0.01 z"
     id="path306" /><path
     fill="#fe5719"
     d="m 2296.547,473.489 c 0,0 45.609,112.546 110.442,127.731 1.115,-108.076 -52.538,-137.714 -105.226,-148.12 -52.687,-10.405 -142.848,12.249 -160.493,101.588 35.509,7.015 155.277,-81.199 155.277,-81.199 z"
     id="path308"
     style="fill:#803300" /><path
     d="m 2406.992,604.721 c -0.265,0 -0.532,-0.03 -0.801,-0.093 -27.797,-6.511 -55.275,-30.419 -81.671,-71.062 -15.129,-23.294 -25.53,-45.707 -29.467,-54.668 -8.975,6.466 -33.719,24.002 -60.994,40.802 -46.4,28.58 -77.839,41.508 -93.468,38.423 -1.896,-0.375 -3.13,-2.215 -2.755,-4.112 0.374,-1.896 2.21,-3.134 4.112,-2.755 27.865,5.503 119.553,-56.303 152.522,-80.584 0.869,-0.641 1.987,-0.843 3.027,-0.55 1.039,0.294 1.886,1.052 2.291,2.053 0.45,1.109 45.685,111.043 107.997,125.638 1.883,0.441 3.051,2.324 2.61,4.206 -0.375,1.613 -1.814,2.702 -3.403,2.702 z"
     id="path310" /><g
     id="g330">
							<g
   id="g328">
								<g
   id="g318">
									<g
   id="g316">
										<path
   fill="#fdd5a3"
   d="m 2393.063,615.863 c 0,0 4.654,-14.53 23.107,-13.57 19.454,1.024 22.797,27.35 10.023,40.55 -12.771,13.175 -34.056,9.827 -38.678,-2.991 z"
   id="path312" />
										<path
   d="m 2406.537,654.742 c -2.04,0 -4.081,-0.211 -6.094,-0.644 -7.813,-1.681 -13.878,-6.563 -16.22,-13.059 -0.656,-1.818 0.286,-3.824 2.104,-4.48 1.82,-0.655 3.824,0.286 4.479,2.105 1.541,4.272 5.59,7.404 11.108,8.591 6.05,1.299 14.945,0.185 21.764,-6.849 6.199,-6.407 8.362,-17.007 5.14,-25.204 -1.311,-3.333 -4.72,-8.987 -12.833,-9.415 -15.578,-0.806 -19.553,11.022 -19.591,11.143 -0.589,1.84 -2.563,2.856 -4.4,2.265 -1.841,-0.589 -2.855,-2.56 -2.266,-4.401 1.895,-5.913 9.918,-16.871 26.622,-15.997 8.787,0.462 15.705,5.508 18.982,13.843 4.245,10.797 1.52,24.218 -6.627,32.636 -5.896,6.086 -14.008,9.466 -22.168,9.466 z"
   id="path314" />
									</g>
								</g>
								<g
   id="g326">
									<g
   id="g324">
										<path
   fill="#fdd5a3"
   d="m 2147.224,567.313 c 0,0 1.226,-15.207 -16.206,-21.338 -18.387,-6.458 -31.489,16.621 -24.709,33.681 6.803,17.044 27.76,22.044 36.906,11.953 z"
   id="path320" />
										<path
   d="m 2130.484,600.285 c -1.518,0 -3.069,-0.138 -4.639,-0.421 -10.129,-1.826 -18.86,-9.072 -22.787,-18.911 -4.328,-10.889 -1.737,-24.336 6.299,-32.704 6.201,-6.458 14.518,-8.493 22.819,-5.577 15.803,5.559 19.034,18.732 18.535,24.922 -0.155,1.927 -1.854,3.357 -3.77,3.208 -1.92,-0.155 -3.353,-1.831 -3.209,-3.749 0.036,-0.561 0.639,-12.67 -13.878,-17.776 -7.671,-2.695 -12.971,1.238 -15.449,3.821 -6.101,6.354 -8.138,16.979 -4.844,25.266 3.63,9.098 11.434,13.514 17.525,14.612 5.555,1.001 10.486,-0.354 13.534,-3.716 1.297,-1.434 3.512,-1.541 4.943,-0.243 1.433,1.298 1.541,3.512 0.242,4.944 -3.707,4.093 -9.231,6.324 -15.321,6.324 z"
   id="path322" />
									</g>
								</g>
							</g>
						</g></g>
</svg>
