<?xml version="1.0" encoding="UTF-8" standalone="no"?>
<!-- Generator: Adobe Illustrator 16.0.3, SVG Export Plug-In . SVG Version: 6.00 Build 0)  -->

<svg
   version="1.1"
   id="Layer_1"
   x="0px"
   y="0px"
   width="164.17851"
   height="93.336998"
   viewBox="0 0 164.17851 93.336998"
   enable-background="new 0 0 3200 1400"
   xml:space="preserve"
   xmlns="http://www.w3.org/2000/svg"
   xmlns:svg="http://www.w3.org/2000/svg"><defs
   id="defs1121" />

<path
   d="m 158.42349,10.521997 c -3.891,-4.6229998 -10.096,-7.3639998 -17.024,-7.5219998 -0.241,0 -0.483,-0.01 -0.727,-0.01 -11.152,0 -23.197,5.766 -32.367,15.5289998 -3.077,3.276 -5.721,6.896 -7.888,10.741 -0.149,-1.216 -0.317,-2.433 -0.504,-3.648 -0.743,-4.853 -1.805,-9.694 -3.156,-14.391 -1.083,-3.7659998 -2.677,-7.9039998 -6.278,-10.0499998 -3.794,-2.26 -8.005,-1.245 -12.515,3.013 -3.07,2.898 -5.992,6.0699998 -8.685,9.4269998 -5.418,6.755 -9.882,14.039 -13.269,21.649 -1.899,4.268 -3.494,8.656 -4.776,13.137 -0.107,-0.464 -0.214,-0.928 -0.321,-1.39 -1.275,-5.525 -2.593,-11.238 -4.839,-16.617 -4.118,-9.867 -11.545,-17.008 -20.377,-19.59 -9.128,-2.6679998 -18.7539995,1.343 -22.8879995,9.537 -3.32700001,6.596 -3.70100001,15.186 -1.112,25.531 1.436,5.735 3.782,11.259 5.852,16.132 2.6349995,6.203 5.6159995,12.389 8.8599995,18.386 1.076,1.988 3.194,2.188 4.731,1.356 1.585,-0.857 2.667,-2.884 1.548,-4.95 -5.989,-11.071 -10.076,-20.232 -12.8619995,-28.83 -2.755,-8.503 -3.335,-15.702 -1.722,-21.396 1.561,-5.513 6.7739995,-10.461 13.7209995,-9.253 8.139,1.416 14.011,8.171 16.793,14.021 2.674,5.622 4.081,11.839 5.441,17.851 1.101,4.863 2.237,9.885 4.044,14.648 l -0.09,0.702 0.344,-0.047 c 0.679,1.664 2.183,2.603 3.827,2.398 1.677,-0.208 2.961,-1.553 3.208,-3.352 l 0.316,-0.043 -0.233,-0.592 c 1.959,-14.476 7.636,-28.594 16.439,-40.865 2.133,-2.974 4.536,-5.896 7.143,-8.688 1.288,-1.38 2.627,-2.728 3.98,-4.0059998 l 0.325,-0.312 c 0.882,-0.848 1.97,-1.903 2.972,-1.821 0.326,0.027 0.965,0.487 1.507,1.284 0.67,0.985 1.186,2.1389998 1.67,3.7359998 1.238,4.08 2.268,8.501 3.061,13.14 1.248,7.296 1.736,14.829 1.462,22.476 -0.357,2.479 -0.529,4.977 -0.507,7.468 l -0.104,1.045 h 0.251 c 0.443,1.509 1.836,2.617 3.47,2.617 1.628,0 2.944,-1.039 3.433,-2.617 h 0.195 l -0.01,-0.956 c 0.225,-2.275 0.382,-4.565 0.471,-6.864 1.165,-7.847 4.452,-15.426 9.555,-21.858 7.154,-9.018 16.812,-14.934 26.496,-16.229 3.39,-0.4509998 9.744,-0.6189998 14.245,3.36 3.763,3.329 4.937,7.914 5.258,11.174 1.093,11.106 -3.773,22.017 -8.135,30.281 -6.432,12.191 -15.064,22.912 -25.657,31.864 -0.676,0.571 -1.069,1.414 -1.109,2.374 -0.044,1.052 0.348,2.099 1.048,2.799 0.689,0.689 1.577,1.036 2.488,1.036 0.885,0 1.793,-0.326 2.566,-0.979 10.339,-8.738 18.951,-19.177 25.597,-31.023 4.869,-8.68 11.258,-21.762 10.537,-35.101 -0.341,-6.34 -2.258,-11.627 -5.699,-15.714 z"
   id="path1062" />
</svg>
