<?xml version="1.0" encoding="UTF-8" standalone="no"?>
<!-- Generator: Adobe Illustrator 16.0.3, SVG Export Plug-In . SVG Version: 6.00 Build 0)  -->

<svg
   version="1.1"
   id="Layer_1"
   x="0px"
   y="0px"
   width="354.86304"
   height="68.885307"
   viewBox="0 0 354.86304 68.885307"
   enable-background="new 0 0 3200 1400"
   xml:space="preserve"
   xmlns="http://www.w3.org/2000/svg"
   xmlns:svg="http://www.w3.org/2000/svg"><defs
   id="defs1121" />

<path
   d="m 339.3452,43.763311 c -5.21,-1.234 -10.362,-0.662 -14.627,1.506 -2.649,-7.725 -8.933,-14.194 -16.946,-17.001 -9.737,-3.413 -20.923,0 -27.828,8.497 -1.731,2.129 -3.109,4.417 -4.113,6.811 -2.999,-3.197 -6.909,-5.615 -11.527,-7.064 -10.279,-3.226 -22.507,-1.332 -31.146,4.828 -2.118,1.51 -3.855,3.058 -5.313,4.732 -0.425,0.489 -0.846,1.035 -1.276,1.595 -1.214,1.578 -2.47,3.211 -4.089,3.807 -2.109,0.777 -4.592,-1.151 -6.404,-2.558 l -1.185,-0.924 c -1.77,-1.39 -3.601,-2.825 -5.65,-3.982 -8.521,-4.811 -19.39,-6.146 -29.814,-3.659 -7.933,1.893 -15.056,5.945 -20.38,11.409 -1.563,-5.541 -5.104,-10.518 -10.053,-13.535 -6.826,-4.163 -15.229,-3.29 -21.438,1.69 -2.004,-3.528 -4.864,-6.625 -8.205,-8.746 -4.64,-2.944 -9.945,-3.804 -15.34,-2.48 -5.459003,1.336 -10.566003,4.883 -14.098003,9.693 -2.678,-13.316 -7.829,-25.124 -18.412,-32.5870002 -8.661,-6.10799995 -20.335,-7.481 -31.231,-3.675 -10.725,3.747 -19.836,11.3250002 -26.348,21.9170002 -7.4039996,12.041 -10.7679996,25.967 -13.83199962,40.37 -0.498,2.341 1.14700002,4.012 2.94700002,4.395 0.258,0.055 0.521,0.083 0.784,0.083 1.443,0 2.883,-0.837 3.273,-2.67 4.8349996,-22.726 11.2479996,-45.738 31.4699996,-55.593 9.213,-4.4890002 18.928,-4.5800002 26.651,-0.242 6.496,3.646 11.446,10.149 14.712,19.327 2.666,7.489 3.976,15.358 4.72,22.718 -0.253,2.902 -0.033,5.809 0.677,8.585 l 0.033,0.526 0.107,-0.015 c 0.609,1.905 2.532,2.637 4.144,2.366 1.778,-0.295 2.928,-1.616 2.921,-3.322 l 0.164,-0.022 -0.208,-0.766 c -0.16,-2.477 -0.35,-4.953 -0.584,-7.411 0.768,-6.493 4.737,-12.655 10.638003,-15.64 3.312,-1.675 6.909,-1.876 10.403,-0.586 4.052,1.497 7.525,4.925 9.293,9.169 0.075,0.181 0.146,0.361 0.214,0.542 -2.327,4.033 -3.045,8.635 -2.007,12.814 l -0.048,0.067 0.067,0.01 c 0.136,0.535 0.3,1.063 0.494,1.582 0.517,1.382 1.647,2.312 3.024,2.486 1.363,0.165 2.679,-0.44 3.517,-1.64 0.317,-0.454 0.61,-0.919 0.881,-1.395 l 0.082,0.011 -0.035,-0.094 c 2.069,-3.688 2.711,-7.961 1.856,-12.474 2.799,-3.304 6.826,-5.004 10.587,-4.435 3.53,0.529 6.712,2.662 8.959,6.006 2.509,3.733 3.46,8.343 2.57,12.394 l -0.205,0.409 0.103,0.043 c -0.391,1.978 0.966,3.618 2.484,4.176 1.621,0.595 3.231,0.031 4.077,-1.409 l 0.188,0.078 0.197,-0.813 c 3.753,-7.106 10.678,-12.748 19.09,-15.528 8.885,-2.936 18.365,-2.404 26.014,1.453 1.983,1.001 3.825,2.428 5.605,3.808 2.455,1.901 4.993,3.867 8.064,4.901 3.062,1.032 6.467,0.612 9.109,-1.121 1.941,-1.273 3.356,-2.993 4.725,-4.655 0.397,-0.482 0.795,-0.966 1.207,-1.439 4.903,-5.639 12.833,-9.006 21.204,-8.903 7.055,0.054 16.336,3.088 19.587,11.423 l -0.01,0.544 0.2,-0.026 c 0.65,1.692 2.336,2.669 4.146,2.36 1.665,-0.277 2.814,-1.6 2.9,-3.315 l 0.268,-0.036 -0.245,-0.688 c 0.333,-7.142 5.094,-13.868 12,-16.867 6.752,-2.931 14.733,-1.095 20.331,4.684 3.102,3.201 4.996,7.198 5.336,11.254 0.124,1.494 1.154,2.836 2.563,3.338 1.294,0.463 2.647,0.134 3.621,-0.876 0.352,-0.364 0.729,-0.702 1.129,-1.014 l 0.051,0.021 -0.01,-0.057 c 3.042,-2.347 7.385,-3.168 11.718,-2.143 4.897,1.16 8.594,4.326 9.887,8.47 0.396,1.266 1.34,2.153 2.591,2.435 1.344,0.302 2.787,-0.137 3.689,-1.115 0.812,-0.88 1.059,-2.086 0.677,-3.307 -2.05,-6.573 -7.931,-11.747 -15.349,-13.504 z"
   id="path1076" />
</svg>
