<?xml version="1.0" encoding="UTF-8" standalone="no"?>
<!-- Generator: Adobe Illustrator 16.0.3, SVG Export Plug-In . SVG Version: 6.00 Build 0)  -->

<svg
   version="1.1"
   id="Layer_1"
   x="0px"
   y="0px"
   width="359.30557"
   height="75.779373"
   viewBox="0 0 359.30557 75.779373"
   enable-background="new 0 0 3200 1400"
   xml:space="preserve"
   xmlns="http://www.w3.org/2000/svg"
   xmlns:svg="http://www.w3.org/2000/svg"><defs
   id="defs1121" />

<path
   d="m 346.71444,37.607373 c -4.903,-2.284 -9.957,-2.873 -15.018,-1.754 -5.021,1.112 -9.945,3.652 -15.052,7.763 -2.245,1.808 -4.328,3.789 -6.325,5.883 -0.041,-0.139 -0.084,-0.277 -0.129,-0.417 -1.758,-5.444 -6.194,-10.375 -11.58,-12.868 -11.151,-5.165 -22.299,1.112 -28.395,9.625 -0.735,1.025 -1.415,2.104 -2.037,3.233 -1.813,-7.963 -4.247,-16.099 -8.179,-23.607 -5.781,-11.042 -14.782,-19.3060003 -25.344,-23.2710003 -10.612,-3.982 -22.036,-2.48599999 -30.557,4.011 -6.71,5.1160003 -11.571,13.0860003 -14.446,23.6870003 -1.846,6.808 -2.887,14.308 -3.182,23.112 -5.47,-6.319 -11.439,-11.741 -19.022,-14.779 -9.188,-3.678 -20.156,-1.717 -27.295,4.887 -1.358,1.257 -2.503,2.661 -3.414,4.167 -4.711,-6.054 -11.997,-10.343 -20.378,-11.648 -11.58,-1.803 -23.471999,2.589 -32.633999,12.049 -2.907,3.003 -5.463,6.421 -7.643,10.216 -4.703,-7.697 -13.055,-13.517 -22.993,-15.629 -12.295,-2.611 -25.43,1.052 -36.987,10.318 -5.752,4.612 -10.9779998,10.602 -15.5319998,17.801 -1.207,1.908 -0.349,3.849 1.123,4.78 0.615,0.389 1.355,0.613 2.104,0.613 1.108,0 2.232,-0.494 2.983,-1.682 v 0 c 5.1179998,-8.089 13.8939998,-18.701 26.6359998,-23.318 10.301,-3.735 21.122,-2.425 29.686,3.589 4.32,3.034 7.469,7.272 8.96,12.027 l -0.189,0.476 h 0.333 c 0.062,0.212 0.119,0.425 0.174,0.639 0.391,1.535 1.522,2.51 3.026,2.608 1.704,0.092 3.293,-0.914 3.919,-2.484 0.102,-0.256 0.206,-0.51 0.313,-0.763 h 0.046 l -0.018,-0.068 c 4.115,-9.772 11.257,-17.648 19.701,-21.691 8.447999,-4.043 18.552999,-3.385 26.365999,1.723 4.159,2.72 7.186,6.631 8.553,11.038 l 0.03,0.46 0.104,-0.015 c 0.645,1.924 2.598,2.64 4.227,2.352 1.734,-0.308 2.85,-1.623 2.837,-3.308 l 0.185,-0.025 -0.217,-0.743 c -0.124,-6.863 6.419,-11.37 12.706,-12.679 8.881,-1.849 17.051,3.865 22.339,8.984 3.591,3.478 6.788,7.422 9.975,11.519 l 0.01,0.24 0.137,-0.057 c 0.267,0.344 0.535,0.689 0.803,1.036 0.854,1.105 2.26,1.484 3.672,0.982 1.56,-0.554 2.623,-1.98 2.587,-3.469 -0.264,-10.749 0.345,-19.316 1.916,-26.961 2.012,-9.789 5.321,-16.923 10.12,-21.811 6.091,-6.2010003 14.879,-8.5640003 23.511,-6.3220003 9.169,2.3820003 17.576,9.0990003 23.066,18.4280003 6.592,11.2 9.063,24.32 11.417,37.034 l -0.122,1.017 0.313,-0.042 c 0.468,1.727 2.361,2.656 3.934,2.439 1.715,-0.231 2.88,-1.499 3.123,-3.396 l 0.093,-0.013 -0.055,-0.297 c 0.88,-6.812 4.529,-15.5 12.201,-19.769 3.437,-1.912 7.123,-2.431 10.384,-1.463 3.273,0.972 6.365,3.295 8.271,6.214 1.295,1.982 3.125,5.867 1.03,9.809 l -0.255,0.307 0.063,0.049 c -0.902,1.813 0.012,3.755 1.376,4.694 1.434,0.988 3.114,0.845 4.267,-0.34 l 0.142,0.109 0.457,-0.812 c 5.882,-7.064 11.994,-14.296 20.323,-17.827 4.041,-1.715 7.836,-2.121 11.276,-1.203 3.66,0.974 6.928,3.069 9.2,5.902 2.434,3.032 3.118,6.556 1.831,9.427 -0.843,1.878 -0.293,3.872 1.337,4.85 0.846,0.504 2.004,0.618 3.025,0.299 0.921,-0.29 1.625,-0.89 1.982,-1.688 4.403,-9.82 -2.232,-20.004 -11.191,-24.176 z"
   id="path1078" />
</svg>
