<?xml version="1.0" encoding="UTF-8" standalone="no"?>
<!-- Generator: Adobe Illustrator 16.0.3, SVG Export Plug-In . SVG Version: 6.00 Build 0)  -->

<svg
   version="1.1"
   id="Layer_1"
   x="0px"
   y="0px"
   width="416.99112"
   height="85.880455"
   viewBox="0 0 416.99112 85.880455"
   enable-background="new 0 0 3200 1400"
   xml:space="preserve"
   xmlns="http://www.w3.org/2000/svg"
   xmlns:svg="http://www.w3.org/2000/svg"><defs
   id="defs1121" />

<path
   d="m 416.03023,62.844455 c -15.551,-17.412 -44.391,-20.918 -65.655,-7.979 -3.922,2.387 -7.405,5.271 -10.41,8.613 -4.558,-7.105 -13.745,-10.611 -21.777,-10.286 -9.684,0.388 -17.808,5.701 -25.178,12.321 -1.589,-4.153 -5.264,-8.096 -9.594,-10.154 -10.232,-4.865 -19.947,1.077 -25.63,8.26 -1.376,1.739 -2.605,3.549 -3.757,5.466 -1.386,-6.193 -3.628,-12.152 -6.71,-17.813 -0.533,-0.982 -1.616,-1.671 -2.826,-1.797 -1.148,-0.121 -2.225,0.276 -2.924,1.095 l -17.908,20.986 c 0.301,-10.615 -0.792,-21.214 -3.269,-31.631 -2.441,-10.269 -6.431,-23.215 -15.692,-32.2520001 -4.283,-4.179 -9.185,-6.76200004 -14.174,-7.46800004 -5.675,-0.802 -11.721,0.76 -17.012,4.40500004 -5.183,3.571 -9.321,8.3600001 -13.117,12.9600001 -4.341,5.261 -8.529,10.734 -12.451,16.269 -6.875,9.704 -13.167,19.98 -18.771,30.653 0.164,-1.02 0.373,-2.053 0.581,-3.077 0.346,-1.713 0.673,-3.331 0.777,-4.829 0.337,-4.869 -0.948,-11.248 -5.566,-14.551 -5.911,-4.225 -12.117,0.172 -16.648,3.386 -0.463,0.327 -0.914,0.647 -1.354,0.951 l -31.891995,22.025 c 0.28,-1.782 0.383,-3.63 0.303,-5.531 -0.381,-9.042 -5.021,-18.57 -12.108,-24.868 -6.757,-6.005 -15.212,-8.816 -23.81,-7.935 -9.344,0.965 -18.407,5.618 -25.521,13.104 -7.7210001,8.123 -12.6620001,18.762 -13.91300006,29.956 -0.211,1.897 0.973,3.371 2.87999996,3.584 1.925,0.218 4.078,-0.983 4.344,-3.361 1.64,-14.674 12.2510001,-31.59 29.3610001,-35.527 7.025,-1.621 14.007,-0.273 19.658,3.788 5.16,3.707 9.161,9.439 10.976,15.728 2.104,7.295 0.781,14.194 -3.627,18.977 l -0.362,0.251 0.06,0.077 c -1.32,1.53 -0.938,3.633 0.126,4.876 1.127,1.317 2.793,1.606 4.226,0.764 l 0.117,0.152 0.613,-0.646 40.164995,-27.743 c 2.063,-1.429 4.126,-2.858 6.197,-4.275 l 0.401,-0.276 c 1.667,-1.155 3.747,-2.596 5.408,-1.705 3.094,1.649 3.016,7.39 2.481,10.521 l -0.183,1.056 c -1.102,6.348 -2.24,12.911 2.232,18.54 0.666,0.84 1.798,1.264 2.993,1.122 1.253,-0.141 2.327,-0.846 2.804,-1.841 5.479,-11.453 11.76,-22.535 18.671,-32.937 6.578,-9.901 13.854,-20.262 22.482,-28.95 3.005,-3.026 7.657,-7.1460001 13.33,-7.9670001 4.121,-0.591 8.466,0.721 12.238,3.7050001 8.525,6.745 12.47,18.221 14.953,27.465 3.675,13.677 4.762,27.89 3.235,42.263 l -0.05,0.06 0.042,0.018 c -0.047,0.438 -0.097,0.88 -0.148,1.319 -0.167,1.415 0.662,2.739 2.112,3.373 0.532,0.232 1.081,0.346 1.611,0.346 0.975,0 1.885,-0.382 2.499,-1.102 l 21.49,-25.185 c 2.884,6.565 4.557,13.51 4.986,20.715 v 0.01 l 0.01,0.001 c 0.014,0.237 0.027,0.474 0.038,0.711 0.08,1.673 1.464,3.188 3.22,3.526 1.545,0.297 2.913,-0.406 3.565,-1.838 0.075,-0.163 0.149,-0.326 0.225,-0.49 l 0.288,0.078 -0.03,-0.639 c 2.125,-4.612 4.328,-9.055 7.284,-12.947 2.038,-2.683 6.226,-7.288 11.376,-7.993 3.859,-0.54 9.304,2.293 11.415,5.922 1.207,2.076 1.196,4.078 -0.032,5.956 l -0.617,0.629 0.113,0.087 c -0.859,1.37 -0.569,3.063 0.759,4.217 1.276,1.105 3.389,1.507 4.893,0.144 l 0.033,0.026 0.277,-0.334 c 6.976,-7.107 15.657,-15.953 26.114,-16.883 7.131,-0.64 15.433,2.494 17.79,9.489 l -0.072,0.107 0.112,0.016 c 0.147,0.454 0.271,0.926 0.366,1.413 0.266,1.351 1.234,2.319 2.59,2.589 1.526,0.305 3.176,-0.354 4.008,-1.603 10.982,-16.479 35.04,-22.897 54.771,-14.612 5.394,2.265 10.104,5.627 14.002,9.991 1.481,1.659 3.546,1.372 4.818,0.234 1.372,-1.225 1.97,-3.487 0.378,-5.27 z"
   id="path1082" />
</svg>
