<?xml version="1.0" encoding="UTF-8" standalone="no"?>
<!-- Generator: Adobe Illustrator 16.0.3, SVG Export Plug-In . SVG Version: 6.00 Build 0)  -->

<svg
   version="1.1"
   id="Layer_1"
   x="0px"
   y="0px"
   width="289.74411"
   height="78.283852"
   viewBox="0 0 289.74411 78.283852"
   enable-background="new 0 0 3200 1400"
   xml:space="preserve"
   xmlns="http://www.w3.org/2000/svg"
   xmlns:svg="http://www.w3.org/2000/svg"><defs
   id="defs1121" />

<path
   d="m 279.30411,48.083852 c -9.885,-7.49 -23.449,-9.113 -35.396,-4.236 -11.57,4.723 -20.238,13.682 -26.502,21.891 -3.092,-12.647 -9.295,-24.713 -18.195,-35.285 -9.242,-10.979 -21.101,-19.615 -34.295,-24.9769995 -9.989,-4.06 -29.296,-9.562 -46.375,-0.81 -10.079,5.163 -18.306,14.6939995 -24.455004,28.3269995 -3.33,7.383 -5.999,15.446 -8.292,25.184 -0.807,-2.08 -1.705,-4.132 -2.728,-6.128 -6.081,-11.863 -15.583,-18.184 -26.076,-17.364 -6.755,0.532 -13.687,3.871 -17.114,9.439 -4.207,-3.492 -10.118,-4.896 -15.243,-4.298 -10.318,1.203 -17.6299998,9.386 -23.67399983,16.961 -1.309,1.64 -1.275,3.712 0.083,5.04 0.722,0.707 1.829,1.11 2.903,1.039 0.935,-0.058 1.744,-0.459 2.28,-1.13 4.5769998,-5.737 10.2729998,-12.878 17.9999998,-14.552 5.244,-1.142 11.812,1.017 13.498,6.013 l 0.021,0.508 0.13,-0.018 c 0.625,1.892 2.515,2.63 4.104,2.369 1.773,-0.287 2.938,-1.611 2.955,-3.326 l 0.183,-0.024 -0.194,-0.681 c 0.037,-3.168 1.745,-5.917 4.852,-7.781 2.917,-1.75 6.575,-2.583 10.302,-2.358 3.67,0.226 7.111,1.83 10.228,4.769 7.107,6.701 10.037,16.935 12.539,26.113 l -0.02,0.112 h 0.051 c 0.06,0.219 0.119,0.437 0.178,0.654 0.49,1.8 2.322,2.682 3.824,2.604 1.65,-0.074 2.896,-1.13 3.173,-2.691 0.034,-0.188 0.067,-0.377 0.102,-0.566 h 0.223 l -0.134,-0.493 c 2.228,-12.327 5.391,-26.474 11.689004,-39.083 5.995,-12.002 13.699,-19.938 22.9,-23.5879995 15.754,-6.252 33.228,0.195 42.241,4.5939995 23.615,11.527 40.579,34.243 44.612,59.571 l -0.217,0.326 0.273,0.035 c 0.068,0.443 0.133,0.89 0.193,1.334 0.18,1.33 1.077,2.305 2.397,2.608 0.285,0.065 0.578,0.098 0.871,0.098 1.322,0 2.658,-0.637 3.34,-1.662 4.646,-6.988 9.025,-12.3 13.781,-16.714 5.651,-5.245 17.132,-13.671 30.497,-11.215 8.206,1.511 18.332,7.099 19.878,17.873 l 0.076,0.733 0.034,0.176 c 0.439,1.511 1.803,2.463 3.314,2.341 1.517,-0.133 3.261,-1.426 3.611,-4.656 l 0.014,-0.124 -0.018,-0.124 c -0.922,-6.458 -4.623,-12.433 -10.422,-16.828 z"
   id="path1074" />
</svg>
