<?xml version="1.0" encoding="UTF-8" standalone="no"?>
<!-- Generator: Adobe Illustrator 16.0.3, SVG Export Plug-In . SVG Version: 6.00 Build 0)  -->

<svg
   version="1.1"
   id="Layer_1"
   x="0px"
   y="0px"
   width="202.97699"
   height="217.5743"
   viewBox="0 0 202.97699 217.5743"
   enable-background="new 0 0 3200 1400"
   xml:space="preserve"
   xmlns="http://www.w3.org/2000/svg"
   xmlns:svg="http://www.w3.org/2000/svg"><defs
   id="defs1121" />

<g
   id="g10859"
   transform="translate(-991.57595,-1042.6637)"><path
     fill="#33a97f"
     d="m 1064.108,1256.629 c -35.248,-42.986 -58.684,-95.56 -67.093,-150.508 -3.156,-20.622 -3.532,-43.859 9.882,-59.837 34.17,59.632 60.922,123.508 79.447,189.692 2.992,-27.521 -2.595,-55.144 -5.223,-82.701 -2.628,-27.557 -1.891,-56.921 12.272,-80.706 16.87,50.346 25.95,103.292 26.82,156.382 3.493,-38.441 7.137,-77.523 21.566,-113.324 7.461,-18.512 19.069,-37.068 37.629,-44.407 13.511,28.772 13.983,62.3 7.397,93.396 -6.586,31.096 -19.788,60.337 -32.93,89.279 z"
     id="path1026" /><path
     d="m 1193.567,1109.178 c -1.657,-14.274 -5.355,-27.632 -10.993,-39.703 -0.676,-1.446 -2.774,-2.291 -4.233,-1.708 -16.884,6.761 -29.924,21.945 -39.864,46.421 -8.001,19.7 -13.341,41.604 -17.252,70.82 -0.621,-6.141 -1.349,-12.277 -2.183,-18.396 -2.809,-20.609 -6.896,-41.255 -12.146,-61.363 -2.933,-11.228 -6.307,-22.563 -10.03,-33.691 -0.465,-1.391 -1.71,-2.39 -3.172,-2.545 -1.411,-0.152 -2.692,0.496 -3.421,1.728 -0.263,0.443 -0.521,0.889 -0.776,1.339 l -0.083,-0.011 0.033,0.099 c -8.824,15.586 -13.124,34.535 -13.139,57.859 -0.01,15.065 1.849,30.212 3.646,44.86 0.88,7.172 1.79,14.587 2.467,21.89 0.554,5.973 0.907,11.503 1.06,16.699 -5.75,-18.583 -12.162,-37.019 -19.143,-55.034 -9.742,-25.139 -20.78,-50.019 -32.808,-73.948 -6.743,-13.415 -13.979,-26.882 -21.505,-40.026 -0.57,-0.996 -1.689,-1.682 -2.92,-1.789 -1.125,-0.102 -2.156,0.31 -2.827,1.116 -8.413,10.118 -12.687,23.817 -12.702,40.716 -0.014,15.637 3.125,31.422 6.198,44.801 3.441,14.984 8.047,29.883 13.689,44.282 5.735,14.635 12.525,28.845 20.183,42.231 7.666,13.401 16.482,26.445 26.204,38.771 1.197,1.518 2.41,3.023 3.635,4.52 0.554,0.676 1.384,1.074 2.338,1.122 0.065,0 0.129,0 0.194,0 1.004,0 1.983,-0.387 2.65,-1.054 1.358,-1.358 1.385,-3.432 0.067,-5.043 -9.388,-11.466 -18.072,-23.844 -25.81,-36.789 -7.766,-12.993 -14.572,-26.495 -20.229,-40.129 -5.772,-13.914 -10.569,-28.336 -14.257,-42.863 -4.4,-17.332 -6.689,-30.613 -7.423,-43.064 -0.957,-16.262 1.496,-28.817 7.499,-38.368 12.185,21.614 23.494,43.941 33.653,66.444 10.903,24.149 20.782,49.214 29.363,74.495 4.722,13.912 9.146,28.192 13.154,42.455 l -0.087,0.814 0.307,-0.041 c 0.521,1.622 1.889,2.572 3.534,2.438 1.564,-0.131 3.262,-1.337 3.511,-3.393 l 0.192,-0.025 -0.137,-0.489 c 2.128,-20.574 -0.421,-41.358 -2.887,-61.463 -0.306,-2.495 -0.612,-4.988 -0.909,-7.479 -2.357,-19.771 -4.351,-40.809 -0.675,-61.542 1.495,-8.435 3.87,-16.228 7.084,-23.269 5.339,16.899 9.837,34.147 13.4,51.392 4.153,20.1 7.126,40.614 8.836,60.975 0.958,11.41 1.544,23.075 1.741,34.673 l -0.094,1.037 h 0.226 c 0.434,1.659 1.878,2.471 3.223,2.521 1.522,0.067 3.138,-0.793 3.695,-2.521 h 0.204 l -0.016,-0.963 c 2.144,-23.595 4.363,-47.989 9.367,-71.774 2.688,-12.777 5.916,-24.193 9.865,-34.901 4.121,-11.169 8.448,-19.854 13.619,-27.336 5.999,-8.678 13.175,-15.193 20.904,-19.013 8.178,19.002 11.229,41.048 9.067,65.588 -1.865,21.17 -7.853,43.837 -18.843,71.333 -5.342,13.366 -11.323,26.538 -17.107,39.276 -0.86,1.894 -0.307,3.892 1.345,4.857 0.854,0.5 2.015,0.609 3.028,0.29 0.909,-0.289 1.608,-0.885 1.969,-1.679 10.595,-23.335 21.55,-47.465 28.868,-72.675 7.687,-26.485 10.262,-51.308 7.653,-73.78 z"
     id="path1058" /></g>
</svg>
