<?xml version="1.0" encoding="UTF-8" standalone="no"?>
<!-- Created with Inkscape (http://www.inkscape.org/) -->

<svg
   version="1.1"
   id="svg2003"
   width="96.102295"
   height="169.77319"
   viewBox="0 0 96.102295 169.77319"
   sodipodi:docname="MANUAL DE USO OPTIMA MARCA .pdf"
   inkscape:export-filename="..\..\games\assets\logo-heidy-livelongandprosper.svg"
   inkscape:export-xdpi="98.3"
   inkscape:export-ydpi="98.3"
   xmlns:inkscape="http://www.inkscape.org/namespaces/inkscape"
   xmlns:sodipodi="http://sodipodi.sourceforge.net/DTD/sodipodi-0.dtd"
   xmlns="http://www.w3.org/2000/svg"
   xmlns:svg="http://www.w3.org/2000/svg">
  <defs
     id="defs2007">
    <clipPath
       clipPathUnits="userSpaceOnUse"
       id="clipPath4925">
      <path
         d="M 0,612 H 792 V 0 H 0 Z"
         id="path4923" />
    </clipPath>
    <clipPath
       clipPathUnits="userSpaceOnUse"
       id="clipPath4973">
      <path
         d="M 0,612 H 792 V 0 H 0 Z"
         id="path4971" />
    </clipPath>
  </defs>
  <sodipodi:namedview
     id="namedview2005"
     pagecolor="#ffffff"
     bordercolor="#666666"
     borderopacity="1.0"
     inkscape:showpageshadow="2"
     inkscape:pageopacity="0.0"
     inkscape:pagecheckerboard="0"
     inkscape:deskcolor="#d1d1d1"
     showgrid="false" />
  <g
     id="g4431"
     inkscape:groupmode="layer"
     inkscape:label="Page 4"
     transform="matrix(1.3333333,0,0,-1.3333333,-468.22339,736.72758)">
    <text
       xml:space="preserve"
       transform="matrix(1,0,0,-1,358.4854,457.3145)"
       style="font-variant:normal;font-weight:800;font-stretch:normal;font-size:18.1856px;font-family:'Baloo Paaji 2 ExtraBold';-inkscape-font-specification:BalooPaaji2-ExtraBold;writing-mode:lr-tb;fill:#bcbc63;fill-opacity:1;fill-rule:nonzero;stroke:none"
       id="text4913"><tspan
         x="0 12.784477 23.423054 33.534245 39.080853 53.665707"
         y="0"
         sodipodi:role="line"
         id="tspan4911">ÓPTIMA</tspan></text>
    <text
       xml:space="preserve"
       transform="matrix(1,0,0,-1,358.4751,440.748)"
       style="font-variant:normal;font-weight:800;font-stretch:normal;font-size:23.2173px;font-family:'Baloo Paaji 2 ExtraBold';-inkscape-font-specification:BalooPaaji2-ExtraBold;writing-mode:lr-tb;fill:#bcbc63;fill-opacity:1;fill-rule:nonzero;stroke:none"
       id="text4917"><tspan
         x="0 13.024905 29.346666 45.111214 49.754673"
         y="0"
         sodipodi:role="line"
         id="tspan4915">CON H</tspan></text>
    <g
       id="g4919">
      <g
         id="g4921"
         clip-path="url(#clipPath4925)">
        <g
           id="g4927"
           transform="translate(371.6142,509.9707)">
          <path
             d="m 0,0 c 12.946,-6.098 22.899,-24.104 23.175,-24.271 1.788,-2.599 3.883,-4.949 6.413,-6.834 5.535,-4.124 12.942,-5.621 19.645,-3.972 0.797,0.197 1.581,0.442 2.352,0.724 V 39.36 c 0,1.768 -1.446,3.215 -3.215,3.215 H -8.285 c -1.769,0 -3.215,-1.447 -3.215,-3.215 V 1.645 C -7.528,2.482 -3.646,1.717 0,0"
             style="fill:#7d2559;fill-opacity:1;fill-rule:nonzero;stroke:none"
             id="path4929" />
        </g>
        <g
           id="g4931"
           transform="translate(405.6572,517.7676)">
          <path
             d="m 0,0 c -4.712,-2.325 -8.14,-5.305 -10.188,-8.857 -0.567,-0.986 -1.028,-2.018 -1.369,-3.068 -0.056,-0.174 -0.219,-0.29 -0.401,-0.288 -0.183,0.003 -0.343,0.124 -0.394,0.299 -0.742,2.537 -1.118,5.053 -1.118,7.479 0,6.712 2.81,12.373 7.709,15.531 3.263,2.103 6.537,2.544 8.984,1.21 C 4.988,11.344 6.042,9.582 6.042,7.592 6.042,4.662 3.84,1.895 0,0"
             style="fill:#ffffff;fill-opacity:1;fill-rule:nonzero;stroke:none"
             id="path4933" />
        </g>
        <g
           id="g4935"
           transform="translate(371.6142,525.3594)">
          <path
             d="m 0,0 c 0,1.99 1.054,3.752 2.819,4.714 2.447,1.334 5.721,0.893 8.984,-1.21 4.899,-3.158 7.709,-8.818 7.709,-15.53 0,-2.427 -0.376,-4.943 -1.118,-7.479 -0.051,-0.176 -0.211,-0.297 -0.394,-0.3 -0.182,-0.002 -0.345,0.115 -0.401,0.288 -0.341,1.05 -0.802,2.082 -1.37,3.068 -2.047,3.553 -5.475,6.532 -10.187,8.857 C 2.202,-5.697 0,-2.93 0,0"
             style="fill:#ffffff;fill-opacity:1;fill-rule:nonzero;stroke:none"
             id="path4937" />
        </g>
        <g
           id="g4939"
           transform="translate(401.9677,525.311)">
          <path
             d="m 0,0 c 0.339,-0.468 -0.24,-1.464 -1.293,-2.226 -1.053,-0.762 -2.181,-1.001 -2.519,-0.533 -0.338,0.467 0.241,1.464 1.293,2.226 1.053,0.762 2.181,1 2.519,0.533"
             style="fill:#05333f;fill-opacity:1;fill-rule:nonzero;stroke:none"
             id="path4941" />
        </g>
        <g
           id="g4943"
           transform="translate(381.3457,525.311)">
          <path
             d="M 0,0 C -0.339,-0.468 0.24,-1.464 1.293,-2.226 2.346,-2.988 3.474,-3.227 3.812,-2.759 4.15,-2.292 3.571,-1.295 2.519,-0.533 1.466,0.229 0.338,0.467 0,0"
             style="fill:#05333f;fill-opacity:1;fill-rule:nonzero;stroke:none"
             id="path4945" />
        </g>
        <g
           id="g4947"
           transform="translate(366.4316,504.5879)">
          <path
             d="m 0,0 c 0,0 4.876,-0.691 7.987,-3.45 0,0 -4.392,6.88 -2.804,8.833 -6.358,2.994 -13.438,3.117 -20.447,-3.159 1.115,0.475 2.367,0.536 3.75,0.21 3.854,-0.982 7.185,-3.51 9.709,-6.583 1.256,-1.529 2.329,-3.189 3.284,-4.922 0,0 1.531,6.061 -1.479,9.071"
             style="fill:#bcbc63;fill-opacity:1;fill-rule:nonzero;stroke:none"
             id="path4949" />
        </g>
        <g
           id="g4951"
           transform="translate(393.8711,502.6489)">
          <path
             d="m 0,0 c 0,-1.223 -0.991,-2.214 -2.215,-2.214 -1.223,0 -2.214,0.991 -2.214,2.214 0,1.223 0.991,2.215 2.214,2.215 C -0.991,2.215 0,1.223 0,0"
             style="fill:#bcbc63;fill-opacity:1;fill-rule:nonzero;stroke:none"
             id="path4953" />
        </g>
        <g
           id="g4955"
           transform="translate(375.4785,536.3755)">
          <path
             d="m 0,0 c 2.178,1.187 4.909,1.185 7.772,0.052 -10.224,10.404 -13.7,5.271 -13.7,5.271 2.896,-2.798 3.572,-5.555 3.589,-7.481 0.568,0.88 1.36,1.624 2.339,2.158"
             style="fill:#bcbc63;fill-opacity:1;fill-rule:nonzero;stroke:none"
             id="path4957" />
        </g>
        <g
           id="g4959"
           transform="translate(407.8349,536.3755)">
          <path
             d="M 0,0 C -2.178,1.187 -4.909,1.185 -7.772,0.052 2.452,10.456 5.928,5.323 5.928,5.323 3.032,2.525 2.356,-0.232 2.339,-2.158 1.771,-1.278 0.979,-0.534 0,0"
             style="fill:#bcbc63;fill-opacity:1;fill-rule:nonzero;stroke:none"
             id="path4961" />
        </g>
      </g>
    </g>
    <text
       xml:space="preserve"
       transform="matrix(1,0,0,-1,359.9258,426.3945)"
       style="font-variant:normal;font-weight:normal;font-stretch:normal;font-size:5.8351px;font-family:'Baloo Paaji 2';-inkscape-font-specification:BalooPaaji2-Regular;writing-mode:lr-tb;fill:#bcbc63;fill-opacity:1;fill-rule:nonzero;stroke:none"
       id="text4965"><tspan
         x="0 4.5513778 7.4630928 9.6921015 12.475444 15.50386 17.674519 19.080776 22.290083 25.423531 26.590551 30.307508 31.474529 34.759689 37.9865 41.195805 43.401474 46.31319 49.516659 50.934589 52.381107 53.787369 56.979168 59.890884"
         y="0"
         sodipodi:role="line"
         id="tspan4963">Marketing &amp; Contabilidad</tspan></text>
    <g
       id="g4967">
      <g
         id="g4969"
         clip-path="url(#clipPath4973)">
        <path
           d="m 423.481,434.178 h -64.266 v 1.747 h 64.266 z"
           style="fill:#bcbc63;fill-opacity:1;fill-rule:nonzero;stroke:none"
           id="path4975" />
        <g
           id="g4977"
           transform="translate(155.3672,328.5991)">
          <path
             d="M 0,0 C 0.81,0 1.44,-0.198 1.894,-0.593 2.346,-0.988 2.573,-1.475 2.573,-2.052 2.573,-2.438 2.48,-2.785 2.298,-3.093 2.115,-3.401 1.754,-3.72 1.215,-4.047 l -2.891,-1.677 c -0.771,0 -1.354,0.174 -1.75,0.521 -0.394,0.347 -0.592,0.751 -0.592,1.214 0,0.231 0.034,0.452 0.102,0.665 0.066,0.211 0.254,0.452 0.563,0.722 z m 1.619,-15.667 c 0,1.734 -0.357,3.035 -1.069,3.902 -0.714,0.868 -1.677,1.301 -2.891,1.301 -1.176,0 -2.125,-0.429 -2.847,-1.286 -0.723,-0.858 -1.084,-2.164 -1.084,-3.917 0,-1.754 0.356,-3.064 1.07,-3.931 0.712,-0.867 1.676,-1.301 2.889,-1.301 1.195,0 2.149,0.434 2.863,1.301 0.712,0.867 1.069,2.177 1.069,3.931 m 5.203,0 c 0,-1.503 -0.231,-2.838 -0.694,-4.003 -0.462,-1.166 -1.104,-2.14 -1.922,-2.92 -0.819,-0.78 -1.788,-1.373 -2.905,-1.778 -1.118,-0.404 -2.332,-0.607 -3.642,-0.607 -1.31,0 -2.525,0.203 -3.642,0.607 -1.119,0.405 -2.081,1.002 -2.891,1.793 -0.81,0.789 -1.445,1.763 -1.907,2.919 -0.463,1.156 -0.695,2.486 -0.695,3.989 0,1.503 0.236,2.833 0.708,3.989 0.473,1.156 1.118,2.124 1.938,2.905 0.818,0.78 1.781,1.373 2.891,1.777 1.107,0.405 2.306,0.608 3.598,0.608 1.291,0 2.49,-0.203 3.599,-0.608 1.108,-0.404 2.076,-0.997 2.905,-1.777 0.828,-0.781 1.479,-1.749 1.951,-2.905 0.472,-1.156 0.708,-2.486 0.708,-3.989"
             style="fill:#000000;fill-opacity:1;fill-rule:nonzero;stroke:none"
             id="path4979" />
        </g>
        <g
           id="g4981"
           transform="translate(171.497,313.5391)">
          <path
             d="M 0,0 C 0.809,0 1.454,0.197 1.937,0.593 2.418,0.987 2.659,1.551 2.659,2.284 2.659,3.016 2.432,3.58 1.979,3.975 1.526,4.369 0.866,4.567 0,4.567 -0.31,4.567 -0.564,4.562 -0.767,4.553 -0.969,4.543 -1.176,4.519 -1.388,4.48 V 0 Z m -1.359,-3.96 v -5.406 c -0.212,-0.057 -0.539,-0.115 -0.983,-0.173 -0.443,-0.058 -0.895,-0.086 -1.358,-0.086 -1.023,0 -1.731,0.173 -2.125,0.52 -0.396,0.347 -0.592,0.973 -0.592,1.878 V 6.475 c 0,0.405 0.11,0.718 0.332,0.939 0.222,0.222 0.524,0.4 0.91,0.535 0.655,0.232 1.431,0.4 2.327,0.506 0.897,0.106 1.71,0.159 2.443,0.159 2.659,0 4.692,-0.569 6.098,-1.705 C 7.101,5.771 7.805,4.23 7.805,2.284 7.805,1.339 7.626,0.486 7.269,-0.274 6.912,-1.036 6.411,-1.691 5.767,-2.24 5.12,-2.79 4.335,-3.213 3.41,-3.512 2.485,-3.811 1.454,-3.96 0.317,-3.96 Z"
             style="fill:#000000;fill-opacity:1;fill-rule:nonzero;stroke:none"
             id="path4983" />
        </g>
        <g
           id="g4985"
           transform="translate(195.4443,320.8232)">
          <path
             d="M 0,0 C 0.105,-0.347 0.159,-0.723 0.159,-1.127 0.159,-1.86 0,-2.39 -0.318,-2.717 -0.636,-3.045 -1.065,-3.208 -1.604,-3.208 H -4.871 V -16.65 c -0.212,-0.058 -0.539,-0.115 -0.983,-0.173 -0.443,-0.058 -0.895,-0.087 -1.358,-0.087 -1.022,0 -1.729,0.174 -2.125,0.521 -0.394,0.347 -0.592,0.972 -0.592,1.878 v 11.303 h -4.365 c -0.135,0.211 -0.256,0.491 -0.361,0.838 -0.107,0.347 -0.159,0.723 -0.159,1.127 0,0.732 0.159,1.262 0.476,1.59 0.318,0.327 0.747,0.491 1.287,0.491 h 12.69 C -0.227,0.626 -0.105,0.347 0,0"
             style="fill:#000000;fill-opacity:1;fill-rule:nonzero;stroke:none"
             id="path4987" />
        </g>
        <g
           id="g4989"
           transform="translate(200.7773,303.9136)">
          <path
             d="M 0,0 C -1.021,0 -1.729,0.173 -2.125,0.521 -2.52,0.867 -2.717,1.493 -2.717,2.399 v 15.407 c 0.231,0.038 0.569,0.091 1.012,0.159 0.443,0.067 0.886,0.101 1.33,0.101 0.963,0 1.656,-0.164 2.08,-0.491 0.424,-0.328 0.636,-0.964 0.636,-1.908 V 0.26 C 2.129,0.202 1.802,0.145 1.358,0.086 0.915,0.029 0.463,0 0,0"
             style="fill:#000000;fill-opacity:1;fill-rule:nonzero;stroke:none"
             id="path4991" />
        </g>
        <g
           id="g4993"
           transform="translate(218.9873,308.4517)">
          <path
             d="m 0,0 c -0.25,-0.212 -0.573,-0.381 -0.968,-0.506 -0.394,-0.125 -0.852,-0.188 -1.373,-0.188 -0.693,0 -1.267,0.087 -1.72,0.26 -0.453,0.174 -0.747,0.472 -0.881,0.896 -0.539,1.696 -0.983,3.069 -1.329,4.12 -0.347,1.05 -0.618,1.97 -0.81,2.76 H -7.226 C -7.283,6.205 -7.327,5.169 -7.355,4.235 -7.385,3.3 -7.404,2.389 -7.414,1.503 -7.424,0.617 -7.442,-0.28 -7.472,-1.185 c -0.029,-0.906 -0.072,-1.908 -0.13,-3.006 -0.251,-0.097 -0.578,-0.178 -0.982,-0.246 -0.405,-0.067 -0.81,-0.101 -1.214,-0.101 -0.848,0 -1.509,0.135 -1.98,0.404 -0.473,0.27 -0.708,0.761 -0.708,1.475 0,0.596 0.029,1.469 0.087,2.616 0.057,1.146 0.128,2.413 0.216,3.801 0.087,1.387 0.178,2.813 0.275,4.278 0.095,1.464 0.182,2.813 0.26,4.047 0.154,0.25 0.492,0.52 1.011,0.809 0.521,0.289 1.253,0.433 2.197,0.433 1.022,0 1.822,-0.158 2.399,-0.476 0.578,-0.319 1.002,-0.834 1.272,-1.547 0.173,-0.462 0.362,-0.992 0.564,-1.59 0.202,-0.597 0.404,-1.214 0.606,-1.85 0.203,-0.635 0.401,-1.267 0.593,-1.893 0.193,-0.626 0.366,-1.19 0.521,-1.691 h 0.144 c 0.463,1.618 0.926,3.184 1.388,4.697 0.463,1.513 0.886,2.78 1.271,3.801 0.289,0.155 0.661,0.285 1.114,0.391 0.452,0.105 0.959,0.158 1.517,0.158 0.944,0 1.715,-0.139 2.313,-0.419 C 5.858,12.627 6.205,12.227 6.303,11.707 6.379,11.321 6.461,10.729 6.548,9.929 6.635,9.129 6.726,8.228 6.822,7.227 6.918,6.224 7.015,5.164 7.111,4.047 7.207,2.929 7.3,1.854 7.386,0.824 7.473,-0.207 7.545,-1.152 7.604,-2.009 7.661,-2.867 7.699,-3.526 7.718,-3.989 7.391,-4.182 7.049,-4.321 6.692,-4.408 6.336,-4.495 5.878,-4.538 5.319,-4.538 4.587,-4.538 3.97,-4.413 3.47,-4.163 2.968,-3.912 2.698,-3.421 2.66,-2.688 2.544,-0.588 2.473,1.301 2.443,2.977 2.414,4.654 2.371,6.061 2.313,7.197 H 2.169 C 1.976,6.446 1.696,5.501 1.33,4.365 0.964,3.228 0.521,1.773 0,0"
             style="fill:#000000;fill-opacity:1;fill-rule:nonzero;stroke:none"
             id="path4995" />
        </g>
        <g
           id="g4997"
           transform="translate(237.2558,317.4121)">
          <path
             d="M 0,0 C -0.27,-0.79 -0.568,-1.667 -0.896,-2.63 -1.224,-3.594 -1.542,-4.625 -1.85,-5.723 H 1.734 C 1.464,-4.625 1.189,-3.589 0.91,-2.616 0.631,-1.643 0.386,-0.771 0.174,0 Z m 2.573,-9.625 h -5.232 c -0.194,-0.694 -0.362,-1.34 -0.506,-1.937 -0.145,-0.598 -0.285,-1.156 -0.419,-1.677 -0.27,-0.095 -0.555,-0.178 -0.853,-0.245 -0.299,-0.068 -0.661,-0.101 -1.084,-0.101 -0.983,0 -1.709,0.168 -2.182,0.505 -0.473,0.337 -0.708,0.805 -0.708,1.403 0,0.269 0.038,0.539 0.115,0.809 0.077,0.269 0.164,0.588 0.261,0.954 0.134,0.52 0.322,1.17 0.563,1.951 0.242,0.78 0.506,1.619 0.795,2.515 0.289,0.896 0.597,1.811 0.925,2.746 0.327,0.934 0.636,1.821 0.925,2.659 0.289,0.838 0.554,1.59 0.795,2.255 0.241,0.664 0.428,1.17 0.564,1.517 0.327,0.193 0.823,0.376 1.489,0.549 0.664,0.174 1.333,0.261 2.008,0.261 0.963,0 1.817,-0.141 2.558,-0.419 C 3.329,3.84 3.806,3.392 4.018,2.775 4.365,1.792 4.74,0.636 5.146,-0.693 c 0.405,-1.33 0.809,-2.703 1.213,-4.119 0.405,-1.417 0.8,-2.814 1.186,-4.192 0.385,-1.378 0.722,-2.597 1.012,-3.656 -0.232,-0.271 -0.579,-0.487 -1.041,-0.651 -0.463,-0.163 -1.012,-0.246 -1.648,-0.246 -0.944,0 -1.599,0.155 -1.966,0.463 -0.366,0.308 -0.635,0.8 -0.809,1.474 z"
             style="fill:#000000;fill-opacity:1;fill-rule:nonzero;stroke:none"
             id="path4999" />
        </g>
        <g
           id="g5001"
           transform="translate(162.8281,296.9282)">
          <path
             d="m 0,0 c 0,-0.64 -0.16,-1.193 -0.479,-1.661 -0.32,-0.467 -0.689,-0.836 -1.108,-1.107 -0.64,0.418 -1.322,0.775 -2.048,1.07 -0.725,0.296 -1.568,0.444 -2.527,0.444 -1.896,0 -3.347,-0.585 -4.356,-1.754 -1.008,-1.168 -1.512,-2.81 -1.512,-4.926 0,-2.19 0.547,-3.844 1.641,-4.963 1.095,-1.121 2.615,-1.68 4.559,-1.68 1.008,0 1.863,0.135 2.564,0.406 0.702,0.271 1.371,0.578 2.011,0.923 0.419,-0.345 0.744,-0.757 0.979,-1.236 0.233,-0.48 0.35,-1.04 0.35,-1.68 0,-0.566 -0.147,-1.083 -0.442,-1.549 -0.296,-0.468 -0.8,-0.862 -1.514,-1.182 -0.443,-0.197 -1.07,-0.393 -1.882,-0.59 -0.812,-0.197 -1.797,-0.295 -2.952,-0.295 -1.674,0 -3.235,0.234 -4.687,0.701 -1.451,0.467 -2.719,1.181 -3.801,2.141 -1.082,0.959 -1.932,2.183 -2.546,3.671 -0.615,1.489 -0.923,3.267 -0.923,5.333 0,1.919 0.301,3.616 0.904,5.093 0.602,1.476 1.427,2.718 2.473,3.727 1.045,1.009 2.27,1.771 3.672,2.288 1.402,0.516 2.902,0.775 4.502,0.775 2.263,0 4.016,-0.369 5.259,-1.107 C -0.621,2.104 0,1.156 0,0"
             style="fill:#000000;fill-opacity:1;fill-rule:nonzero;stroke:none"
             id="path5003" />
        </g>
        <g
           id="g5005"
           transform="translate(181.5752,289.0308)">
          <path
             d="M 0,0 C 0,2.214 -0.455,3.875 -1.365,4.982 -2.275,6.089 -3.506,6.643 -5.056,6.643 -6.557,6.643 -7.768,6.095 -8.69,5 -9.613,3.906 -10.074,2.239 -10.074,0 c 0,-2.239 0.455,-3.912 1.365,-5.019 0.91,-1.107 2.141,-1.66 3.69,-1.66 1.526,0 2.744,0.553 3.654,1.66 C -0.455,-3.912 0,-2.239 0,0 m 6.643,0 c 0,-1.918 -0.295,-3.623 -0.886,-5.111 -0.59,-1.489 -1.408,-2.731 -2.454,-3.727 -1.046,-0.996 -2.282,-1.753 -3.708,-2.269 -1.428,-0.518 -2.978,-0.776 -4.651,-0.776 -1.673,0 -3.223,0.258 -4.649,0.776 -1.428,0.516 -2.657,1.278 -3.691,2.287 -1.034,1.009 -1.845,2.252 -2.435,3.728 -0.591,1.476 -0.886,3.174 -0.886,5.092 0,1.919 0.301,3.617 0.904,5.093 0.602,1.476 1.426,2.712 2.473,3.709 1.045,0.996 2.276,1.753 3.69,2.269 1.415,0.517 2.946,0.775 4.594,0.775 1.648,0 3.18,-0.258 4.595,-0.775 C 0.953,10.555 2.189,9.798 3.248,8.802 4.306,7.805 5.136,6.569 5.738,5.093 6.341,3.617 6.643,1.919 6.643,0"
             style="fill:#000000;fill-opacity:1;fill-rule:nonzero;stroke:none"
             id="path5007" />
        </g>
        <g
           id="g5009"
           transform="translate(210.6738,277.7939)">
          <path
             d="m 0,0 c -0.652,-0.185 -1.434,-0.277 -2.344,-0.277 -0.91,0 -1.771,0.135 -2.583,0.406 -0.811,0.27 -1.475,0.923 -1.993,1.956 l -3.653,7.455 c -0.369,0.762 -0.701,1.481 -0.996,2.158 -0.295,0.677 -0.616,1.458 -0.959,2.344 l -0.259,-0.074 c 0.123,-1.55 0.19,-2.984 0.203,-4.3 0.012,-1.316 0.019,-2.577 0.019,-3.782 V 0.019 c -0.272,-0.05 -0.677,-0.111 -1.219,-0.185 -0.541,-0.074 -1.095,-0.111 -1.66,-0.111 -1.255,0 -2.122,0.215 -2.602,0.646 -0.479,0.43 -0.72,1.199 -0.72,2.306 v 18.563 c 0.345,0.491 0.873,0.861 1.587,1.107 0.713,0.246 1.477,0.369 2.288,0.369 0.91,0 1.778,-0.142 2.602,-0.424 0.824,-0.284 1.481,-0.929 1.975,-1.938 l 3.69,-7.455 c 0.369,-0.762 0.701,-1.482 0.996,-2.158 0.295,-0.677 0.614,-1.458 0.959,-2.343 l 0.148,0.036 c -0.099,1.181 -0.154,2.294 -0.166,3.34 -0.012,1.045 -0.018,2.048 -0.018,3.008 v 7.713 c 0.27,0.049 0.677,0.111 1.218,0.184 0.541,0.074 1.093,0.111 1.66,0.111 1.255,0 2.122,-0.216 2.601,-0.646 0.48,-0.431 0.72,-1.199 0.72,-2.307 V 0.793 C 1.149,0.448 0.651,0.185 0,0"
             style="fill:#000000;fill-opacity:1;fill-rule:nonzero;stroke:none"
             id="path5011" />
        </g>
        <g
           id="g5013"
           transform="translate(229.5488,277.6279)">
          <path
             d="m 0,0 c -0.566,-0.074 -1.144,-0.111 -1.733,-0.111 -1.305,0 -2.209,0.222 -2.713,0.665 -0.505,0.442 -0.757,1.241 -0.757,2.398 v 19.67 c 0.296,0.049 0.725,0.116 1.292,0.203 0.565,0.086 1.132,0.129 1.697,0.129 1.23,0 2.115,-0.209 2.657,-0.628 0.541,-0.418 0.812,-1.23 0.812,-2.435 v -5.978 h 7.086 v 8.709 c 0.295,0.049 0.725,0.116 1.292,0.203 0.565,0.086 1.131,0.129 1.697,0.129 1.23,0 2.115,-0.222 2.656,-0.664 0.541,-0.443 0.813,-1.268 0.813,-2.473 V 0.221 C 14.527,0.147 14.109,0.074 13.544,0 12.978,-0.074 12.4,-0.111 11.81,-0.111 10.505,-0.111 9.602,0.111 9.097,0.554 8.593,0.996 8.341,1.795 8.341,2.952 V 8.82 H 1.255 V 0.221 C 0.984,0.147 0.566,0.074 0,0"
             style="fill:#000000;fill-opacity:1;fill-rule:nonzero;stroke:none"
             id="path5015" />
        </g>
        <g
           id="g5017"
           transform="translate(116.1836,301.5815)">
          <path
             d="m 0,0 c 0.338,-0.467 -0.241,-1.463 -1.293,-2.225 -1.052,-0.761 -2.179,-1 -2.518,-0.532 -0.337,0.466 0.242,1.463 1.293,2.224 1.052,0.762 2.18,1 2.518,0.533"
             style="fill:#000000;fill-opacity:1;fill-rule:nonzero;stroke:none"
             id="path5019" />
        </g>
        <g
           id="g5021"
           transform="translate(95.5723,301.5815)">
          <path
             d="m 0,0 c -0.339,-0.467 0.24,-1.463 1.292,-2.225 1.053,-0.761 2.18,-1 2.518,-0.532 0.337,0.466 -0.241,1.463 -1.293,2.224 C 1.465,0.229 0.338,0.467 0,0"
             style="fill:#000000;fill-opacity:1;fill-rule:nonzero;stroke:none"
             id="path5023" />
        </g>
        <g
           id="g5025"
           transform="translate(80.2705,279.4854)">
          <path
             d="m 0,0 c 0,0 4.874,-0.691 7.983,-3.447 0,0 -4.39,6.875 -2.802,8.827 -6.355,2.993 -13.431,3.116 -20.436,-3.157 1.113,0.475 2.365,0.535 3.748,0.21 3.851,-0.982 7.181,-3.509 9.704,-6.58 1.255,-1.527 2.327,-3.187 3.281,-4.919 0,0 1.53,6.058 -1.478,9.066"
             style="fill:#000000;fill-opacity:1;fill-rule:nonzero;stroke:none"
             id="path5027" />
        </g>
        <g
           id="g5029"
           transform="translate(124.3848,310.4829)">
          <path
             d="M 0,0 C -0.567,0.88 -1.358,1.624 -2.338,2.157 -4.514,3.343 -7.244,3.341 -10.106,2.209 0.112,12.607 3.587,7.477 3.587,7.477 0.692,4.681 0.018,1.925 0,0 m -4.515,-16.441 c -4.709,-2.323 -8.134,-5.302 -10.181,-8.852 -0.568,-0.985 -1.028,-2.017 -1.368,-3.066 -0.057,-0.174 -0.22,-0.29 -0.402,-0.288 -0.182,0.003 -0.342,0.124 -0.393,0.299 -0.742,2.536 -1.118,5.05 -1.118,7.475 0,6.708 2.809,12.366 7.706,15.522 3.26,2.102 6.533,2.542 8.978,1.209 1.764,-0.961 2.817,-2.723 2.817,-4.712 0,-2.928 -2.201,-5.693 -6.039,-7.587 m -13.992,-17.323 c -1.222,0 -2.214,0.991 -2.214,2.213 0,1.222 0.992,2.214 2.214,2.214 1.223,0 2.213,-0.992 2.213,-2.214 0,-1.222 -0.99,-2.213 -2.213,-2.213 m -2.442,5.405 c -0.341,1.049 -0.802,2.081 -1.369,3.066 -2.047,3.55 -5.472,6.529 -10.182,8.852 -3.837,1.894 -6.038,4.659 -6.038,7.587 0,1.989 1.053,3.751 2.817,4.712 2.446,1.333 5.718,0.893 8.979,-1.209 4.896,-3.156 7.704,-8.814 7.704,-15.522 0,-2.425 -0.376,-4.939 -1.117,-7.475 -0.051,-0.175 -0.21,-0.296 -0.393,-0.299 -0.182,-0.002 -0.346,0.114 -0.401,0.288 M -26.908,2.209 C -29.77,3.341 -32.5,3.343 -34.677,2.157 -35.655,1.624 -36.446,0.88 -37.014,0 c -0.018,1.925 -0.693,4.681 -3.587,7.477 0,0 3.474,5.13 13.693,-5.268 M 9.806,18.318 h -56.625 c -1.767,0 -3.213,-1.446 -3.213,-3.213 v -37.694 c 3.969,0.836 7.849,0.072 11.494,-1.644 12.938,-6.095 22.887,-24.092 23.162,-24.258 1.786,-2.598 3.881,-4.946 6.409,-6.83 5.532,-4.121 12.936,-5.618 19.635,-3.97 0.797,0.197 1.58,0.442 2.351,0.723 v 73.673 c 0,1.767 -1.447,3.213 -3.213,3.213"
             style="fill:#000000;fill-opacity:1;fill-rule:nonzero;stroke:none"
             id="path5031" />
        </g>
        <g
           id="g5033"
           transform="translate(149.2041,256.4629)">
          <path
             d="m 0,0 c -0.043,-0.031 -0.101,-0.059 -0.171,-0.083 -0.071,-0.025 -0.15,-0.038 -0.237,-0.038 -0.099,0 -0.187,0.016 -0.264,0.047 -0.077,0.031 -0.132,0.08 -0.163,0.148 C -1.168,0.767 -1.456,1.4 -1.696,1.975 -1.938,2.551 -2.133,3.027 -2.281,3.404 H -2.318 C -2.337,2.94 -2.356,2.509 -2.379,2.11 -2.4,1.711 -2.424,1.322 -2.448,0.941 -2.473,0.561 -2.498,0.176 -2.522,-0.213 -2.548,-0.603 -2.572,-1.02 -2.597,-1.465 -2.634,-1.478 -2.682,-1.49 -2.74,-1.502 c -0.059,-0.013 -0.122,-0.019 -0.191,-0.019 -0.135,0 -0.231,0.028 -0.287,0.083 -0.056,0.056 -0.084,0.136 -0.084,0.242 0,0.061 0.005,0.195 0.014,0.399 0.01,0.203 0.024,0.451 0.043,0.741 0.018,0.291 0.038,0.613 0.059,0.965 0.022,0.352 0.047,0.711 0.075,1.075 0.028,0.366 0.055,0.724 0.084,1.077 0.027,0.352 0.053,0.673 0.078,0.964 0.05,0.043 0.12,0.084 0.214,0.121 0.092,0.037 0.198,0.055 0.314,0.055 0.285,0 0.483,-0.114 0.594,-0.343 0.118,-0.241 0.237,-0.496 0.357,-0.765 0.12,-0.269 0.241,-0.542 0.363,-0.821 0.12,-0.278 0.237,-0.553 0.351,-0.825 0.114,-0.272 0.225,-0.532 0.329,-0.78 h 0.037 c 0.137,0.329 0.273,0.651 0.409,0.97 0.135,0.319 0.269,0.626 0.399,0.923 0.13,0.296 0.253,0.575 0.37,0.835 C 0.906,3.654 1.012,3.892 1.104,4.109 1.159,4.14 1.23,4.163 1.317,4.178 1.403,4.193 1.484,4.201 1.559,4.201 1.849,4.201 2.016,4.103 2.06,3.905 2.084,3.793 2.111,3.609 2.143,3.353 2.174,3.096 2.204,2.801 2.235,2.467 2.267,2.133 2.296,1.774 2.323,1.391 2.352,1.008 2.378,0.638 2.402,0.283 2.428,-0.073 2.449,-0.4 2.468,-0.7 2.486,-1.001 2.501,-1.237 2.514,-1.41 2.402,-1.484 2.272,-1.521 2.124,-1.521 2.031,-1.521 1.949,-1.498 1.879,-1.452 1.808,-1.405 1.766,-1.32 1.753,-1.196 1.722,-0.745 1.694,-0.297 1.67,0.148 1.646,0.594 1.622,1.017 1.601,1.419 1.578,1.821 1.559,2.19 1.54,2.527 1.521,2.864 1.506,3.15 1.494,3.385 H 1.457 C 1.389,3.212 1.31,3.018 1.22,2.801 1.131,2.584 1.025,2.34 0.905,2.068 0.784,1.796 0.649,1.489 0.501,1.146 0.354,0.802 0.186,0.42 0,0"
             style="fill:#000000;fill-opacity:1;fill-rule:nonzero;stroke:none"
             id="path5035" />
        </g>
        <g
           id="g5037"
           transform="translate(154.6299,255.48)">
          <path
             d="M 0,0 C 0.26,0 0.475,0.026 0.646,0.079 0.815,0.131 0.937,0.182 1.011,0.231 V 1.577 L -0.139,1.456 C -0.461,1.425 -0.698,1.352 -0.853,1.238 -1.008,1.124 -1.085,0.955 -1.085,0.732 c 0,-0.235 0.09,-0.416 0.27,-0.542 C -0.637,0.063 -0.364,0 0,0 m -0.009,3.923 c 0.537,0 0.964,-0.121 1.28,-0.361 C 1.586,3.32 1.744,2.94 1.744,2.42 V 0.222 c 0,-0.136 -0.026,-0.24 -0.079,-0.31 C 1.612,-0.16 1.533,-0.226 1.429,-0.288 1.28,-0.375 1.084,-0.45 0.84,-0.515 0.596,-0.58 0.315,-0.613 0,-0.613 c -0.581,0 -1.031,0.115 -1.349,0.344 -0.319,0.228 -0.478,0.559 -0.478,0.992 0,0.408 0.134,0.716 0.399,0.923 0.266,0.207 0.64,0.335 1.122,0.385 l 1.317,0.13 V 2.42 c 0,0.31 -0.093,0.535 -0.278,0.678 -0.186,0.142 -0.436,0.213 -0.752,0.213 -0.259,0 -0.503,-0.037 -0.732,-0.112 -0.228,-0.073 -0.433,-0.157 -0.612,-0.25 -0.049,0.043 -0.095,0.093 -0.135,0.149 -0.04,0.055 -0.061,0.117 -0.061,0.185 0,0.087 0.023,0.157 0.066,0.214 0.044,0.055 0.111,0.108 0.204,0.157 0.167,0.087 0.358,0.153 0.575,0.2 0.217,0.046 0.451,0.069 0.705,0.069"
             style="fill:#000000;fill-opacity:1;fill-rule:nonzero;stroke:none"
             id="path5039" />
        </g>
        <g
           id="g5041"
           transform="translate(158.4697,255.0161)">
          <path
             d="m 0,0 c -0.031,-0.013 -0.077,-0.026 -0.139,-0.042 -0.062,-0.016 -0.13,-0.023 -0.204,-0.023 -0.266,0 -0.399,0.111 -0.399,0.334 v 3.144 c 0,0.142 0.026,0.255 0.079,0.338 0.053,0.084 0.141,0.166 0.265,0.247 0.16,0.104 0.377,0.195 0.653,0.273 C 0.53,4.348 0.841,4.387 1.187,4.387 1.682,4.387 1.93,4.263 1.93,4.016 1.93,3.954 1.92,3.897 1.901,3.844 1.883,3.792 1.858,3.747 1.827,3.71 1.766,3.722 1.685,3.734 1.586,3.747 1.487,3.759 1.389,3.766 1.289,3.766 1.005,3.766 0.755,3.736 0.538,3.677 0.322,3.619 0.143,3.549 0,3.469 Z"
             style="fill:#000000;fill-opacity:1;fill-rule:nonzero;stroke:none"
             id="path5043" />
        </g>
        <g
           id="g5045"
           transform="translate(161.8925,254.9741)">
          <path
             d="m 0,0 c -0.062,-0.016 -0.13,-0.023 -0.204,-0.023 -0.267,0 -0.4,0.111 -0.4,0.334 v 5.722 c 0.032,0.013 0.08,0.027 0.145,0.042 0.064,0.015 0.134,0.023 0.208,0.023 0.26,0 0.39,-0.111 0.39,-0.334 V 2.425 L 2.17,4.392 C 2.318,4.385 2.435,4.35 2.518,4.285 2.602,4.22 2.644,4.135 2.644,4.03 2.644,3.943 2.615,3.868 2.56,3.803 2.504,3.738 2.43,3.662 2.337,3.576 L 0.844,2.268 2.912,0.413 C 2.899,0.277 2.857,0.168 2.787,0.088 2.715,0.008 2.621,-0.032 2.504,-0.032 2.411,-0.032 2.326,-0.009 2.249,0.037 2.172,0.083 2.093,0.15 2.012,0.237 L 0.139,2.119 V 0.042 C 0.107,0.029 0.062,0.016 0,0"
             style="fill:#000000;fill-opacity:1;fill-rule:nonzero;stroke:none"
             id="path5047" />
        </g>
        <g
           id="g5049"
           transform="translate(167.5029,258.8003)">
          <path
             d="m 0,0 c -0.377,0 -0.689,-0.131 -0.937,-0.395 -0.247,-0.262 -0.376,-0.638 -0.389,-1.126 l 2.551,0.352 c -0.032,0.34 -0.15,0.62 -0.358,0.84 C 0.66,-0.11 0.371,0 0,0 m -1.28,-2.096 c 0.168,-0.81 0.699,-1.216 1.595,-1.216 0.26,0 0.496,0.044 0.706,0.13 0.209,0.087 0.376,0.18 0.5,0.279 0.149,-0.087 0.222,-0.204 0.222,-0.353 0,-0.086 -0.038,-0.17 -0.115,-0.25 C 1.551,-3.586 1.445,-3.658 1.312,-3.72 1.18,-3.781 1.025,-3.831 0.849,-3.868 0.673,-3.905 0.482,-3.923 0.278,-3.923 c -0.717,0 -1.284,0.194 -1.702,0.584 -0.417,0.389 -0.626,0.958 -0.626,1.706 0,0.353 0.052,0.667 0.154,0.942 0.101,0.275 0.244,0.508 0.426,0.7 0.183,0.192 0.401,0.339 0.654,0.441 0.254,0.102 0.529,0.153 0.826,0.153 0.277,0 0.534,-0.047 0.769,-0.139 C 1.014,0.371 1.217,0.239 1.387,0.069 1.557,-0.101 1.689,-0.302 1.785,-0.533 1.881,-0.765 1.93,-1.021 1.93,-1.299 1.93,-1.435 1.898,-1.532 1.836,-1.591 1.774,-1.649 1.688,-1.686 1.577,-1.698 Z"
             style="fill:#000000;fill-opacity:1;fill-rule:nonzero;stroke:none"
             id="path5051" />
        </g>
        <g
           id="g5053"
           transform="translate(171.9736,254.8769)">
          <path
             d="m 0,0 c -0.433,0 -0.783,0.096 -1.053,0.288 -0.268,0.191 -0.403,0.51 -0.403,0.955 v 4.405 c 0.031,0.013 0.079,0.026 0.144,0.042 0.065,0.015 0.134,0.023 0.208,0.023 0.26,0 0.39,-0.111 0.39,-0.334 V 4.313 H 0.808 C 0.826,4.282 0.845,4.24 0.863,4.188 0.882,4.135 0.891,4.078 0.891,4.016 0.891,3.806 0.798,3.701 0.612,3.701 H -0.714 V 1.289 c 0,-0.247 0.069,-0.422 0.209,-0.524 0.139,-0.102 0.335,-0.153 0.589,-0.153 0.104,0 0.223,0.018 0.353,0.055 C 0.565,0.705 0.675,0.748 0.761,0.798 0.798,0.76 0.832,0.714 0.863,0.658 0.894,0.603 0.909,0.538 0.909,0.463 0.909,0.328 0.828,0.216 0.668,0.13 0.507,0.043 0.284,0 0,0"
             style="fill:#000000;fill-opacity:1;fill-rule:nonzero;stroke:none"
             id="path5055" />
        </g>
        <g
           id="g5057"
           transform="translate(174.747,255.0161)">
          <path
             d="m 0,0 c -0.031,-0.013 -0.078,-0.026 -0.14,-0.042 -0.061,-0.016 -0.13,-0.023 -0.204,-0.023 -0.265,0 -0.399,0.111 -0.399,0.334 v 3.979 c 0.031,0.012 0.08,0.026 0.144,0.042 0.066,0.015 0.135,0.023 0.209,0.023 C -0.13,4.313 0,4.198 0,3.97 Z m -0.854,5.62 c 0,0.13 0.045,0.24 0.134,0.33 0.09,0.089 0.206,0.134 0.349,0.134 0.142,0 0.256,-0.045 0.343,-0.134 0.087,-0.09 0.13,-0.2 0.13,-0.33 0,-0.13 -0.043,-0.24 -0.13,-0.329 C -0.115,5.202 -0.229,5.157 -0.371,5.157 -0.514,5.157 -0.63,5.202 -0.72,5.291 -0.809,5.38 -0.854,5.49 -0.854,5.62"
             style="fill:#000000;fill-opacity:1;fill-rule:nonzero;stroke:none"
             id="path5059" />
        </g>
        <g
           id="g5061"
           transform="translate(178.8701,258.5498)">
          <path
             d="M 0,0 C -0.195,0.161 -0.457,0.241 -0.784,0.241 -1.031,0.241 -1.251,0.21 -1.442,0.148 -1.635,0.086 -1.799,0.015 -1.935,-0.065 v -3.469 c -0.03,-0.012 -0.077,-0.026 -0.138,-0.042 -0.063,-0.015 -0.13,-0.023 -0.204,-0.023 -0.267,0 -0.4,0.112 -0.4,0.334 v 3.162 c 0,0.131 0.027,0.237 0.08,0.321 0.052,0.083 0.144,0.165 0.273,0.246 0.161,0.098 0.374,0.188 0.64,0.268 0.266,0.08 0.566,0.121 0.9,0.121 0.562,0 1.006,-0.126 1.331,-0.38 0.324,-0.254 0.487,-0.652 0.487,-1.197 v -2.81 C 1.003,-3.546 0.954,-3.56 0.89,-3.576 0.825,-3.591 0.759,-3.599 0.69,-3.599 c -0.265,0 -0.398,0.112 -0.398,0.334 v 2.504 C 0.292,-0.415 0.194,-0.161 0,0"
             style="fill:#000000;fill-opacity:1;fill-rule:nonzero;stroke:none"
             id="path5063" />
        </g>
        <g
           id="g5065"
           transform="translate(183.1591,255.7392)">
          <path
             d="M 0,0 C 0.247,0 0.45,0.039 0.607,0.116 0.765,0.193 0.896,0.281 1.002,0.38 V 2.792 C 0.896,2.86 0.765,2.92 0.607,2.973 0.45,3.025 0.263,3.052 0.046,3.052 -0.374,3.052 -0.709,2.925 -0.96,2.671 -1.21,2.418 -1.336,2.041 -1.336,1.54 -1.336,1.262 -1.302,1.025 -1.233,0.83 -1.166,0.635 -1.071,0.476 -0.951,0.353 -0.83,0.229 -0.688,0.139 -0.524,0.083 -0.36,0.028 -0.186,0 0,0 M 1.002,-0.296 C 0.896,-0.383 0.753,-0.458 0.57,-0.519 0.388,-0.581 0.17,-0.612 -0.083,-0.612 c -0.272,0 -0.529,0.039 -0.771,0.116 -0.241,0.077 -0.452,0.201 -0.634,0.371 -0.183,0.17 -0.328,0.391 -0.437,0.663 -0.107,0.272 -0.162,0.603 -0.162,0.993 0,0.352 0.053,0.661 0.157,0.927 0.106,0.266 0.253,0.488 0.442,0.668 0.188,0.179 0.412,0.313 0.672,0.403 0.259,0.09 0.546,0.135 0.862,0.135 0.285,0 0.546,-0.036 0.784,-0.107 C 1.068,3.486 1.268,3.397 1.429,3.293 1.521,3.231 1.597,3.161 1.655,3.084 1.714,3.007 1.743,2.912 1.743,2.801 V -0.927 C 1.743,-1.236 1.692,-1.498 1.591,-1.711 1.488,-1.924 1.347,-2.098 1.164,-2.23 0.981,-2.363 0.767,-2.461 0.52,-2.522 0.272,-2.584 0.006,-2.615 -0.278,-2.615 c -0.316,0 -0.582,0.032 -0.802,0.097 -0.22,0.065 -0.37,0.122 -0.45,0.172 -0.186,0.105 -0.279,0.238 -0.279,0.398 0,0.087 0.021,0.16 0.061,0.219 0.04,0.058 0.091,0.103 0.153,0.134 0.129,-0.099 0.312,-0.19 0.547,-0.274 0.235,-0.083 0.491,-0.125 0.77,-0.125 0.414,0 0.73,0.088 0.95,0.265 0.22,0.176 0.33,0.458 0.33,0.848 z"
             style="fill:#000000;fill-opacity:1;fill-rule:nonzero;stroke:none"
             id="path5067" />
        </g>
        <g
           id="g5069"
           transform="translate(190.0312,255.4888)">
          <path
             d="m 0,0 c 0.217,0 0.442,0.043 0.677,0.13 0.235,0.087 0.455,0.232 0.659,0.436 l -1.8,1.883 C -0.581,2.412 -0.695,2.361 -0.807,2.296 -0.918,2.231 -1.016,2.147 -1.099,2.045 -1.182,1.943 -1.25,1.824 -1.303,1.688 -1.355,1.552 -1.382,1.4 -1.382,1.234 -1.382,0.863 -1.26,0.564 -1.016,0.339 -0.771,0.113 -0.433,0 0,0 m 2.644,-0.622 c -0.069,0 -0.13,0.019 -0.186,0.057 -0.056,0.037 -0.117,0.089 -0.186,0.157 L 1.8,0.083 C 1.596,-0.133 1.346,-0.306 1.048,-0.436 0.752,-0.565 0.399,-0.631 -0.009,-0.631 c -0.321,0 -0.612,0.046 -0.872,0.135 -0.26,0.09 -0.482,0.215 -0.668,0.375 -0.184,0.161 -0.329,0.358 -0.43,0.59 -0.103,0.232 -0.154,0.49 -0.154,0.774 0,0.433 0.114,0.793 0.344,1.081 0.227,0.287 0.519,0.496 0.871,0.625 -0.148,0.174 -0.26,0.344 -0.334,0.51 -0.074,0.167 -0.111,0.35 -0.111,0.548 0,0.383 0.128,0.689 0.384,0.918 0.257,0.229 0.621,0.343 1.09,0.343 0.328,0 0.577,-0.046 0.747,-0.139 0.17,-0.092 0.255,-0.21 0.255,-0.352 0,-0.074 -0.019,-0.141 -0.06,-0.2 C 1.013,4.519 0.969,4.474 0.919,4.443 0.819,4.499 0.704,4.545 0.57,4.582 0.437,4.619 0.3,4.638 0.158,4.638 -0.077,4.638 -0.263,4.581 -0.398,4.466 -0.534,4.352 -0.603,4.195 -0.603,3.998 c 0,-0.192 0.05,-0.362 0.149,-0.51 0.1,-0.149 0.241,-0.319 0.427,-0.51 L 1.716,1.159 c 0.087,0.198 0.153,0.433 0.2,0.705 0.046,0.272 0.069,0.579 0.069,0.919 0.056,0.024 0.113,0.044 0.171,0.06 0.06,0.015 0.116,0.023 0.172,0.023 0.247,0 0.371,-0.139 0.371,-0.417 0,-0.316 -0.04,-0.634 -0.12,-0.955 C 2.499,1.172 2.384,0.881 2.235,0.622 l 0.817,-0.844 c -0.037,-0.266 -0.174,-0.4 -0.408,-0.4"
             style="fill:#000000;fill-opacity:1;fill-rule:nonzero;stroke:none"
             id="path5071" />
        </g>
        <g
           id="g5073"
           transform="translate(200.1416,260.0151)">
          <path
             d="m 0,0 c 0,-0.086 -0.026,-0.161 -0.08,-0.223 -0.052,-0.062 -0.112,-0.108 -0.181,-0.139 -0.16,0.112 -0.348,0.216 -0.565,0.316 -0.216,0.098 -0.497,0.148 -0.844,0.148 -0.285,0 -0.548,-0.05 -0.788,-0.148 -0.242,-0.1 -0.451,-0.245 -0.631,-0.436 -0.18,-0.192 -0.32,-0.434 -0.422,-0.724 -0.102,-0.291 -0.153,-0.625 -0.153,-1.002 0,-0.383 0.049,-0.717 0.148,-1.001 0.099,-0.285 0.237,-0.523 0.413,-0.714 0.176,-0.192 0.388,-0.336 0.635,-0.432 0.247,-0.095 0.523,-0.144 0.825,-0.144 0.322,0 0.602,0.045 0.84,0.135 0.239,0.09 0.438,0.197 0.598,0.32 0.062,-0.025 0.121,-0.069 0.177,-0.134 0.055,-0.065 0.084,-0.141 0.084,-0.228 0,-0.129 -0.075,-0.247 -0.224,-0.352 -0.142,-0.099 -0.337,-0.187 -0.584,-0.264 -0.247,-0.078 -0.562,-0.116 -0.946,-0.116 -0.389,0 -0.751,0.062 -1.085,0.185 -0.333,0.124 -0.623,0.308 -0.867,0.552 -0.245,0.244 -0.438,0.549 -0.58,0.914 -0.142,0.364 -0.213,0.791 -0.213,1.279 0,0.489 0.073,0.917 0.217,1.285 0.146,0.368 0.342,0.675 0.59,0.923 0.246,0.247 0.536,0.433 0.866,0.557 0.332,0.123 0.679,0.185 1.044,0.185 0.253,0 0.487,-0.022 0.701,-0.065 C -0.812,0.634 -0.63,0.576 -0.479,0.505 -0.326,0.434 -0.209,0.354 -0.126,0.264 -0.042,0.174 0,0.086 0,0"
             style="fill:#000000;fill-opacity:1;fill-rule:nonzero;stroke:none"
             id="path5075" />
        </g>
        <g
           id="g5077"
           transform="translate(202.9883,258.791)">
          <path
             d="m 0,0 c -0.421,0 -0.751,-0.146 -0.992,-0.436 -0.241,-0.291 -0.362,-0.696 -0.362,-1.215 0,-0.526 0.119,-0.932 0.357,-1.22 0.238,-0.287 0.57,-0.431 0.997,-0.431 0.427,0 0.758,0.145 0.992,0.436 0.236,0.29 0.353,0.696 0.353,1.215 0,0.519 -0.119,0.924 -0.358,1.215 C 0.75,-0.146 0.42,0 0,0 M 2.105,-1.651 C 2.105,-1.998 2.056,-2.31 1.957,-2.588 1.857,-2.866 1.718,-3.104 1.535,-3.302 1.353,-3.5 1.131,-3.651 0.872,-3.756 0.612,-3.861 0.321,-3.914 0,-3.914 c -0.321,0 -0.612,0.053 -0.872,0.158 -0.26,0.105 -0.482,0.256 -0.668,0.454 -0.185,0.198 -0.327,0.436 -0.427,0.714 -0.098,0.278 -0.147,0.59 -0.147,0.937 0,0.346 0.051,0.658 0.152,0.937 0.102,0.278 0.246,0.516 0.432,0.714 0.185,0.198 0.408,0.349 0.667,0.455 0.26,0.104 0.548,0.157 0.863,0.157 0.315,0 0.603,-0.053 0.862,-0.157 C 1.122,0.349 1.343,0.198 1.525,0 1.708,-0.198 1.851,-0.436 1.952,-0.714 2.055,-0.993 2.105,-1.305 2.105,-1.651"
             style="fill:#000000;fill-opacity:1;fill-rule:nonzero;stroke:none"
             id="path5079" />
        </g>
        <g
           id="g5081"
           transform="translate(208.9199,258.5498)">
          <path
             d="M 0,0 C -0.195,0.161 -0.457,0.241 -0.784,0.241 -1.031,0.241 -1.251,0.21 -1.442,0.148 -1.635,0.086 -1.799,0.015 -1.935,-0.065 v -3.469 c -0.03,-0.012 -0.077,-0.026 -0.138,-0.042 -0.063,-0.015 -0.13,-0.023 -0.204,-0.023 -0.267,0 -0.4,0.112 -0.4,0.334 v 3.162 c 0,0.131 0.027,0.237 0.08,0.321 0.052,0.083 0.144,0.165 0.273,0.246 0.161,0.098 0.374,0.188 0.64,0.268 0.266,0.08 0.566,0.121 0.9,0.121 0.562,0 1.006,-0.126 1.331,-0.38 0.324,-0.254 0.487,-0.652 0.487,-1.197 v -2.81 C 1.003,-3.546 0.954,-3.56 0.89,-3.576 0.825,-3.591 0.759,-3.599 0.69,-3.599 c -0.265,0 -0.398,0.112 -0.398,0.334 v 2.504 C 0.292,-0.415 0.194,-0.161 0,0"
             style="fill:#000000;fill-opacity:1;fill-rule:nonzero;stroke:none"
             id="path5083" />
        </g>
        <g
           id="g5085"
           transform="translate(212.8105,254.8769)">
          <path
             d="m 0,0 c -0.434,0 -0.784,0.096 -1.053,0.288 -0.268,0.191 -0.404,0.51 -0.404,0.955 v 4.405 c 0.031,0.013 0.08,0.026 0.145,0.042 0.064,0.015 0.134,0.023 0.208,0.023 0.26,0 0.389,-0.111 0.389,-0.334 V 4.313 H 0.807 C 0.825,4.282 0.844,4.24 0.862,4.188 0.881,4.135 0.89,4.078 0.89,4.016 0.89,3.806 0.798,3.701 0.611,3.701 H -0.715 V 1.289 c 0,-0.247 0.07,-0.422 0.209,-0.524 0.139,-0.102 0.335,-0.153 0.589,-0.153 0.105,0 0.223,0.018 0.353,0.055 C 0.565,0.705 0.674,0.748 0.761,0.798 0.798,0.76 0.831,0.714 0.862,0.658 0.894,0.603 0.908,0.538 0.908,0.463 0.908,0.328 0.828,0.216 0.668,0.13 0.506,0.043 0.284,0 0,0"
             style="fill:#000000;fill-opacity:1;fill-rule:nonzero;stroke:none"
             id="path5087" />
        </g>
        <g
           id="g5089"
           transform="translate(216.3799,255.48)">
          <path
             d="M 0,0 C 0.261,0 0.475,0.026 0.646,0.079 0.815,0.131 0.937,0.182 1.012,0.231 V 1.577 L -0.139,1.456 C -0.46,1.425 -0.698,1.352 -0.853,1.238 -1.008,1.124 -1.085,0.955 -1.085,0.732 c 0,-0.235 0.09,-0.416 0.27,-0.542 C -0.636,0.063 -0.364,0 0,0 m -0.009,3.923 c 0.538,0 0.965,-0.121 1.28,-0.361 C 1.586,3.32 1.744,2.94 1.744,2.42 V 0.222 c 0,-0.136 -0.026,-0.24 -0.078,-0.31 C 1.612,-0.16 1.534,-0.226 1.429,-0.288 1.28,-0.375 1.084,-0.45 0.84,-0.515 0.596,-0.58 0.315,-0.613 0,-0.613 c -0.581,0 -1.03,0.115 -1.349,0.344 -0.319,0.228 -0.477,0.559 -0.477,0.992 0,0.408 0.133,0.716 0.398,0.923 0.266,0.207 0.64,0.335 1.122,0.385 l 1.318,0.13 V 2.42 c 0,0.31 -0.093,0.535 -0.279,0.678 -0.185,0.142 -0.435,0.213 -0.752,0.213 -0.258,0 -0.502,-0.037 -0.732,-0.112 -0.228,-0.073 -0.433,-0.157 -0.611,-0.25 -0.05,0.043 -0.095,0.093 -0.136,0.149 -0.039,0.055 -0.06,0.117 -0.06,0.185 0,0.087 0.022,0.157 0.065,0.214 0.044,0.055 0.112,0.108 0.205,0.157 0.166,0.087 0.358,0.153 0.574,0.2 0.217,0.046 0.451,0.069 0.705,0.069"
             style="fill:#000000;fill-opacity:1;fill-rule:nonzero;stroke:none"
             id="path5091" />
        </g>
        <g
           id="g5093"
           transform="translate(221.2773,258.791)">
          <path
             d="M 0,0 C -0.216,0 -0.413,-0.039 -0.589,-0.116 -0.766,-0.194 -0.915,-0.285 -1.038,-0.39 v -2.625 c 0.092,-0.068 0.226,-0.132 0.403,-0.194 0.176,-0.062 0.382,-0.093 0.616,-0.093 0.21,0 0.401,0.032 0.571,0.097 0.17,0.065 0.317,0.165 0.44,0.302 0.124,0.135 0.22,0.307 0.288,0.514 0.068,0.207 0.103,0.453 0.103,0.738 0,0.284 -0.035,0.532 -0.103,0.742 -0.068,0.21 -0.164,0.382 -0.288,0.514 -0.123,0.133 -0.27,0.232 -0.44,0.297 C 0.382,-0.033 0.198,0 0,0 M 0.111,0.612 C 0.396,0.612 0.662,0.565 0.909,0.473 1.156,0.38 1.371,0.241 1.554,0.056 1.735,-0.13 1.879,-0.365 1.98,-0.649 2.082,-0.934 2.134,-1.268 2.134,-1.651 2.134,-2.041 2.081,-2.378 1.976,-2.662 1.871,-2.947 1.724,-3.182 1.535,-3.367 1.347,-3.552 1.119,-3.69 0.854,-3.78 0.588,-3.869 0.297,-3.914 -0.019,-3.914 c -0.302,0 -0.577,0.036 -0.821,0.106 -0.244,0.072 -0.442,0.154 -0.597,0.246 -0.13,0.081 -0.22,0.16 -0.269,0.237 -0.05,0.077 -0.075,0.181 -0.075,0.31 v 5.231 c 0.031,0.013 0.08,0.027 0.144,0.042 0.065,0.015 0.135,0.023 0.208,0.023 0.261,0 0.391,-0.111 0.391,-0.334 v -1.66 c 0.135,0.087 0.298,0.163 0.486,0.228 0.189,0.065 0.41,0.097 0.663,0.097"
             style="fill:#000000;fill-opacity:1;fill-rule:nonzero;stroke:none"
             id="path5095" />
        </g>
        <g
           id="g5097"
           transform="translate(225.3584,255.0161)">
          <path
             d="m 0,0 c -0.031,-0.013 -0.077,-0.026 -0.139,-0.042 -0.062,-0.016 -0.131,-0.023 -0.205,-0.023 -0.265,0 -0.398,0.111 -0.398,0.334 v 3.979 c 0.031,0.012 0.079,0.026 0.144,0.042 0.065,0.015 0.134,0.023 0.208,0.023 C -0.13,4.313 0,4.198 0,3.97 Z m -0.854,5.62 c 0,0.13 0.045,0.24 0.135,0.33 0.09,0.089 0.205,0.134 0.348,0.134 0.142,0 0.257,-0.045 0.344,-0.134 C 0.059,5.86 0.102,5.75 0.102,5.62 0.102,5.49 0.059,5.38 -0.027,5.291 -0.114,5.202 -0.229,5.157 -0.371,5.157 c -0.143,0 -0.258,0.045 -0.348,0.134 -0.09,0.089 -0.135,0.199 -0.135,0.329"
             style="fill:#000000;fill-opacity:1;fill-rule:nonzero;stroke:none"
             id="path5099" />
        </g>
        <g
           id="g5101"
           transform="translate(227.5009,254.9741)">
          <path
             d="m 0,0 c -0.062,-0.016 -0.131,-0.023 -0.204,-0.023 -0.267,0 -0.399,0.111 -0.399,0.334 v 5.722 c 0.031,0.013 0.079,0.027 0.144,0.042 0.064,0.015 0.131,0.023 0.199,0.023 0.266,0 0.399,-0.111 0.399,-0.334 V 0.042 C 0.107,0.029 0.062,0.016 0,0"
             style="fill:#000000;fill-opacity:1;fill-rule:nonzero;stroke:none"
             id="path5103" />
        </g>
        <g
           id="g5105"
           transform="translate(229.9121,255.0161)">
          <path
             d="m 0,0 c -0.03,-0.013 -0.077,-0.026 -0.139,-0.042 -0.062,-0.016 -0.13,-0.023 -0.204,-0.023 -0.266,0 -0.399,0.111 -0.399,0.334 v 3.979 c 0.031,0.012 0.079,0.026 0.144,0.042 0.065,0.015 0.134,0.023 0.208,0.023 C -0.129,4.313 0,4.198 0,3.97 Z m -0.854,5.62 c 0,0.13 0.045,0.24 0.135,0.33 0.09,0.089 0.206,0.134 0.348,0.134 0.142,0 0.257,-0.045 0.344,-0.134 0.087,-0.09 0.13,-0.2 0.13,-0.33 0,-0.13 -0.043,-0.24 -0.13,-0.329 -0.087,-0.089 -0.202,-0.134 -0.344,-0.134 -0.142,0 -0.258,0.045 -0.348,0.134 -0.09,0.089 -0.135,0.199 -0.135,0.329"
             style="fill:#000000;fill-opacity:1;fill-rule:nonzero;stroke:none"
             id="path5107" />
        </g>
        <g
           id="g5109"
           transform="translate(234.2802,258.4756)">
          <path
             d="m 0,0 c -0.123,0.086 -0.266,0.161 -0.427,0.222 -0.16,0.062 -0.345,0.093 -0.556,0.093 -0.192,0 -0.372,-0.029 -0.542,-0.088 -0.17,-0.059 -0.321,-0.155 -0.451,-0.288 -0.129,-0.132 -0.233,-0.307 -0.31,-0.523 -0.077,-0.217 -0.116,-0.479 -0.116,-0.789 0,-0.569 0.136,-0.98 0.408,-1.233 0.272,-0.254 0.634,-0.381 1.085,-0.381 0.217,0 0.394,0.024 0.533,0.07 0.14,0.046 0.265,0.104 0.376,0.171 z m 0.742,-2.773 c 0,-0.124 -0.026,-0.22 -0.079,-0.288 C 0.611,-3.129 0.529,-3.197 0.418,-3.265 0.294,-3.345 0.117,-3.421 -0.111,-3.492 -0.34,-3.563 -0.603,-3.599 -0.899,-3.599 c -0.334,0 -0.64,0.044 -0.918,0.13 -0.279,0.087 -0.518,0.221 -0.719,0.404 -0.201,0.182 -0.356,0.414 -0.464,0.695 -0.108,0.282 -0.162,0.62 -0.162,1.016 0,0.401 0.056,0.746 0.167,1.034 0.11,0.287 0.261,0.524 0.449,0.709 0.189,0.186 0.411,0.322 0.668,0.408 0.257,0.087 0.53,0.13 0.821,0.13 0.198,0 0.39,-0.025 0.575,-0.074 C -0.297,0.804 -0.136,0.742 0,0.667 v 1.865 c 0.031,0.012 0.079,0.026 0.144,0.042 0.065,0.015 0.131,0.023 0.2,0.023 0.265,0 0.398,-0.112 0.398,-0.334 z"
             style="fill:#000000;fill-opacity:1;fill-rule:nonzero;stroke:none"
             id="path5111" />
        </g>
        <g
           id="g5113"
           transform="translate(237.9629,255.48)">
          <path
             d="M 0,0 C 0.26,0 0.474,0.026 0.645,0.079 0.814,0.131 0.937,0.182 1.011,0.231 V 1.577 L -0.14,1.456 C -0.461,1.425 -0.699,1.352 -0.854,1.238 -1.008,1.124 -1.086,0.955 -1.086,0.732 -1.086,0.497 -0.995,0.316 -0.816,0.19 -0.637,0.063 -0.365,0 0,0 M -0.01,3.923 C 0.528,3.923 0.955,3.802 1.271,3.562 1.586,3.32 1.743,2.94 1.743,2.42 V 0.222 c 0,-0.136 -0.026,-0.24 -0.078,-0.31 C 1.612,-0.16 1.533,-0.226 1.428,-0.288 1.28,-0.375 1.083,-0.45 0.839,-0.515 0.595,-0.58 0.315,-0.613 0,-0.613 c -0.581,0 -1.031,0.115 -1.35,0.344 -0.318,0.228 -0.477,0.559 -0.477,0.992 0,0.408 0.133,0.716 0.399,0.923 0.265,0.207 0.64,0.335 1.122,0.385 l 1.317,0.13 V 2.42 c 0,0.31 -0.093,0.535 -0.279,0.678 -0.185,0.142 -0.435,0.213 -0.751,0.213 -0.259,0 -0.503,-0.037 -0.732,-0.112 -0.229,-0.073 -0.433,-0.157 -0.612,-0.25 -0.05,0.043 -0.095,0.093 -0.135,0.149 -0.04,0.055 -0.061,0.117 -0.061,0.185 0,0.087 0.022,0.157 0.065,0.214 0.044,0.055 0.112,0.108 0.205,0.157 0.167,0.087 0.358,0.153 0.575,0.2 0.216,0.046 0.451,0.069 0.704,0.069"
             style="fill:#000000;fill-opacity:1;fill-rule:nonzero;stroke:none"
             id="path5115" />
        </g>
        <g
           id="g5117"
           transform="translate(243.9824,258.4756)">
          <path
             d="m 0,0 c -0.124,0.086 -0.267,0.161 -0.427,0.222 -0.161,0.062 -0.346,0.093 -0.556,0.093 -0.193,0 -0.373,-0.029 -0.543,-0.088 -0.17,-0.059 -0.321,-0.155 -0.451,-0.288 -0.128,-0.132 -0.233,-0.307 -0.309,-0.523 -0.078,-0.217 -0.116,-0.479 -0.116,-0.789 0,-0.569 0.135,-0.98 0.408,-1.233 0.271,-0.254 0.634,-0.381 1.085,-0.381 0.216,0 0.393,0.024 0.533,0.07 0.14,0.046 0.265,0.104 0.376,0.171 z m 0.742,-2.773 c 0,-0.124 -0.026,-0.22 -0.08,-0.288 C 0.61,-3.129 0.528,-3.197 0.417,-3.265 0.293,-3.345 0.116,-3.421 -0.111,-3.492 -0.341,-3.563 -0.604,-3.599 -0.9,-3.599 c -0.333,0 -0.64,0.044 -0.918,0.13 -0.279,0.087 -0.518,0.221 -0.719,0.404 -0.201,0.182 -0.356,0.414 -0.464,0.695 -0.107,0.282 -0.162,0.62 -0.162,1.016 0,0.401 0.056,0.746 0.167,1.034 0.111,0.287 0.261,0.524 0.449,0.709 0.19,0.186 0.411,0.322 0.668,0.408 0.257,0.087 0.53,0.13 0.821,0.13 0.198,0 0.39,-0.025 0.576,-0.074 C -0.298,0.804 -0.137,0.742 0,0.667 v 1.865 c 0.03,0.012 0.078,0.026 0.144,0.042 0.064,0.015 0.13,0.023 0.199,0.023 0.265,0 0.399,-0.112 0.399,-0.334 z"
             style="fill:#000000;fill-opacity:1;fill-rule:nonzero;stroke:none"
             id="path5119" />
        </g>
        <path
           d="M 246.19,267.37 H 144.041 v 2.776 H 246.19 Z"
           style="fill:#000000;fill-opacity:1;fill-rule:nonzero;stroke:none"
           id="path5121" />
      </g>
    </g>
  </g>
</svg>
