<?xml version="1.0" encoding="UTF-8" standalone="no"?>
<!-- Generator: Adobe Illustrator 16.0.3, SVG Export Plug-In . SVG Version: 6.00 Build 0)  -->

<svg
   version="1.1"
   id="Layer_1"
   x="0px"
   y="0px"
   width="254.55396"
   height="233.33301"
   viewBox="0 0 254.55396 233.33301"
   enable-background="new 0 0 3200 1400"
   xml:space="preserve"
   xmlns="http://www.w3.org/2000/svg"
   xmlns:svg="http://www.w3.org/2000/svg"><defs
   id="defs1121" />

<g
   id="g10887"
   transform="translate(-1469.7758,-92.449985)"><path
     fill="#ffa600"
     d="m 1635.211,155.581 c -28.644,-11.108 -57.066,-3.49 -72.177,9.989 -4.456,3.975 -8.262,8.704 -11.008,14.007 -3.074,5.938 -4.782,12.504 -5.741,19.122 -2.578,17.805 0.831,37.508 13.527,50.254 11.678,11.725 29.249,15.702 45.792,15.281 12.072,-0.307 24.25,-2.73 34.892,-8.438 10.643,-5.707 19.656,-14.892 23.843,-26.218 2.52,-6.818 3.249,-14.173 3.309,-21.441 0.053,-6.41 -0.407,-12.875 -2.147,-19.045 -4.225,-14.973 -16.042,-27.263 -30.29,-33.511 0,0 7.177,2.784 0,0 z"
     id="path1044" /><path
     d="m 1619.43,325.783 c 0.059,0 0.118,-0.001 0.177,-0.004 1.724,-0.078 3.415,-1.328 3.314,-3.565 -0.62,-13.661 -2.7,-27.25 -6.184,-40.39 -0.59,-2.224 -2.646,-2.923 -4.37,-2.466 -1.751,0.464 -3.21,2.114 -2.612,4.37 3.349,12.627 5.345,25.606 5.933,38.576 0.104,2.291 1.972,3.479 3.742,3.479 z"
     id="path1084" /><path
     d="m 1532.751,305.371 c 0.833,0 1.692,-0.318 2.443,-1.074 9.28,-9.339 19.728,-17.469 31.05,-24.164 1.125,-0.665 1.762,-1.761 1.749,-3.008 -0.014,-1.356 -0.783,-2.661 -1.958,-3.323 -1.073,-0.605 -2.332,-0.572 -3.451,0.089 -11.864,7.015 -22.804,15.526 -32.512,25.294 -1.637,1.648 -1.2,3.796 0.079,5.067 0.686,0.682 1.625,1.119 2.6,1.119 z"
     id="path1086" /><path
     d="m 1472.267,190.739 c 7.775,2.591 15.899,4.149 23.756,5.656 7.363,1.412 14.976,2.872 22.229,5.176 0.381,0.121 0.76,0.18 1.129,0.18 0.808,0 1.564,-0.286 2.168,-0.837 0.981,-0.895 1.425,-2.341 1.13,-3.683 -0.276,-1.258 -1.162,-2.211 -2.43,-2.614 -7.366,-2.34 -15.039,-3.811 -22.458,-5.233 -7.793,-1.494 -15.851,-3.039 -23.5,-5.589 -2.116,-0.704 -3.767,0.574 -4.309,2.199 -0.579,1.737 0.024,3.991 2.285,4.745 z"
     id="path1088" /><path
     d="m 1536.122,234.193 c -0.259,-0.943 -0.962,-1.794 -1.88,-2.274 -0.854,-0.448 -1.791,-0.53 -2.636,-0.232 -5.222,1.839 -10.25,4.317 -15.114,6.714 l -0.096,0.047 c -0.691,0.34 -1.382,0.685 -2.074,1.031 -3.585,1.789 -7.293,3.639 -11.109,4.906 -2.259,0.75 -2.865,3.003 -2.287,4.743 0.436,1.313 1.598,2.4 3.144,2.4 0.368,0 0.758,-0.062 1.166,-0.197 5.164,-1.714 10.074,-4.184 14.822,-6.572 4.388,-2.207 8.926,-4.489 13.605,-6.137 1.91,-0.673 2.967,-2.577 2.459,-4.429 z"
     id="path1090" /><path
     d="m 1500.443,142.41 c 5.538,3.563 10.881,7.64 16.049,11.583 4.528,3.455 9.209,7.027 14.027,10.26 2.387,1.601 4.984,3.276 7.808,4.683 0.573,0.286 1.138,0.412 1.673,0.412 1.48,0 2.74,-0.96 3.346,-2.176 0.895,-1.795 0.284,-3.664 -1.485,-4.546 -4.988,-2.485 -9.634,-5.875 -14.127,-9.154 l -0.303,-0.221 c -2.933,-2.14 -5.883,-4.364 -8.736,-6.516 -2.364,-1.782 -4.728,-3.564 -7.11,-5.322 -2.324,-1.714 -4.812,-3.529 -7.417,-5.205 -1.888,-1.213 -3.824,-0.377 -4.759,1.079 -0.984,1.527 -0.955,3.843 1.034,5.123 z"
     id="path1092" /><path
     d="m 1567.77,118.992 c 2.672,7.979 5.448,15.19 8.484,22.043 0.351,0.791 1.042,1.388 1.948,1.68 0.391,0.126 0.804,0.188 1.213,0.188 0.659,0 1.308,-0.16 1.839,-0.471 1.661,-0.972 2.203,-2.92 1.348,-4.85 -2.749,-6.205 -5.32,-12.948 -8.091,-21.221 -2.675,-7.986 -5.45,-15.196 -8.484,-22.042 -0.351,-0.792 -1.043,-1.389 -1.949,-1.681 -1.021,-0.329 -2.191,-0.221 -3.052,0.283 -1.662,0.972 -2.204,2.921 -1.348,4.85 2.747,6.198 5.318,12.941 8.092,21.221 z"
     id="path1094" /><path
     d="m 1634.3,137.161 c 1.927,0 3.378,-1.409 3.612,-3.507 l 3.979,-35.749 c 0.096,-0.861 -0.201,-1.726 -0.836,-2.435 -0.714,-0.797 -1.777,-1.293 -2.775,-1.293 -1.927,0 -3.378,1.409 -3.612,3.506 l -3.979,35.748 c -0.096,0.861 0.2,1.726 0.834,2.434 0.714,0.8 1.778,1.296 2.777,1.296 z"
     id="path1096" /><path
     d="m 1667.437,164.41 c 0.448,0.225 0.924,0.336 1.405,0.336 0.647,0 1.305,-0.202 1.911,-0.601 l 37.52,-24.68 c 1.991,-1.31 1.994,-3.646 0.986,-5.178 -0.939,-1.429 -2.865,-2.24 -4.729,-1.014 l -37.519,24.681 c -1.12,0.737 -1.72,1.909 -1.644,3.214 0.081,1.379 0.894,2.652 2.07,3.242 z"
     id="path1098" /><path
     d="m 1679.593,212.033 c -0.269,0.975 -0.063,2.148 0.534,3.06 0.517,0.79 1.268,1.292 2.114,1.415 12.748,1.844 25.341,5.031 37.431,9.472 0.337,0.124 0.689,0.185 1.046,0.185 0.525,0 1.061,-0.132 1.57,-0.395 0.937,-0.482 1.651,-1.339 1.912,-2.292 0.51,-1.855 -0.52,-3.716 -2.447,-4.424 -12.219,-4.488 -24.947,-7.709 -37.833,-9.573 -2.085,-0.303 -3.825,0.723 -4.327,2.552 z"
     id="path1100" /><path
     d="m 1688.34,289.192 c 0.772,0.655 1.681,0.982 2.566,0.982 0.911,0 1.799,-0.347 2.49,-1.038 0.699,-0.699 1.091,-1.744 1.048,-2.794 -0.039,-0.959 -0.433,-1.804 -1.107,-2.378 -5.254,-4.458 -10.299,-9.343 -15.178,-14.068 -4.9,-4.746 -9.968,-9.653 -15.269,-14.152 -1.569,-1.33 -3.696,-1.307 -5.057,0.056 -0.699,0.699 -1.092,1.744 -1.049,2.795 0.04,0.959 0.434,1.803 1.108,2.376 5.253,4.457 10.297,9.342 15.175,14.066 4.903,4.747 9.971,9.655 15.273,14.155 z"
     id="path1102" /><path
     d="m 1671.251,205.156 c -0.161,-8.317 -1.357,-15.252 -3.656,-21.201 -4.248,-10.995 -12.383,-20.731 -22.906,-27.415 -2.422,-1.539 -5.03,-2.929 -7.751,-4.134 -0.098,-0.043 -0.194,-0.082 -0.292,-0.118 -0.122,-0.06 -0.248,-0.115 -0.379,-0.165 h -10e-4 c -25.685,-9.87 -54.696,-6.223 -73.909,9.289 -5.209,4.206 -9.646,9.453 -12.829,15.174 -3.174,5.706 -5.399,12.542 -6.612,20.317 -2.074,13.295 -1.018,25.989 3.056,36.709 4.546,11.965 13.116,21.596 24.129,27.117 9.479,4.751 20.576,7.153 33.03,7.152 1.134,0 2.281,-0.02 3.437,-0.06 15.553,-0.536 28.88,-4.294 39.612,-11.17 11.382,-7.291 19.465,-17.789 22.762,-29.56 1.743,-6.223 2.476,-13.194 2.309,-21.935 z m -7.585,10.645 c -0.622,6.655 -2.287,12.529 -4.948,17.459 -2.546,4.717 -6.059,9.041 -10.442,12.85 -8.362,7.268 -19.755,12.029 -32.946,13.77 -10.244,1.351 -44.816,3.747 -59.511,-22.172 -4.947,-8.724 -7.236,-19.705 -6.621,-31.755 0.729,-14.256 4.969,-25.723 12.602,-34.081 10.637,-11.646 27.146,-18.067 44.823,-18.067 5.852,0 11.834,0.705 17.77,2.156 3.109,0.76 6.305,1.762 9.501,2.979 9.947,4.499 18.294,11.785 23.535,20.556 5.604,9.379 7.645,21.256 6.237,36.305 z"
     id="path1104" /></g>
</svg>
